<svg id="svg" version="1.1" xmlns="http://www.w3.org/2000/svg" xmlns:xlink="http://www.w3.org/1999/xlink" width="400" height="564.4628099173553" viewBox="0, 0, 400,564.4628099173553"><g id="svgg"><path id="path0" d="M245.477 130.100 C 244.719 131.035,243.810 132.371,243.456 133.068 C 242.695 134.567,240.118 136.753,237.600 138.036 C 236.610 138.540,235.260 139.346,234.600 139.827 C 229.977 143.198,222.867 146.800,220.835 146.800 C 220.430 146.800,219.879 147.064,219.611 147.387 C 219.057 148.054,215.703 150.000,215.107 150.000 C 214.892 150.000,214.209 150.405,213.589 150.900 C 212.969 151.395,210.992 152.692,209.194 153.781 C 207.397 154.871,205.575 156.221,205.146 156.781 C 202.934 159.669,201.578 162.171,200.985 164.458 C 200.623 165.855,200.186 167.088,200.014 167.199 C 197.502 168.815,196.261 175.496,197.192 182.400 C 198.055 188.807,198.600 198.604,198.600 207.730 C 198.600 216.702,198.646 217.294,199.376 217.830 C 200.540 218.684,200.565 218.658,201.940 215.037 C 205.736 205.044,208.672 200.360,217.797 189.738 C 219.339 187.943,220.923 186.008,221.319 185.438 C 221.714 184.867,222.352 184.400,222.736 184.400 C 223.121 184.400,224.830 183.050,226.534 181.400 C 228.239 179.750,229.854 178.400,230.124 178.400 C 230.664 178.400,233.565 176.530,234.200 175.773 C 234.420 175.511,235.081 175.184,235.669 175.048 C 237.111 174.714,239.212 172.897,238.949 172.212 C 238.833 171.908,239.110 171.462,239.569 171.217 C 240.243 170.856,240.400 170.888,240.400 171.386 C 240.400 171.724,240.683 172.000,241.029 172.000 C 242.005 172.000,242.885 170.899,242.608 170.026 C 242.335 169.165,242.961 168.700,246.000 167.507 C 248.262 166.619,248.371 166.624,248.116 167.600 C 247.945 168.253,248.104 168.400,248.977 168.400 C 249.589 168.400,249.941 168.571,249.800 168.800 C 249.377 169.485,250.671 169.238,251.251 168.523 C 251.624 168.063,251.640 167.943,251.300 168.147 C 250.546 168.600,250.700 167.969,251.500 167.326 C 252.118 166.829,251.989 166.794,250.400 167.023 C 248.927 167.235,248.691 167.188,249.100 166.761 C 249.375 166.475,249.600 165.730,249.600 165.107 C 249.600 163.905,249.749 163.804,252.100 163.413 L 253.600 163.164 253.602 160.282 C 253.602 158.697,253.869 155.780,254.195 153.800 C 255.452 146.149,254.822 137.165,252.751 133.200 C 252.119 131.990,251.601 130.793,251.601 130.540 C 251.600 129.894,248.948 128.400,247.804 128.400 C 247.169 128.400,246.397 128.963,245.477 130.100 M266.400 158.967 C 266.400 159.315,266.685 159.600,267.033 159.600 C 267.740 159.600,267.617 158.739,266.875 158.492 C 266.614 158.405,266.400 158.618,266.400 158.967 M69.338 212.217 C 69.208 212.557,69.201 212.935,69.324 213.057 C 69.674 213.408,70.400 212.813,70.400 212.176 C 70.400 211.409,69.637 211.438,69.338 212.217 M108.400 225.586 C 108.400 225.798,108.744 226.156,109.165 226.381 C 110.062 226.861,109.442 228.868,108.507 228.509 C 108.223 228.400,107.718 228.536,107.385 228.812 C 106.512 229.537,106.150 228.939,106.937 228.070 C 108.138 226.743,106.358 226.285,104.565 227.459 C 103.540 228.131,102.397 229.941,102.404 230.880 C 102.413 231.969,105.968 233.125,111.512 233.842 C 112.673 233.992,113.719 234.269,113.835 234.457 C 113.952 234.646,114.616 234.800,115.310 234.800 C 116.005 234.800,117.348 235.096,118.296 235.458 C 120.711 236.380,120.913 235.802,118.802 234.002 C 117.806 233.152,116.895 232.646,116.760 232.865 C 116.406 233.437,110.277 231.730,108.890 230.674 C 107.880 229.904,108.724 230.027,112.416 231.184 C 117.114 232.657,117.094 232.783,112.819 228.662 C 109.437 225.402,108.400 224.680,108.400 225.586 M82.200 250.800 C 82.040 251.058,82.090 251.450,82.310 251.670 C 82.576 251.936,82.806 251.913,83.000 251.600 C 83.160 251.342,83.110 250.950,82.890 250.730 C 82.624 250.464,82.394 250.487,82.200 250.800 M169.600 261.176 C 169.600 261.629,169.780 262.000,170.000 262.000 C 170.220 262.000,170.400 261.741,170.400 261.424 C 170.400 261.107,170.220 260.736,170.000 260.600 C 169.780 260.464,169.600 260.723,169.600 261.176 M176.243 265.033 C 175.900 265.927,175.927 266.000,176.600 266.000 C 176.933 266.000,177.200 265.644,177.200 265.200 C 177.200 264.246,176.586 264.139,176.243 265.033 M259.700 297.476 C 260.085 297.576,260.715 297.576,261.100 297.476 C 261.485 297.375,261.170 297.293,260.400 297.293 C 259.630 297.293,259.315 297.375,259.700 297.476 M264.200 298.015 C 267.748 298.456,269.600 298.450,269.600 298.000 C 269.600 297.757,268.073 297.623,265.700 297.659 C 261.982 297.715,261.912 297.732,264.200 298.015 M262.264 299.393 C 260.564 301.093,261.180 304.052,263.400 304.855 C 264.170 305.133,264.800 305.487,264.800 305.642 C 264.800 305.797,265.835 306.507,267.100 307.221 C 270.514 309.147,276.988 313.555,280.504 316.349 C 284.064 319.178,284.649 319.129,281.395 316.275 C 280.188 315.216,279.200 314.169,279.200 313.948 C 279.200 313.464,281.128 314.791,282.450 316.185 C 282.972 316.735,283.595 317.189,283.832 317.193 C 284.070 317.197,285.519 318.505,287.053 320.100 C 292.146 325.398,293.346 328.140,288.520 323.452 C 287.024 321.999,285.738 320.995,285.662 321.219 C 285.586 321.444,286.423 322.477,287.521 323.514 C 291.450 327.225,296.146 334.655,298.572 341.000 C 299.161 342.540,299.802 344.094,299.996 344.453 C 304.535 352.858,301.575 370.113,294.185 378.333 L 292.326 380.400 294.663 380.397 C 296.886 380.395,297.047 380.326,297.958 378.988 C 299.164 377.217,298.995 377.062,296.890 378.004 C 294.872 378.908,294.481 378.163,296.300 376.877 C 297.153 376.274,302.715 373.285,304.500 372.470 C 305.014 372.236,304.828 373.542,304.300 373.880 C 304.025 374.056,303.800 374.650,303.800 375.200 C 303.800 375.968,303.568 376.228,302.800 376.320 C 300.972 376.538,300.658 376.747,301.189 377.387 C 301.779 378.098,301.463 378.652,299.937 379.580 C 298.788 380.279,298.928 380.290,306.279 380.107 C 310.962 379.991,314.928 380.095,316.798 380.385 C 319.687 380.832,320.943 381.155,328.400 383.375 C 330.270 383.931,333.240 384.668,335.000 385.013 C 336.760 385.357,338.740 385.841,339.400 386.088 C 340.060 386.336,341.790 386.611,343.244 386.700 L 345.888 386.861 346.147 385.565 C 346.403 384.284,345.873 383.022,344.498 381.643 C 344.193 381.337,342.971 379.867,341.782 378.378 C 340.594 376.889,339.078 375.283,338.414 374.810 C 337.088 373.866,334.224 369.626,333.004 366.800 C 332.577 365.810,331.929 364.550,331.564 364.000 C 331.200 363.450,330.418 362.139,329.827 361.087 C 329.158 359.897,328.019 358.689,326.816 357.893 C 325.647 357.120,324.270 355.676,323.340 354.249 C 322.493 352.948,321.296 351.110,320.679 350.163 C 319.053 347.667,316.371 340.229,315.990 337.159 C 315.760 335.312,315.070 333.267,313.696 330.359 C 312.616 328.071,311.456 325.570,311.119 324.800 C 309.988 322.213,305.289 315.350,304.139 314.606 C 303.512 314.200,302.100 313.125,301.000 312.216 C 298.069 309.795,295.959 308.484,290.600 305.758 C 287.960 304.415,284.240 302.487,282.334 301.473 L 278.868 299.629 273.074 299.423 L 267.281 299.218 266.556 300.309 C 265.631 301.703,265.500 302.573,265.963 304.250 C 266.243 305.266,266.211 305.600,265.832 305.600 C 265.154 305.600,264.404 303.871,264.659 302.895 C 264.805 302.337,264.624 302.047,264.032 301.893 C 262.796 301.569,263.024 300.642,264.474 300.095 C 265.937 299.542,265.890 299.408,264.115 299.071 C 263.262 298.908,262.641 299.016,262.264 299.393 M274.721 310.559 C 275.315 310.867,276.161 311.528,276.601 312.029 C 277.257 312.776,274.755 311.369,273.233 310.135 C 272.806 309.788,273.752 310.058,274.721 310.559 M191.146 319.704 C 190.818 319.977,189.854 321.730,189.002 323.600 C 188.151 325.470,187.037 327.671,186.527 328.492 C 186.017 329.313,185.600 330.348,185.600 330.792 C 185.600 331.236,185.456 331.555,185.279 331.500 C 184.839 331.363,183.025 333.528,180.003 337.800 C 176.642 342.552,168.557 350.564,165.272 352.400 C 163.893 353.170,161.738 354.409,160.483 355.154 C 145.543 364.018,141.347 365.600,132.770 365.600 C 129.087 365.600,128.650 365.996,129.057 368.962 C 129.371 371.257,128.905 371.849,126.716 371.935 C 123.763 372.051,119.535 379.087,117.214 387.749 C 116.788 389.337,115.891 391.860,115.220 393.356 C 113.654 396.845,113.664 396.927,115.600 396.600 C 116.652 396.422,117.200 396.479,117.200 396.765 C 117.200 397.481,117.751 397.298,122.512 395.000 C 125.019 393.790,127.315 392.800,127.614 392.800 C 127.913 392.800,128.825 392.337,129.640 391.772 C 130.653 391.070,132.247 390.550,134.662 390.132 C 138.611 389.450,138.352 389.427,149.600 391.433 C 155.467 392.479,167.398 392.408,170.600 391.308 C 171.920 390.855,174.170 390.161,175.600 389.766 C 177.030 389.372,179.100 388.482,180.200 387.789 C 181.300 387.096,183.280 385.958,184.600 385.259 C 189.271 382.787,191.846 380.413,191.607 378.800 C 191.388 377.322,192.536 376.170,193.761 376.640 C 194.760 377.024,194.762 375.654,193.766 373.122 C 189.572 362.463,188.616 342.569,191.400 323.856 C 192.089 319.222,192.071 318.934,191.146 319.704 M306.100 330.957 C 306.485 331.249,306.800 331.747,306.800 332.064 C 306.800 332.381,307.013 332.853,307.273 333.113 C 307.534 333.374,307.622 333.712,307.469 333.864 C 307.200 334.133,306.907 333.831,305.167 331.500 C 304.277 330.308,304.825 329.989,306.100 330.957 M299.936 333.819 C 300.652 335.390,300.487 335.818,299.600 334.691 C 299.160 334.131,298.800 333.477,298.800 333.237 C 298.800 332.443,299.464 332.783,299.936 333.819 M314.100 338.679 C 315.161 340.077,315.676 342.742,314.779 342.187 C 314.430 341.971,312.400 337.844,312.400 337.350 C 312.400 336.841,313.151 337.428,314.100 338.679 M127.463 366.483 C 127.138 367.725,127.385 367.789,127.926 366.602 C 128.177 366.051,128.228 365.600,128.038 365.600 C 127.848 365.600,127.589 365.997,127.463 366.483 M135.860 366.273 C 135.710 366.424,134.915 366.599,134.093 366.662 C 133.023 366.745,132.770 366.669,133.200 366.395 C 133.879 365.962,136.281 365.852,135.860 366.273 M348.951 370.400 C 348.951 372.930,349.016 373.965,349.096 372.700 C 349.175 371.435,349.175 369.365,349.096 368.100 C 349.016 366.835,348.951 367.870,348.951 370.400 M321.560 376.524 C 321.538 377.226,321.376 378.250,321.200 378.800 L 320.880 379.800 320.789 378.800 C 320.739 378.250,320.653 377.351,320.599 376.803 C 320.544 376.254,320.586 375.580,320.692 375.305 C 321.034 374.414,321.601 375.211,321.560 376.524 M338.492 378.640 C 340.183 380.461,341.994 383.091,341.998 383.732 C 341.999 383.914,341.415 383.946,340.700 383.802 C 337.719 383.202,337.798 383.298,337.015 379.300 C 336.430 376.314,336.361 376.345,338.492 378.640 M137.476 400.317 C 136.836 400.397,136.420 400.660,136.510 400.929 C 136.710 401.531,139.284 401.548,139.484 400.949 C 139.674 400.377,138.913 400.137,137.476 400.317 M274.100 411.087 C 274.705 411.178,275.695 411.178,276.300 411.087 C 276.905 410.995,276.410 410.920,275.200 410.920 C 273.990 410.920,273.495 410.995,274.100 411.087 " stroke="none" fill="#618813" fill-rule="evenodd"></path><path id="path1" d="M149.400 128.390 C 148.300 128.568,146.530 129.093,145.467 129.557 C 144.404 130.021,143.288 130.400,142.988 130.400 C 142.688 130.400,141.596 130.850,140.562 131.400 C 139.131 132.160,138.080 132.400,136.172 132.400 C 133.763 132.400,133.654 132.444,133.412 133.500 C 132.951 135.522,131.056 137.725,128.511 139.196 C 123.979 141.817,122.884 142.987,122.565 145.553 C 121.906 150.843,118.543 152.485,106.400 153.446 C 102.749 153.734,98.493 155.079,97.937 156.119 C 97.691 156.578,97.055 157.415,96.524 157.977 C 91.943 162.834,89.922 167.298,88.998 174.600 C 88.679 177.121,87.706 181.134,87.142 182.256 C 86.857 182.824,86.843 183.348,87.102 183.810 C 87.321 184.203,87.359 185.096,87.187 185.857 C 86.834 187.422,86.870 188.008,87.752 195.049 C 88.355 199.867,89.663 204.722,91.402 208.600 C 93.534 213.352,94.000 214.473,94.000 214.841 C 94.000 215.771,96.100 218.697,97.839 220.190 C 98.858 221.064,100.372 222.781,101.204 224.006 C 103.627 227.574,103.659 227.586,106.659 226.030 L 109.236 224.694 110.144 225.547 C 110.643 226.016,111.343 226.400,111.699 226.400 C 112.055 226.400,112.461 226.763,112.602 227.206 C 112.743 227.649,113.052 227.891,113.291 227.744 C 113.554 227.581,113.608 227.664,113.427 227.956 C 112.925 228.769,118.374 233.510,119.215 232.991 C 119.422 232.863,119.506 232.993,119.402 233.279 C 119.293 233.578,120.236 234.566,121.615 235.597 C 124.645 237.864,124.271 237.973,119.457 236.231 L 115.597 234.833 116.198 235.997 C 117.777 239.050,116.257 241.472,112.200 242.366 C 107.604 243.380,103.384 244.814,101.000 246.172 C 99.680 246.924,97.745 248.006,96.700 248.576 C 95.655 249.147,94.800 249.874,94.800 250.192 C 94.800 250.975,91.890 253.744,89.200 255.520 C 87.990 256.319,86.910 257.070,86.800 257.190 C 86.690 257.309,85.926 257.856,85.103 258.404 C 84.279 258.952,83.604 259.535,83.603 259.700 C 83.601 259.865,83.330 260.000,83.000 260.000 C 82.670 260.000,82.400 260.180,82.400 260.400 C 82.400 260.620,82.130 260.800,81.800 260.800 C 81.470 260.800,81.200 260.968,81.200 261.173 C 81.200 261.378,80.865 261.653,80.455 261.783 C 80.045 261.913,78.778 263.140,77.639 264.510 C 76.500 265.879,75.241 267.360,74.840 267.800 C 71.338 271.644,69.379 285.093,71.025 294.000 C 71.330 295.650,71.775 298.440,72.015 300.200 C 73.108 308.239,80.946 316.800,87.213 316.800 C 88.451 316.800,92.446 319.270,92.827 320.270 C 93.032 320.810,93.774 321.735,94.476 322.326 C 96.481 324.012,97.594 325.286,98.388 326.800 C 98.792 327.570,99.519 328.650,100.005 329.200 C 101.283 330.647,100.951 335.144,99.383 337.628 C 98.208 339.489,98.166 342.097,99.214 348.200 C 99.441 349.520,99.693 351.050,99.775 351.600 C 100.277 354.983,101.802 359.772,102.859 361.286 C 103.517 362.229,104.524 363.745,105.098 364.655 C 105.671 365.565,106.693 366.626,107.370 367.013 C 108.046 367.399,108.982 368.060,109.450 368.480 C 109.917 368.901,111.925 369.850,113.911 370.588 C 115.897 371.326,118.001 372.244,118.586 372.628 C 119.582 373.280,119.737 373.283,121.038 372.662 C 121.802 372.298,123.047 372.000,123.804 372.000 C 125.530 372.000,126.267 370.977,126.868 367.746 L 127.304 365.400 131.952 365.344 C 139.800 365.249,145.875 363.460,153.671 358.948 C 156.162 357.506,159.550 355.550,161.200 354.600 C 174.068 347.191,186.852 330.966,192.008 315.500 C 193.387 311.363,193.997 313.135,192.868 318.000 C 189.042 334.494,189.492 359.093,193.856 371.961 L 195.267 376.121 193.584 377.660 C 191.272 379.773,191.824 382.324,195.503 386.529 C 196.559 387.735,197.679 389.235,197.992 389.861 C 199.594 393.068,203.219 397.359,206.138 399.501 C 207.248 400.316,208.551 401.349,209.034 401.796 C 209.517 402.244,210.817 402.936,211.922 403.333 C 213.028 403.731,214.983 404.872,216.266 405.869 C 219.822 408.631,221.214 409.110,229.400 410.389 C 234.258 411.147,245.777 410.694,248.362 409.643 C 249.551 409.159,251.763 408.502,253.277 408.184 C 256.474 407.511,258.189 406.706,259.595 405.217 C 260.220 404.555,261.734 403.799,263.600 403.216 C 265.250 402.701,266.771 402.127,266.980 401.940 C 267.189 401.753,267.999 401.599,268.780 401.598 C 270.112 401.596,270.773 401.286,273.330 399.467 C 273.896 399.064,275.403 398.462,276.678 398.129 C 277.954 397.796,279.783 396.993,280.744 396.344 C 281.705 395.696,283.506 394.624,284.746 393.963 C 288.422 392.002,289.798 391.089,291.647 389.385 C 292.611 388.497,294.480 386.974,295.800 386.001 C 297.120 385.028,299.094 383.339,300.186 382.249 L 302.173 380.265 300.786 380.608 C 299.483 380.929,291.600 381.153,291.600 380.868 C 291.600 380.796,292.485 379.716,293.567 378.468 C 299.598 371.511,302.525 362.712,301.797 353.722 C 301.506 350.124,300.409 348.182,297.439 346.000 C 296.690 345.450,295.750 344.394,295.350 343.654 C 293.875 340.919,286.442 335.622,284.037 335.592 C 283.664 335.587,283.057 334.799,282.573 333.692 L 281.746 331.800 283.030 328.974 C 283.735 327.419,284.641 325.106,285.042 323.833 L 285.771 321.519 283.971 319.860 C 275.474 312.026,264.915 305.712,245.400 296.792 C 237.888 293.359,228.714 288.752,228.940 288.527 C 228.995 288.471,231.012 289.242,233.420 290.239 C 242.408 293.959,252.362 296.397,259.600 296.651 C 261.910 296.732,264.970 296.905,266.400 297.037 C 267.830 297.168,270.035 297.366,271.301 297.475 C 273.670 297.680,274.134 298.400,271.896 298.400 C 271.024 298.400,270.768 298.528,271.057 298.817 C 271.611 299.371,283.522 299.405,285.268 298.857 C 286.001 298.627,287.463 298.224,288.517 297.963 C 289.572 297.701,291.192 296.987,292.117 296.377 C 293.043 295.766,294.890 294.986,296.222 294.642 C 300.549 293.528,306.726 289.505,310.360 285.435 C 310.932 284.794,312.480 283.174,313.800 281.835 C 319.441 276.112,325.842 265.399,326.278 260.951 C 326.405 259.658,326.645 258.420,326.813 258.200 C 327.544 257.238,327.937 254.739,327.537 253.592 C 327.240 252.741,327.302 251.298,327.763 248.310 C 328.322 244.686,328.328 244.011,327.816 242.600 C 327.497 241.720,327.227 240.066,327.218 238.924 C 327.208 237.782,327.020 236.736,326.800 236.600 C 326.580 236.464,326.400 236.090,326.400 235.768 C 326.400 234.126,321.488 225.380,320.272 224.856 C 320.089 224.777,319.409 224.195,318.762 223.563 C 315.878 220.743,312.718 220.323,308.400 222.185 C 302.874 224.568,298.077 223.175,295.071 218.314 C 293.176 215.248,295.847 205.931,299.853 201.636 C 305.958 195.090,299.998 178.981,289.400 173.386 C 287.860 172.573,286.049 171.423,285.375 170.831 C 283.923 169.557,279.432 167.278,275.077 165.605 C 273.360 164.946,271.363 163.955,270.639 163.403 C 269.130 162.251,268.576 162.214,264.200 162.962 C 261.087 163.495,258.719 163.508,255.362 163.012 C 253.325 162.711,253.023 163.043,252.387 166.293 C 251.817 169.202,251.622 169.409,249.100 169.774 C 247.377 170.023,247.200 169.975,247.200 169.252 C 247.200 168.409,245.873 168.538,244.129 169.551 C 243.487 169.925,243.531 169.977,244.500 169.988 C 246.398 170.009,245.711 170.523,240.077 173.296 C 234.428 176.078,228.799 179.828,225.529 182.991 C 224.499 183.986,223.498 184.800,223.304 184.800 C 222.914 184.800,220.800 186.899,220.800 187.285 C 220.800 187.418,219.799 188.578,218.576 189.863 C 217.352 191.148,215.707 193.145,214.919 194.300 C 214.131 195.455,213.276 196.400,213.019 196.400 C 212.329 196.400,210.717 198.742,211.043 199.270 C 211.208 199.536,211.146 199.614,210.893 199.458 C 210.512 199.222,208.761 201.743,207.185 204.800 C 206.699 205.741,206.711 205.765,207.392 205.203 C 208.064 204.649,208.093 204.677,207.807 205.603 C 207.321 207.174,206.413 208.800,206.022 208.800 C 205.826 208.800,205.262 210.015,204.769 211.500 C 204.276 212.985,202.902 216.080,201.714 218.379 C 200.358 221.004,199.195 223.978,198.587 226.379 C 197.730 229.765,197.640 229.950,197.801 228.000 C 198.345 221.404,198.452 207.202,198.005 201.000 C 197.736 197.260,197.452 192.760,197.375 191.000 C 197.298 189.240,196.870 185.219,196.425 182.065 C 195.700 176.929,195.677 176.211,196.208 175.185 C 196.533 174.555,196.800 173.617,196.800 173.100 C 196.800 172.583,197.003 171.957,197.251 171.709 C 198.597 170.363,196.726 165.643,189.152 151.275 C 187.086 147.357,177.760 136.800,176.364 136.800 C 176.184 136.800,175.618 136.395,175.107 135.900 C 172.821 133.688,170.298 132.305,167.483 131.722 C 165.904 131.395,164.294 130.957,163.904 130.749 C 163.515 130.540,161.982 130.267,160.498 130.142 C 159.014 130.017,157.080 129.582,156.200 129.174 C 154.170 128.235,151.943 127.978,149.400 128.390 M111.300 143.246 C 109.187 144.599,109.580 145.177,112.040 144.334 C 113.601 143.800,114.172 143.157,113.479 142.717 C 112.816 142.296,112.764 142.308,111.300 143.246 M108.954 161.775 C 108.833 162.091,108.464 162.246,108.133 162.119 C 107.645 161.932,107.632 161.826,108.066 161.550 C 108.864 161.045,109.202 161.130,108.954 161.775 M125.242 163.718 C 124.728 164.232,124.207 163.835,124.588 163.220 C 124.735 162.982,125.039 162.900,125.262 163.039 C 125.536 163.207,125.529 163.431,125.242 163.718 M206.185 206.600 C 206.015 207.040,205.789 207.580,205.682 207.800 C 205.575 208.020,205.804 207.903,206.190 207.539 C 206.577 207.176,206.803 206.636,206.693 206.339 C 206.552 205.959,206.402 206.036,206.185 206.600 M288.400 218.000 C 287.741 219.592,287.462 219.314,288.044 217.644 C 288.291 216.938,288.586 216.453,288.700 216.567 C 288.814 216.681,288.679 217.326,288.400 218.000 M289.551 220.304 C 289.973 221.131,290.446 222.825,290.601 224.067 C 290.877 226.275,290.916 226.333,292.328 226.598 C 294.956 227.091,296.297 227.993,295.389 228.658 C 294.286 229.464,292.070 229.933,290.017 229.795 C 288.734 229.708,288.080 229.861,287.687 230.337 C 287.192 230.938,287.157 230.922,287.317 230.162 C 287.454 229.506,287.116 229.119,285.756 228.376 C 283.376 227.076,283.355 226.784,285.404 223.285 C 286.392 221.598,287.200 220.530,287.200 220.914 C 287.200 221.297,286.975 221.976,286.700 222.423 C 286.265 223.129,286.330 223.334,287.194 223.990 C 288.309 224.837,288.777 224.737,288.012 223.814 C 287.544 223.250,287.635 221.588,288.248 219.500 C 288.538 218.514,288.684 218.604,289.551 220.304 M82.601 220.453 C 83.440 223.239,85.383 227.540,86.699 229.523 C 88.834 232.740,88.891 231.167,86.769 227.594 C 85.842 226.035,84.683 223.651,84.193 222.296 C 83.337 219.934,81.968 218.347,82.601 220.453 M108.498 235.300 C 108.751 236.069,110.400 236.180,110.400 235.428 C 110.400 235.019,110.039 234.800,109.367 234.800 C 108.719 234.800,108.395 234.987,108.498 235.300 M325.439 240.719 C 325.633 242.012,325.581 242.435,325.254 242.233 C 325.004 242.079,324.800 241.504,324.800 240.954 C 324.800 240.405,324.441 239.168,324.002 238.205 C 323.563 237.242,323.321 236.151,323.463 235.781 C 323.786 234.937,325.042 238.075,325.439 240.719 M210.800 238.469 C 210.800 239.109,209.588 240.400,208.987 240.400 C 208.249 240.400,207.480 239.290,207.743 238.605 C 208.022 237.878,210.800 237.754,210.800 238.469 M212.800 248.452 C 212.800 248.647,212.452 248.589,212.026 248.323 C 211.600 248.057,211.346 247.687,211.461 247.501 C 211.697 247.119,212.800 247.903,212.800 248.452 M176.171 248.629 C 176.897 249.355,176.968 249.849,176.397 250.202 C 176.176 250.339,175.881 250.154,175.742 249.792 C 175.541 249.269,175.421 249.243,175.161 249.663 C 174.906 250.075,174.727 250.087,174.354 249.714 C 173.981 249.341,173.988 249.097,174.386 248.617 C 175.032 247.839,175.384 247.841,176.171 248.629 M191.882 250.790 C 192.387 251.745,192.800 253.038,192.800 253.663 C 192.800 254.825,193.479 255.161,194.257 254.383 C 194.837 253.803,195.669 254.841,195.213 255.578 C 194.752 256.325,189.455 256.637,189.697 255.903 C 189.788 255.626,190.254 255.342,190.731 255.272 C 191.845 255.108,191.871 253.618,190.800 251.400 C 189.313 248.321,190.287 247.773,191.882 250.790 M213.475 252.138 C 213.134 252.652,212.300 253.098,211.410 253.244 C 210.589 253.378,209.752 253.738,209.551 254.044 C 209.350 254.350,208.814 255.185,208.360 255.900 C 207.906 256.615,207.303 257.200,207.019 257.200 C 206.360 257.200,205.431 260.473,205.741 261.708 C 206.150 263.338,207.765 265.378,209.120 265.978 C 209.883 266.315,210.344 266.769,210.229 267.068 C 210.080 267.457,210.450 267.523,211.764 267.343 C 214.179 267.012,214.552 267.779,212.749 269.373 C 211.456 270.517,211.064 272.000,212.056 272.000 C 212.275 272.000,212.340 271.640,212.200 271.200 C 211.828 270.028,212.262 270.216,213.712 271.856 C 215.492 273.868,216.648 276.184,215.683 275.803 C 213.612 274.987,210.696 275.057,211.153 275.913 C 211.399 276.372,211.579 277.614,211.554 278.674 C 211.528 279.733,211.424 280.240,211.323 279.800 C 210.423 275.884,210.432 275.899,209.073 276.183 C 206.986 276.619,205.800 276.625,205.800 276.200 C 205.800 275.980,206.071 275.835,206.402 275.878 C 206.862 275.938,207.009 275.512,207.023 274.078 C 207.033 273.045,207.188 271.623,207.367 270.919 C 207.666 269.743,207.529 269.466,205.699 267.548 L 203.706 265.458 202.753 266.453 C 202.229 267.000,201.596 267.796,201.347 268.224 C 200.736 269.270,200.295 268.757,200.637 267.396 C 200.788 266.792,201.426 266.006,202.054 265.649 C 203.320 264.929,203.485 263.948,202.600 262.400 C 200.912 259.448,202.978 255.609,206.260 255.597 C 206.667 255.596,207.309 255.052,207.686 254.389 C 208.124 253.619,209.064 252.898,210.286 252.392 C 211.339 251.957,212.470 251.442,212.800 251.248 C 213.736 250.697,214.107 251.186,213.475 252.138 M186.427 256.000 C 186.976 256.000,186.858 256.889,186.191 257.771 C 185.325 258.917,185.078 258.308,185.445 255.926 C 185.683 254.377,185.810 254.098,185.913 254.900 C 185.990 255.505,186.221 256.000,186.427 256.000 M199.745 255.000 C 200.018 255.712,199.663 256.800,199.157 256.800 C 198.961 256.800,198.800 256.260,198.800 255.600 C 198.800 254.336,199.355 253.983,199.745 255.000 M180.602 257.202 C 181.002 257.644,181.215 258.118,181.077 258.257 C 180.758 258.575,178.800 257.315,178.800 256.791 C 178.800 256.123,179.841 256.361,180.602 257.202 M189.697 258.295 C 189.802 258.903,190.022 259.715,190.186 260.100 C 190.637 261.155,189.722 260.958,188.991 259.842 C 188.593 259.235,188.459 258.505,188.624 257.845 C 188.941 256.584,189.440 256.793,189.697 258.295 M196.400 258.751 C 196.400 259.522,195.343 260.677,194.975 260.309 C 194.693 260.026,195.649 258.000,196.064 258.000 C 196.249 258.000,196.400 258.338,196.400 258.751 M198.800 258.644 C 198.800 259.310,196.252 263.556,195.961 263.376 C 195.776 263.261,196.069 262.163,196.612 260.934 C 197.155 259.706,197.600 258.633,197.600 258.550 C 197.600 258.468,197.870 258.400,198.200 258.400 C 198.530 258.400,198.800 258.510,198.800 258.644 M170.600 261.200 C 170.600 261.713,170.375 262.208,170.100 262.300 C 169.487 262.504,169.026 261.429,169.357 260.567 C 169.709 259.650,170.600 260.104,170.600 261.200 M221.230 262.910 C 221.181 263.388,220.632 263.296,220.460 262.780 C 220.372 262.516,220.516 262.372,220.780 262.460 C 221.044 262.548,221.247 262.750,221.230 262.910 M184.611 265.078 C 184.351 265.722,184.279 265.695,183.945 264.826 C 183.426 263.474,183.923 262.252,184.494 263.478 C 184.719 263.961,184.771 264.681,184.611 265.078 M192.000 264.138 C 192.000 265.782,193.225 267.134,193.937 266.276 C 194.520 265.573,196.242 265.712,196.075 266.448 C 195.638 268.384,191.678 270.391,190.615 269.216 C 189.695 268.200,189.802 267.470,190.782 268.081 C 191.823 268.732,192.236 268.236,191.676 267.007 C 191.302 266.186,191.062 266.071,190.311 266.348 C 189.810 266.534,189.174 266.606,188.898 266.508 C 188.104 266.229,188.746 265.600,189.824 265.600 C 190.519 265.600,190.800 265.380,190.800 264.833 C 190.800 263.788,191.209 262.800,191.643 262.800 C 191.839 262.800,192.000 263.402,192.000 264.138 M195.280 263.588 C 196.073 264.328,196.081 264.394,195.405 264.653 C 194.929 264.836,194.500 264.678,194.142 264.189 C 193.043 262.686,193.853 262.259,195.280 263.588 M177.617 265.780 C 176.976 266.551,176.241 266.572,175.630 265.836 C 174.898 264.954,176.730 263.758,177.553 264.581 C 178.027 265.056,178.039 265.271,177.617 265.780 M181.471 266.240 C 181.812 267.129,180.747 267.718,180.053 267.024 C 179.752 266.723,179.627 266.279,179.776 266.038 C 180.179 265.387,181.190 265.508,181.471 266.240 M199.000 267.906 C 199.774 268.475,200.792 272.127,200.331 272.683 C 200.021 273.056,200.034 273.200,200.375 273.200 C 200.635 273.200,200.724 273.399,200.574 273.643 C 200.383 273.952,200.191 273.921,199.941 273.543 C 199.658 273.116,199.387 273.236,198.676 274.100 C 197.928 275.008,197.450 275.200,195.937 275.200 C 194.130 275.200,194.101 275.221,193.857 276.700 C 193.126 281.120,194.451 282.840,197.137 280.959 C 198.547 279.972,198.614 280.566,197.370 283.024 C 196.744 284.262,196.267 285.699,196.310 286.217 C 196.412 287.456,195.752 287.832,195.220 286.837 C 194.653 285.779,194.690 284.285,195.300 283.591 C 195.575 283.277,195.389 283.365,194.886 283.785 C 194.383 284.206,194.051 284.757,194.149 285.011 C 194.565 286.095,193.750 286.449,192.496 285.729 C 191.327 285.058,191.221 285.057,190.499 285.710 C 189.415 286.692,188.028 286.683,188.890 285.700 C 190.017 284.415,190.761 282.537,190.516 281.599 C 190.348 280.957,190.415 280.762,190.737 280.961 C 190.992 281.118,191.200 281.507,191.200 281.824 C 191.200 282.528,192.382 282.601,192.444 281.900 C 192.666 279.394,192.362 276.621,191.798 275.998 C 191.124 275.252,193.102 274.275,196.000 273.922 C 196.946 273.807,196.992 273.685,196.862 271.688 C 196.683 268.937,197.775 267.006,199.000 267.906 M196.000 268.800 C 196.000 269.020,195.730 269.200,195.400 269.200 C 195.070 269.200,194.800 269.020,194.800 268.800 C 194.800 268.580,195.070 268.400,195.400 268.400 C 195.730 268.400,196.000 268.580,196.000 268.800 M176.807 270.553 C 176.272 271.088,174.987 269.869,175.392 269.212 C 175.598 268.879,175.897 268.945,176.449 269.444 C 176.978 269.923,177.090 270.270,176.807 270.553 M190.463 269.900 C 190.682 272.316,190.079 274.591,188.790 276.213 C 188.135 277.036,187.600 278.135,187.600 278.655 C 187.600 279.374,187.380 279.600,186.680 279.600 C 185.472 279.600,184.800 278.885,184.800 277.600 C 184.800 276.337,184.132 275.590,183.251 275.869 C 182.741 276.031,182.718 275.991,183.143 275.688 C 183.522 275.417,183.552 275.218,183.243 275.026 C 182.300 274.444,182.876 274.000,184.573 274.000 C 185.979 274.000,186.397 273.839,186.594 273.220 C 186.730 272.792,187.202 272.326,187.643 272.186 C 188.085 272.046,188.739 271.317,189.097 270.566 C 189.808 269.074,190.364 268.803,190.463 269.900 M181.770 270.667 C 182.072 271.452,181.460 272.208,180.835 271.822 C 180.204 271.432,180.301 270.000,180.957 270.000 C 181.264 270.000,181.630 270.300,181.770 270.667 M177.144 271.449 C 178.649 271.750,178.408 272.400,176.790 272.400 C 176.038 272.400,175.477 272.682,175.200 273.200 C 174.559 274.398,174.160 274.168,174.160 272.600 C 174.160 271.077,174.544 270.929,177.144 271.449 M208.570 273.152 C 208.849 273.603,210.800 273.987,210.800 273.591 C 210.800 273.427,210.395 273.185,209.900 273.052 C 208.650 272.717,208.317 272.742,208.570 273.152 M199.729 275.551 C 199.566 276.174,199.708 276.268,200.559 276.106 C 202.729 275.691,203.600 276.255,203.600 278.077 L 203.600 279.739 202.610 278.810 C 201.398 277.671,200.622 278.698,201.751 279.946 C 203.240 281.591,202.383 282.047,200.359 280.686 C 198.580 279.490,197.839 274.800,199.429 274.800 C 199.717 274.800,199.843 275.115,199.729 275.551 M172.777 277.243 C 172.470 277.816,172.195 277.955,171.918 277.678 C 171.411 277.171,171.845 276.400,172.638 276.400 C 173.114 276.400,173.141 276.563,172.777 277.243 M182.945 277.800 C 182.818 278.130,182.464 278.400,182.157 278.400 C 181.851 278.400,181.600 278.130,181.600 277.800 C 181.600 277.470,181.954 277.200,182.387 277.200 C 182.923 277.200,183.101 277.392,182.945 277.800 M206.171 283.809 C 206.595 284.129,206.833 284.500,206.701 284.632 C 206.287 285.047,204.800 284.375,204.800 283.773 C 204.800 283.054,205.186 283.064,206.171 283.809 M198.728 284.469 C 198.566 285.568,197.600 285.937,197.600 284.900 C 197.600 284.070,197.923 283.600,198.494 283.600 C 198.693 283.600,198.798 283.991,198.728 284.469 M206.557 287.433 C 206.895 288.312,206.870 288.400,206.285 288.400 C 206.002 288.400,205.743 288.040,205.710 287.600 C 205.638 286.648,206.213 286.534,206.557 287.433 M193.391 287.900 C 193.230 288.285,193.009 289.005,192.902 289.500 C 192.686 290.495,192.000 290.737,192.000 289.819 C 192.000 288.951,192.874 287.200,193.307 287.200 C 193.515 287.200,193.553 287.515,193.391 287.900 M170.229 288.609 C 169.407 289.230,168.948 289.132,169.384 288.427 C 169.529 288.192,169.952 288.006,170.324 288.013 C 170.917 288.024,170.906 288.097,170.229 288.609 M171.745 289.000 C 171.618 289.330,171.129 289.594,170.657 289.587 C 169.817 289.575,169.816 289.563,170.576 288.987 C 171.573 288.234,172.037 288.239,171.745 289.000 M266.000 318.000 C 266.000 318.587,265.733 318.800,265.000 318.800 C 263.908 318.800,263.734 318.426,264.480 317.680 C 265.216 316.944,266.000 317.109,266.000 318.000 M286.400 320.125 C 286.400 320.194,286.985 320.779,287.700 321.425 L 289.000 322.600 287.825 321.300 C 286.730 320.088,286.400 319.816,286.400 320.125 M349.386 345.600 C 349.386 357.150,349.437 361.875,349.500 356.100 C 349.562 350.325,349.562 340.875,349.500 335.100 C 349.437 329.325,349.386 334.050,349.386 345.600 M90.087 330.462 C 90.295 331.085,91.190 331.194,91.221 330.600 C 91.233 330.380,90.942 330.138,90.575 330.062 C 90.158 329.975,89.975 330.125,90.087 330.462 M127.063 369.372 C 126.688 370.236,126.446 371.136,126.526 371.372 C 126.749 372.030,128.069 369.238,127.896 368.473 C 127.795 368.021,127.520 368.317,127.063 369.372 M348.800 391.776 C 348.800 402.663,348.943 408.841,349.200 409.000 C 349.464 409.163,349.600 403.404,349.600 392.024 C 349.600 380.808,349.460 374.800,349.200 374.800 C 348.940 374.800,348.800 380.725,348.800 391.776 M336.802 377.280 C 336.784 379.786,337.733 381.600,339.060 381.600 L 340.454 381.600 339.632 380.500 C 338.177 378.554,336.804 376.992,336.802 377.280 M198.515 381.542 C 199.555 382.257,200.748 383.508,201.168 384.321 C 201.587 385.134,203.141 387.418,204.620 389.395 C 208.135 394.092,209.092 397.173,206.046 393.986 C 205.408 393.318,204.644 392.823,204.347 392.886 C 203.975 392.965,203.848 392.654,203.936 391.877 C 204.042 390.939,203.861 390.678,202.832 390.289 C 202.154 390.034,201.600 389.549,201.599 389.212 C 201.599 388.876,200.906 387.948,200.060 387.152 C 199.168 386.313,197.728 384.125,196.638 381.952 C 195.293 379.271,195.023 378.491,195.690 379.221 C 196.204 379.782,197.476 380.826,198.515 381.542 M197.600 382.800 C 197.600 383.020,197.870 383.200,198.200 383.200 C 198.530 383.200,198.800 383.020,198.800 382.800 C 198.800 382.580,198.530 382.400,198.200 382.400 C 197.870 382.400,197.600 382.580,197.600 382.800 M267.500 391.048 C 268.429 391.284,268.008 391.908,266.801 392.085 C 265.876 392.221,265.464 392.052,265.001 391.345 C 264.169 390.076,264.222 390.011,265.700 390.495 C 266.415 390.730,267.225 390.978,267.500 391.048 M264.060 391.800 C 264.060 392.009,263.867 392.245,263.630 392.323 C 263.394 392.402,263.200 392.167,263.200 391.800 C 263.200 391.433,263.394 391.198,263.630 391.277 C 263.867 391.356,264.060 391.591,264.060 391.800 M272.054 392.015 C 270.678 393.161,264.456 395.031,263.670 394.535 C 262.700 393.924,262.644 393.200,263.567 393.200 C 264.025 393.200,264.400 393.051,264.400 392.869 C 264.400 392.687,264.895 392.604,265.500 392.684 C 266.105 392.765,267.860 392.488,269.400 392.069 C 273.032 391.082,273.177 391.079,272.054 392.015 M266.800 411.200 C 266.800 411.433,268.133 411.600,270.000 411.600 C 271.867 411.600,273.200 411.433,273.200 411.200 C 273.200 410.967,271.867 410.800,270.000 410.800 C 268.133 410.800,266.800 410.967,266.800 411.200 M277.000 411.200 C 276.838 411.462,279.349 411.581,284.276 411.544 C 289.580 411.504,291.151 411.398,289.600 411.183 C 286.275 410.724,277.287 410.736,277.000 411.200 " stroke="none" fill="#e2d9cd" fill-rule="evenodd"></path><path id="path2" d="M247.032 167.548 C 246.914 167.740,246.245 168.011,245.546 168.151 C 244.168 168.426,243.200 169.065,243.200 169.698 C 243.200 169.933,243.431 169.906,243.761 169.632 C 244.763 168.801,246.923 168.353,247.273 168.905 C 247.470 169.215,247.590 168.988,247.594 168.300 C 247.600 167.176,247.415 166.928,247.032 167.548 M221.329 186.100 C 220.884 186.595,220.376 187.270,220.201 187.600 C 219.863 188.237,219.955 188.150,221.576 186.300 C 222.106 185.695,222.449 185.200,222.339 185.200 C 222.229 185.200,221.775 185.605,221.329 186.100 M216.378 191.900 L 215.000 193.400 216.500 192.022 C 217.896 190.738,218.184 190.400,217.878 190.400 C 217.812 190.400,217.137 191.075,216.378 191.900 M198.101 200.200 C 198.105 201.080,198.187 201.393,198.283 200.895 C 198.379 200.398,198.375 199.678,198.275 199.295 C 198.175 198.913,198.096 199.320,198.101 200.200 M204.442 210.255 C 203.594 212.092,201.200 218.077,201.203 218.350 C 201.210 219.079,202.964 215.790,204.023 213.061 C 205.201 210.022,205.513 207.930,204.442 210.255 M200.445 220.100 C 200.048 221.289,200.062 221.334,200.605 220.624 C 200.932 220.196,201.200 219.611,201.200 219.324 C 201.200 218.432,200.897 218.743,200.445 220.100 M198.101 222.200 C 198.105 223.080,198.187 223.393,198.283 222.895 C 198.379 222.398,198.375 221.678,198.275 221.295 C 198.175 220.913,198.096 221.320,198.101 222.200 M111.800 227.200 C 112.198 227.640,112.592 228.000,112.676 228.000 C 112.760 228.000,112.635 227.640,112.400 227.200 C 112.165 226.760,111.770 226.400,111.524 226.400 C 111.278 226.400,111.402 226.760,111.800 227.200 M192.537 253.769 C 192.572 254.429,192.862 255.009,193.200 255.100 C 193.601 255.207,193.648 255.151,193.340 254.930 C 193.088 254.749,192.789 254.150,192.677 253.600 C 192.501 252.739,192.482 252.762,192.537 253.769 M191.632 254.272 C 191.611 254.849,191.305 255.188,190.731 255.272 C 190.254 255.342,189.817 255.630,189.761 255.910 C 189.706 256.190,189.751 256.236,189.863 256.010 C 189.975 255.784,190.417 255.600,190.846 255.600 C 191.685 255.600,192.203 254.745,191.869 253.913 C 191.756 253.631,191.649 253.792,191.632 254.272 M180.167 257.456 C 180.224 257.841,180.479 258.226,180.735 258.312 C 181.386 258.529,181.316 257.794,180.632 257.227 C 180.176 256.848,180.084 256.893,180.167 257.456 M205.449 259.415 C 205.312 259.773,205.221 260.546,205.246 261.133 C 205.280 261.932,205.370 261.798,205.604 260.600 C 205.935 258.900,205.862 258.340,205.449 259.415 M190.294 265.967 C 189.864 266.518,189.886 266.533,190.461 266.083 C 191.001 265.661,191.160 265.661,191.330 266.083 C 191.486 266.473,191.545 266.460,191.568 266.030 C 191.591 265.625,191.917 265.740,192.700 266.430 L 193.800 267.400 192.893 266.367 C 191.855 265.185,191.005 265.054,190.294 265.967 M191.899 267.658 C 192.099 268.420,192.003 268.488,191.062 268.251 C 189.857 267.949,189.670 268.435,190.677 269.251 C 191.049 269.553,191.231 269.595,191.081 269.345 C 190.924 269.083,191.145 268.803,191.604 268.683 C 192.418 268.470,192.690 267.426,192.037 267.023 C 191.838 266.900,191.776 267.186,191.899 267.658 M211.600 267.355 C 211.600 267.440,212.130 267.587,212.779 267.682 C 213.427 267.777,213.867 267.708,213.755 267.528 C 213.557 267.207,211.600 267.050,211.600 267.355 M180.552 270.581 C 180.279 271.292,180.679 272.011,181.324 271.968 C 181.667 271.946,181.661 271.881,181.300 271.735 C 181.025 271.624,180.800 271.268,180.800 270.943 C 180.800 270.599,180.992 270.472,181.262 270.638 C 181.548 270.815,181.615 270.748,181.438 270.462 C 181.059 269.848,180.821 269.880,180.552 270.581 M174.000 271.545 C 174.000 271.734,174.450 271.803,175.000 271.698 C 175.550 271.593,176.000 271.438,176.000 271.353 C 176.000 271.269,175.550 271.200,175.000 271.200 C 174.450 271.200,174.000 271.355,174.000 271.545 M206.934 273.569 C 206.999 274.518,208.000 275.308,208.000 274.410 C 208.000 274.158,207.833 274.056,207.629 274.182 C 207.424 274.309,207.170 274.004,207.063 273.506 C 206.881 272.657,206.873 272.661,206.934 273.569 M215.212 274.400 C 215.212 275.090,215.880 276.270,216.111 275.988 C 216.196 275.885,216.029 275.350,215.739 274.800 C 215.448 274.249,215.212 274.069,215.212 274.400 M207.200 275.560 C 207.200 275.885,206.892 275.962,206.300 275.786 C 205.417 275.522,205.415 275.529,206.200 276.127 C 206.993 276.732,208.117 275.983,207.437 275.303 C 207.306 275.173,207.200 275.289,207.200 275.560 M197.404 280.794 C 197.270 281.010,196.584 281.354,195.880 281.558 C 194.955 281.825,194.837 281.938,195.456 281.964 C 195.926 281.984,196.736 281.646,197.256 281.213 C 197.775 280.781,198.076 280.421,197.924 280.413 C 197.772 280.406,197.538 280.577,197.404 280.794 M205.600 287.151 C 205.600 287.344,205.870 287.726,206.200 288.000 C 206.851 288.541,206.933 288.411,206.557 287.433 C 206.300 286.763,205.600 286.557,205.600 287.151 M192.458 288.231 C 191.894 289.471,191.868 290.400,192.400 290.400 C 192.620 290.400,192.800 289.986,192.800 289.480 C 192.800 288.974,192.996 288.364,193.235 288.125 C 193.497 287.863,193.520 287.598,193.293 287.458 C 193.086 287.330,192.711 287.678,192.458 288.231 M231.199 289.751 C 231.749 290.072,232.274 290.259,232.366 290.167 C 232.614 289.919,232.314 289.730,231.200 289.433 L 230.200 289.167 231.199 289.751 M248.800 295.600 C 249.350 295.776,250.250 295.917,250.800 295.913 C 251.698 295.906,251.678 295.874,250.600 295.600 C 248.908 295.169,247.456 295.169,248.800 295.600 M255.300 296.676 C 255.685 296.776,256.315 296.776,256.700 296.676 C 257.085 296.575,256.770 296.493,256.000 296.493 C 255.230 296.493,254.915 296.575,255.300 296.676 M270.000 298.000 C 270.000 298.469,270.307 298.469,271.400 298.000 C 272.109 297.695,272.075 297.653,271.100 297.628 C 270.495 297.613,270.000 297.780,270.000 298.000 M265.855 299.800 C 265.729 300.130,265.169 300.400,264.613 300.400 C 263.283 300.400,263.284 301.446,264.614 301.701 C 265.171 301.807,265.542 301.809,265.438 301.705 C 265.334 301.600,265.597 301.140,266.024 300.682 C 266.451 300.224,266.800 299.703,266.800 299.525 C 266.800 298.966,266.097 299.171,265.855 299.800 M265.200 303.576 C 265.200 304.223,265.342 304.841,265.516 304.948 C 265.690 305.056,265.761 304.527,265.673 303.772 C 265.476 302.091,265.200 301.977,265.200 303.576 M192.832 313.539 C 192.179 314.760,192.314 315.100,193.041 314.063 C 193.393 313.560,193.588 313.054,193.473 312.940 C 193.359 312.825,193.070 313.095,192.832 313.539 M280.600 315.200 C 281.431 315.860,282.220 316.393,282.355 316.384 C 282.739 316.358,279.875 314.000,279.460 314.000 C 279.257 314.000,279.769 314.540,280.600 315.200 M284.754 318.736 C 285.750 320.134,286.693 320.937,287.475 321.052 C 287.959 321.123,287.943 321.000,287.387 320.386 C 287.012 319.971,286.501 319.670,286.252 319.716 C 286.004 319.762,285.849 319.562,285.910 319.270 C 285.970 318.979,285.848 318.847,285.639 318.976 C 285.429 319.106,285.143 318.849,285.002 318.406 C 284.861 317.963,284.566 317.600,284.346 317.600 C 284.126 317.600,284.309 318.111,284.754 318.736 M289.733 323.816 C 289.733 324.135,290.071 324.702,290.484 325.076 C 291.188 325.713,291.218 325.713,290.974 325.078 C 290.831 324.705,290.543 324.400,290.334 324.400 C 290.124 324.400,290.056 324.232,290.183 324.028 C 290.309 323.823,290.260 323.561,290.073 323.445 C 289.886 323.330,289.733 323.497,289.733 323.816 M190.537 335.400 C 190.539 337.160,190.609 337.830,190.693 336.889 C 190.778 335.949,190.777 334.509,190.691 333.689 C 190.605 332.870,190.536 333.640,190.537 335.400 M189.724 346.600 C 189.726 347.920,189.801 348.412,189.890 347.693 C 189.979 346.974,189.977 345.894,189.886 345.293 C 189.795 344.692,189.722 345.280,189.724 346.600 M169.775 348.500 L 168.600 349.800 169.900 348.625 C 171.112 347.530,171.384 347.200,171.075 347.200 C 171.006 347.200,170.421 347.785,169.775 348.500 M190.093 353.200 C 190.093 353.970,190.175 354.285,190.276 353.900 C 190.376 353.515,190.376 352.885,190.276 352.500 C 190.175 352.115,190.093 352.430,190.093 353.200 M126.806 368.189 L 126.800 369.378 127.441 368.463 C 127.793 367.960,127.973 367.440,127.841 367.307 C 127.708 367.175,127.597 367.322,127.594 367.633 C 127.589 368.100,127.519 368.094,127.200 367.600 C 126.902 367.138,126.811 367.274,126.806 368.189 M300.195 375.121 C 298.652 375.935,297.242 376.630,297.062 376.667 C 296.881 376.703,296.613 376.867,296.467 377.031 C 296.320 377.194,296.425 377.199,296.700 377.041 C 296.975 376.882,297.200 376.939,297.200 377.166 C 297.200 377.438,297.530 377.455,298.159 377.216 C 298.686 377.015,299.226 376.960,299.359 377.092 C 299.491 377.225,299.600 377.078,299.600 376.767 C 299.600 376.366,300.138 376.189,301.439 376.161 C 303.145 376.124,304.432 375.334,303.639 374.811 C 303.463 374.695,303.248 374.385,303.160 374.121 C 303.054 373.803,302.057 374.139,300.195 375.121 " stroke="none" fill="#b1bc7e" fill-rule="evenodd"></path><path id="path3" d="M251.200 163.553 C 250.010 163.763,249.780 163.980,249.665 165.000 C 249.590 165.660,249.320 166.455,249.065 166.767 C 248.674 167.245,248.815 167.292,249.950 167.067 C 250.693 166.920,251.529 166.800,251.810 166.800 C 252.126 166.800,252.374 166.117,252.463 165.000 C 252.541 164.010,252.604 163.224,252.603 163.253 C 252.601 163.282,251.970 163.417,251.200 163.553 M245.800 167.546 C 242.784 168.795,242.371 169.145,242.640 170.216 C 242.791 170.818,242.715 171.200,242.443 171.200 C 242.200 171.200,242.000 171.377,242.000 171.594 C 242.000 171.810,242.634 171.685,243.410 171.315 C 244.639 170.729,244.729 170.594,244.110 170.262 C 243.058 169.699,243.045 169.669,243.571 169.035 C 243.837 168.714,244.628 168.329,245.328 168.180 C 246.027 168.030,246.855 167.703,247.166 167.454 C 247.640 167.074,247.696 167.230,247.507 168.407 L 247.281 169.813 248.940 169.648 C 249.853 169.557,250.374 169.404,250.098 169.307 C 249.821 169.211,249.697 168.967,249.821 168.766 C 249.945 168.565,249.566 168.400,248.977 168.400 C 248.104 168.400,247.945 168.253,248.116 167.600 C 248.364 166.653,247.977 166.644,245.800 167.546 M251.361 167.506 C 250.837 167.856,250.772 169.265,251.293 168.942 C 251.491 168.820,251.553 168.619,251.430 168.497 C 251.307 168.374,251.407 168.032,251.652 167.737 C 252.145 167.144,252.034 167.056,251.361 167.506 M239.401 171.347 C 238.961 171.670,238.738 172.071,238.904 172.238 C 239.071 172.404,238.820 172.953,238.346 173.458 C 237.528 174.329,237.588 174.320,239.536 173.287 C 240.665 172.689,241.332 172.144,241.019 172.075 C 240.705 172.007,240.393 171.683,240.325 171.355 C 240.215 170.831,240.105 170.830,239.401 171.347 M196.212 177.900 C 196.379 179.165,196.754 182.000,197.044 184.200 C 197.520 187.814,197.553 187.911,197.383 185.200 C 196.932 177.984,196.662 175.600,196.298 175.600 C 196.054 175.600,196.022 176.466,196.212 177.900 M228.002 180.100 L 226.670 181.800 228.235 180.401 C 229.096 179.632,229.971 178.867,230.180 178.701 C 230.393 178.532,230.291 178.400,229.947 178.400 C 229.610 178.400,228.734 179.165,228.002 180.100 M224.778 183.100 L 223.400 184.600 224.900 183.222 C 226.296 181.938,226.584 181.600,226.278 181.600 C 226.212 181.600,225.537 182.275,224.778 183.100 M221.523 185.100 C 220.340 186.477,220.292 186.982,221.435 186.006 C 222.076 185.459,222.771 184.874,222.980 184.706 C 223.195 184.533,223.092 184.400,222.742 184.400 C 222.402 184.400,221.853 184.715,221.523 185.100 M216.989 190.700 C 215.300 192.625,213.564 194.740,213.132 195.400 C 212.591 196.226,212.760 196.115,213.673 195.045 C 214.848 193.667,216.120 192.212,219.570 188.300 C 220.103 187.695,220.432 187.200,220.300 187.200 C 220.168 187.200,218.678 188.775,216.989 190.700 M197.709 190.800 C 197.709 191.790,197.787 192.195,197.882 191.700 C 197.978 191.205,197.978 190.395,197.882 189.900 C 197.787 189.405,197.709 189.810,197.709 190.800 M198.304 202.600 C 198.391 206.340,198.524 209.580,198.599 209.800 C 198.883 210.624,198.741 198.934,198.450 197.400 C 198.282 196.520,198.217 198.860,198.304 202.600 M209.071 200.500 C 208.034 201.889,206.845 204.067,207.487 203.400 C 208.069 202.796,210.397 199.200,210.207 199.200 C 210.115 199.200,209.604 199.785,209.071 200.500 M203.506 211.283 C 202.519 213.548,201.493 216.075,201.225 216.900 C 200.670 218.609,200.328 218.728,199.200 217.600 L 198.400 216.800 198.400 219.140 C 198.400 220.426,198.304 222.901,198.188 224.640 L 197.975 227.800 198.766 224.914 C 199.201 223.327,199.760 221.648,200.009 221.183 C 200.258 220.718,200.360 220.072,200.235 219.748 C 200.111 219.424,200.164 219.254,200.353 219.371 C 200.543 219.488,201.012 218.732,201.397 217.692 C 201.782 216.651,202.897 213.937,203.875 211.660 C 204.854 209.384,205.574 207.441,205.477 207.344 C 205.380 207.247,204.493 209.019,203.506 211.283 M107.800 225.600 C 107.402 226.040,106.699 226.421,106.238 226.446 C 105.432 226.491,105.430 226.500,106.200 226.689 C 106.640 226.798,107.193 227.042,107.430 227.234 C 107.682 227.437,108.053 227.387,108.330 227.110 C 108.690 226.750,108.800 226.810,108.800 227.367 C 108.800 227.892,108.582 228.036,108.015 227.888 C 107.583 227.775,107.017 227.938,106.758 228.251 C 106.133 229.004,106.618 229.449,107.377 228.819 C 107.705 228.547,108.203 228.401,108.483 228.494 C 109.505 228.835,109.962 227.069,109.045 226.327 C 108.587 225.957,108.340 225.527,108.496 225.370 C 108.653 225.214,109.100 225.337,109.490 225.643 C 110.136 226.149,110.150 226.137,109.651 225.500 C 108.950 224.606,108.687 224.620,107.800 225.600 M112.000 227.800 C 112.746 228.570,113.447 229.200,113.557 229.200 C 113.667 229.200,113.146 228.570,112.400 227.800 C 111.654 227.030,110.953 226.400,110.843 226.400 C 110.733 226.400,111.254 227.030,112.000 227.800 M108.868 230.639 C 109.220 230.991,109.978 231.306,110.553 231.339 C 111.129 231.373,111.600 231.554,111.600 231.743 C 111.600 231.931,111.879 231.978,112.221 231.847 C 112.562 231.716,112.750 231.758,112.637 231.940 C 112.525 232.121,113.368 232.486,114.512 232.750 C 116.022 233.099,116.631 233.108,116.738 232.786 C 116.825 232.524,117.280 232.712,117.843 233.240 C 118.369 233.735,118.800 234.040,118.800 233.918 C 118.800 233.797,117.765 232.831,116.500 231.773 C 115.049 230.559,114.634 230.320,115.375 231.124 C 116.021 231.826,116.471 232.397,116.375 232.393 C 116.279 232.389,114.499 231.849,112.420 231.193 C 108.014 229.803,108.034 229.806,108.868 230.639 M119.800 234.806 C 120.436 235.531,120.485 235.757,120.039 235.912 C 119.728 236.020,120.234 236.363,121.178 236.682 C 123.519 237.473,123.499 237.224,121.080 235.434 C 119.902 234.563,119.347 234.291,119.800 234.806 M208.236 238.298 C 207.546 238.988,208.051 239.940,209.050 239.833 C 209.864 239.747,211.286 238.503,210.720 238.372 C 209.773 238.155,208.419 238.114,208.236 238.298 M174.680 248.653 C 174.194 249.140,174.375 249.468,175.100 249.415 C 175.485 249.386,175.855 249.191,175.921 248.982 C 176.067 248.521,175.075 248.258,174.680 248.653 M190.303 249.699 C 190.429 250.195,190.774 250.977,191.070 251.437 C 192.049 252.956,191.948 255.379,190.900 255.528 C 189.068 255.788,190.073 256.277,192.100 256.111 C 194.838 255.888,195.200 255.754,195.200 254.970 C 195.200 254.503,194.999 254.397,194.500 254.602 C 192.977 255.227,192.621 255.025,192.384 253.400 C 192.148 251.778,191.108 249.437,190.440 249.025 C 190.238 248.900,190.177 249.201,190.303 249.699 M213.181 251.016 C 213.081 251.244,212.100 251.809,211.000 252.270 C 209.680 252.824,208.671 253.600,208.033 254.554 C 207.393 255.511,206.757 256.000,206.152 256.000 C 202.698 256.000,201.279 258.775,202.857 262.445 L 203.715 264.438 202.257 265.773 C 201.456 266.507,200.800 267.399,200.800 267.754 C 200.800 268.707,201.029 268.556,201.947 267.000 C 202.948 265.303,203.790 265.250,205.469 266.778 C 207.618 268.735,208.010 269.588,207.590 271.400 C 207.103 273.502,207.106 274.505,207.600 274.200 C 207.820 274.064,208.000 274.143,208.000 274.376 C 208.000 274.609,207.859 274.800,207.686 274.800 C 207.513 274.800,207.371 275.138,207.371 275.550 C 207.371 276.183,207.601 276.270,208.834 276.105 C 210.491 275.882,210.688 276.080,211.206 278.494 L 211.573 280.200 211.435 278.200 C 211.359 277.100,211.158 275.865,210.988 275.455 C 210.682 274.714,212.248 274.710,214.867 275.446 C 215.912 275.739,215.311 274.064,213.738 272.299 C 212.632 271.058,212.400 270.937,212.400 271.599 C 212.400 272.757,211.661 272.584,211.353 271.353 C 211.137 270.494,211.315 270.130,212.345 269.324 C 214.048 267.991,213.925 267.600,211.800 267.600 C 210.467 267.600,210.000 267.444,210.000 267.000 C 210.000 266.670,209.754 266.400,209.454 266.400 C 207.678 266.400,204.946 262.355,205.363 260.343 C 205.493 259.714,205.710 258.660,205.845 258.000 C 206.014 257.177,206.328 256.800,206.845 256.800 C 207.260 256.800,207.600 256.650,207.600 256.467 C 207.600 255.607,210.679 252.843,211.423 253.036 C 212.483 253.312,213.725 252.329,213.525 251.374 C 213.435 250.948,213.281 250.787,213.181 251.016 M198.800 255.376 C 198.800 255.693,198.980 256.064,199.200 256.200 C 199.420 256.336,199.600 256.077,199.600 255.624 C 199.600 255.171,199.420 254.800,199.200 254.800 C 198.980 254.800,198.800 255.059,198.800 255.376 M185.511 256.400 C 185.246 258.118,185.369 258.288,186.246 257.411 C 186.668 256.989,186.775 256.627,186.525 256.464 C 186.302 256.319,186.031 255.930,185.923 255.600 C 185.815 255.270,185.629 255.630,185.511 256.400 M188.800 258.271 C 188.800 258.948,189.070 259.726,189.400 260.000 C 189.919 260.431,189.966 260.316,189.747 259.149 C 189.400 257.298,188.800 256.742,188.800 258.271 M195.600 259.200 C 195.344 259.678,195.225 260.159,195.335 260.269 C 195.445 260.379,195.744 260.078,196.000 259.600 C 196.256 259.122,196.375 258.641,196.265 258.531 C 196.155 258.421,195.856 258.722,195.600 259.200 M196.961 260.650 C 195.654 263.606,195.978 263.812,197.552 261.024 C 198.932 258.578,198.988 258.400,198.378 258.400 C 198.146 258.400,197.508 259.412,196.961 260.650 M170.133 260.971 C 170.385 261.505,170.655 261.878,170.732 261.801 C 170.981 261.553,170.358 260.000,170.011 260.000 C 169.826 260.000,169.881 260.437,170.133 260.971 M184.028 264.100 C 184.013 264.705,184.180 265.200,184.400 265.200 C 184.869 265.200,184.869 264.893,184.400 263.800 C 184.095 263.091,184.053 263.125,184.028 264.100 M191.076 263.862 C 190.868 264.447,191.038 265.200,191.608 266.214 C 192.575 267.935,192.387 268.995,191.172 268.677 C 190.521 268.507,190.446 268.573,190.802 269.002 C 191.556 269.910,196.000 267.661,196.000 266.371 C 196.000 266.021,194.391 266.368,193.765 266.853 C 193.135 267.341,191.692 265.633,191.523 264.200 C 191.395 263.115,191.353 263.082,191.076 263.862 M194.400 264.000 C 194.635 264.440,195.002 264.800,195.214 264.800 C 195.759 264.800,195.693 264.436,195.029 263.771 C 194.211 262.954,193.900 263.067,194.400 264.000 M180.092 266.475 C 180.339 267.217,181.200 267.340,181.200 266.633 C 181.200 266.285,180.915 266.000,180.567 266.000 C 180.218 266.000,180.005 266.214,180.092 266.475 M197.549 268.665 C 197.217 269.067,197.000 270.290,197.000 271.765 C 197.000 274.181,196.991 274.201,195.800 274.303 C 192.852 274.555,191.471 275.195,192.181 275.979 C 193.286 277.200,192.903 282.495,191.688 282.783 C 191.160 282.909,190.370 283.716,189.811 284.700 C 188.738 286.591,188.881 286.839,190.285 285.520 C 191.187 284.672,191.264 284.665,192.373 285.320 C 193.866 286.203,194.000 286.181,194.000 285.062 C 194.000 284.208,195.078 282.800,195.731 282.800 C 196.201 282.800,196.021 283.636,195.423 284.234 C 194.955 284.702,194.933 285.057,195.307 286.106 L 195.768 287.400 196.010 285.967 C 196.143 285.178,196.646 283.897,197.126 283.119 C 198.324 281.182,198.239 280.700,196.842 281.502 C 194.640 282.766,193.600 281.789,193.600 278.458 C 193.600 275.343,194.113 274.541,195.829 274.971 C 197.067 275.282,198.400 274.928,198.400 274.288 C 198.400 274.036,198.874 273.452,199.453 272.990 C 200.459 272.188,200.483 272.080,199.997 270.575 C 199.716 269.709,199.428 268.775,199.356 268.500 C 199.171 267.792,198.197 267.880,197.549 268.665 M175.675 269.625 C 175.771 269.914,176.086 270.229,176.375 270.325 C 176.675 270.425,176.825 270.275,176.725 269.975 C 176.629 269.686,176.314 269.371,176.025 269.275 C 175.725 269.175,175.575 269.325,175.675 269.625 M189.206 270.787 C 188.935 271.439,188.389 272.076,187.993 272.202 C 187.596 272.328,186.969 272.893,186.599 273.458 C 186.060 274.280,185.702 274.440,184.810 274.262 C 183.291 273.958,183.027 274.364,184.042 275.444 C 184.508 275.941,185.008 276.925,185.153 277.631 C 185.487 279.263,187.200 280.124,187.200 278.659 C 187.200 278.156,187.836 277.001,188.613 276.093 C 189.758 274.756,189.974 274.238,189.755 273.362 C 189.563 272.598,189.618 272.364,189.942 272.564 C 190.257 272.759,190.400 272.342,190.400 271.224 C 190.400 269.310,189.894 269.125,189.206 270.787 M174.536 272.695 C 174.484 273.598,174.554 273.684,174.936 273.187 C 175.191 272.856,175.850 272.375,176.400 272.119 C 177.383 271.662,177.376 271.654,176.000 271.627 C 174.750 271.603,174.593 271.717,174.536 272.695 M210.800 273.400 C 211.213 273.897,211.170 273.999,210.549 273.995 C 209.356 273.986,208.000 273.538,208.000 273.153 C 208.000 272.560,210.269 272.760,210.800 273.400 M199.068 275.100 C 198.306 276.372,199.066 279.413,200.365 280.288 C 201.720 281.201,202.577 281.217,201.673 280.313 C 201.003 279.643,201.076 278.000,201.776 278.000 C 202.093 278.000,202.464 278.180,202.600 278.400 C 202.997 279.043,203.601 278.861,203.594 278.100 C 203.582 276.741,202.876 276.200,201.114 276.200 C 199.704 276.200,199.421 276.076,199.518 275.500 C 199.638 274.784,199.389 274.563,199.068 275.100 M197.853 284.206 C 197.397 285.394,197.587 285.784,198.283 285.089 C 198.770 284.602,198.842 284.282,198.536 283.976 C 198.230 283.670,198.034 283.736,197.853 284.206 M205.200 283.924 C 205.200 284.139,205.485 284.424,205.833 284.557 C 206.223 284.707,206.406 284.618,206.308 284.325 C 206.109 283.727,205.200 283.398,205.200 283.924 M170.800 289.000 C 170.522 289.335,170.479 289.600,170.702 289.600 C 170.922 289.600,171.326 289.330,171.600 289.000 C 171.878 288.665,171.921 288.400,171.698 288.400 C 171.478 288.400,171.074 288.670,170.800 289.000 M235.000 291.442 C 236.100 292.039,242.400 295.083,249.000 298.206 C 255.600 301.329,261.935 304.440,263.079 305.119 C 264.222 305.798,265.071 306.128,264.965 305.852 C 264.859 305.576,264.137 305.121,263.362 304.841 C 260.351 303.752,260.803 298.422,263.857 298.998 C 264.266 299.076,264.870 299.158,265.200 299.182 C 265.665 299.216,265.626 299.357,265.024 299.813 C 264.334 300.335,264.324 300.400,264.936 300.400 C 265.315 300.400,265.730 300.127,265.858 299.793 C 265.986 299.459,266.296 299.210,266.546 299.240 C 269.077 299.544,270.788 299.170,270.317 298.416 C 270.010 297.924,269.728 297.792,269.562 298.062 C 269.375 298.364,268.181 298.376,265.548 298.103 L 261.800 297.715 265.567 297.657 C 270.533 297.582,270.081 297.354,264.400 297.069 C 261.670 296.932,260.207 296.977,260.800 297.179 L 261.800 297.520 260.695 297.560 C 260.087 297.582,259.277 297.437,258.895 297.239 C 258.513 297.040,256.382 296.674,254.160 296.426 C 249.388 295.893,244.481 294.636,238.757 292.481 C 232.847 290.256,232.786 290.239,235.000 291.442 M272.300 299.482 C 272.795 299.578,273.605 299.578,274.100 299.482 C 274.595 299.387,274.190 299.309,273.200 299.309 C 272.210 299.309,271.805 299.387,272.300 299.482 M263.246 300.937 C 263.219 301.372,263.542 301.764,264.032 301.893 C 264.624 302.047,264.805 302.337,264.659 302.895 C 264.380 303.963,265.183 305.607,265.964 305.568 C 266.314 305.551,266.394 305.452,266.142 305.349 C 265.891 305.246,265.760 304.765,265.851 304.281 C 266.007 303.449,265.995 303.445,265.636 304.200 C 265.306 304.895,265.253 304.832,265.228 303.724 C 265.213 303.022,265.383 302.334,265.607 302.196 C 266.304 301.765,265.666 301.298,264.646 301.493 C 263.940 301.628,263.622 301.477,263.483 300.940 C 263.299 300.223,263.291 300.223,263.246 300.937 M265.600 306.579 C 265.600 306.689,266.140 307.059,266.800 307.400 C 267.460 307.741,268.000 307.931,268.000 307.821 C 268.000 307.711,267.460 307.341,266.800 307.000 C 266.140 306.659,265.600 306.469,265.600 306.579 M273.233 310.135 C 274.755 311.369,277.257 312.776,276.601 312.029 C 275.845 311.167,273.976 310.000,273.353 310.000 C 273.196 310.000,273.142 310.061,273.233 310.135 M192.009 316.490 C 191.511 317.871,190.900 319.254,190.652 319.565 C 190.270 320.044,190.339 320.057,191.100 319.651 C 191.909 319.221,192.003 319.265,192.032 320.086 C 192.073 321.281,192.209 320.800,192.822 317.298 C 193.469 313.598,193.162 313.294,192.009 316.490 M280.865 315.867 C 282.287 317.334,282.005 317.720,280.526 316.330 C 280.017 315.852,279.600 315.573,279.600 315.711 C 279.600 315.848,281.371 317.395,283.535 319.147 C 285.699 320.900,288.159 323.061,289.001 323.950 C 289.843 324.838,290.667 325.482,290.832 325.380 C 290.997 325.278,291.224 325.381,291.336 325.608 C 291.448 325.834,291.493 325.791,291.437 325.510 C 291.380 325.230,291.166 325.000,290.961 325.000 C 290.755 325.000,289.285 323.629,287.694 321.954 C 284.954 319.069,284.178 317.995,285.300 318.641 C 285.590 318.808,285.660 318.776,285.467 318.564 C 285.283 318.364,284.923 318.192,284.667 318.182 C 284.410 318.172,284.245 317.947,284.300 317.682 C 284.355 317.417,284.124 317.200,283.787 317.200 C 283.451 317.200,283.072 316.931,282.946 316.602 C 282.819 316.274,282.584 316.086,282.423 316.186 C 282.017 316.436,280.343 315.216,280.576 314.839 C 280.680 314.671,280.496 314.533,280.169 314.533 C 279.779 314.533,280.021 314.997,280.865 315.867 M265.406 317.665 C 265.575 318.109,265.416 318.393,264.929 318.519 C 264.304 318.680,264.296 318.714,264.876 318.754 C 265.770 318.815,266.212 318.051,265.621 317.465 C 265.264 317.111,265.213 317.158,265.406 317.665 M283.208 317.810 C 283.981 318.741,283.429 318.917,282.602 318.002 C 282.203 317.561,282.062 317.200,282.289 317.200 C 282.516 317.200,282.930 317.474,283.208 317.810 M190.901 328.200 C 190.905 329.080,190.987 329.393,191.083 328.895 C 191.179 328.398,191.175 327.678,191.075 327.295 C 190.975 326.913,190.896 327.320,190.901 328.200 M184.934 330.733 C 184.572 331.314,184.594 331.467,185.038 331.467 C 185.347 331.467,185.600 331.137,185.600 330.733 C 185.600 330.330,185.553 330.000,185.496 330.000 C 185.439 330.000,185.186 330.330,184.934 330.733 M313.589 339.540 C 313.764 340.496,314.198 341.569,314.553 341.925 C 315.684 343.056,315.388 340.264,314.236 338.923 L 313.271 337.802 313.589 339.540 M189.709 342.800 C 189.709 343.790,189.787 344.195,189.882 343.700 C 189.978 343.205,189.978 342.395,189.882 341.900 C 189.787 341.405,189.709 341.810,189.709 342.800 M172.791 345.900 L 169.400 349.400 172.900 346.009 C 176.151 342.859,176.582 342.400,176.291 342.400 C 176.231 342.400,174.656 343.975,172.791 345.900 M189.714 350.600 C 189.717 351.700,189.795 352.103,189.887 351.495 C 189.979 350.886,189.977 349.986,189.882 349.495 C 189.787 349.003,189.711 349.500,189.714 350.600 M190.101 355.800 C 190.105 356.680,190.187 356.993,190.283 356.495 C 190.379 355.998,190.375 355.278,190.275 354.895 C 190.175 354.513,190.096 354.920,190.101 355.800 M190.473 358.600 C 190.458 359.260,190.595 360.520,190.777 361.400 C 191.213 363.506,191.250 361.614,190.820 359.200 C 190.580 357.850,190.493 357.700,190.473 358.600 M127.200 365.976 C 127.200 366.403,127.335 366.836,127.500 366.938 C 127.665 367.040,127.800 366.691,127.800 366.162 C 127.800 365.633,127.665 365.200,127.500 365.200 C 127.335 365.200,127.200 365.549,127.200 365.976 M128.162 366.062 C 127.993 366.335,128.051 366.416,128.304 366.259 C 128.539 366.114,128.804 366.212,128.892 366.477 C 128.994 366.782,129.149 366.709,129.314 366.280 C 129.613 365.500,128.625 365.313,128.162 366.062 M133.200 366.395 C 132.770 366.669,133.023 366.745,134.093 366.662 C 134.915 366.599,135.710 366.424,135.860 366.273 C 136.281 365.852,133.879 365.962,133.200 366.395 M128.428 367.919 C 128.413 368.425,128.071 369.520,127.669 370.353 C 127.022 371.691,127.010 371.868,127.569 371.879 C 129.068 371.908,129.686 369.862,128.800 367.800 C 128.475 367.043,128.455 367.049,128.428 367.919 M192.448 369.200 C 192.442 369.530,192.683 370.340,192.986 371.000 C 193.693 372.545,193.703 371.826,193.000 370.000 C 192.703 369.230,192.455 368.870,192.448 369.200 M300.600 374.438 C 296.432 376.676,296.299 377.065,300.410 374.995 C 302.548 373.918,303.200 373.731,303.200 374.195 C 303.200 374.528,303.391 374.800,303.624 374.800 C 303.857 374.800,303.948 374.639,303.826 374.442 C 303.704 374.245,303.874 373.981,304.202 373.854 C 304.799 373.626,305.069 372.353,304.500 372.453 C 304.335 372.482,302.580 373.375,300.600 374.438 M320.754 375.076 C 320.561 376.452,320.515 377.710,320.674 377.298 C 320.781 377.021,321.033 376.897,321.234 377.021 C 321.435 377.145,321.600 376.797,321.600 376.247 C 321.600 375.337,320.862 374.315,320.754 375.076 M303.600 375.533 C 303.600 375.790,303.195 376.021,302.700 376.046 C 301.959 376.085,301.931 376.127,302.542 376.284 C 303.340 376.489,304.325 375.791,303.873 375.340 C 303.723 375.190,303.600 375.277,303.600 375.533 M192.200 376.939 C 191.551 377.313,191.447 377.664,191.647 378.800 C 191.801 379.671,191.915 379.858,191.947 379.294 C 191.979 378.748,192.485 378.093,193.222 377.645 C 194.172 377.067,194.021 375.884,193.067 376.439 C 193.030 376.461,192.640 376.686,192.200 376.939 M300.019 376.780 C 299.700 376.982,299.295 377.058,299.119 376.950 C 298.944 376.842,298.800 376.977,298.800 377.252 C 298.800 379.056,297.023 380.395,294.622 380.397 L 292.243 380.400 293.612 378.988 C 294.648 377.918,295.032 377.720,295.190 378.169 C 295.345 378.608,295.524 378.500,295.876 377.753 C 296.285 376.886,296.270 376.810,295.776 377.220 C 295.459 377.483,295.200 377.549,295.200 377.368 C 295.200 377.186,294.480 377.741,293.600 378.600 C 292.720 379.459,292.000 380.306,292.000 380.481 C 292.000 380.909,299.536 380.813,300.800 380.369 C 301.572 380.098,301.434 380.065,300.200 380.228 L 298.600 380.439 299.856 379.652 C 301.436 378.663,301.785 378.105,301.238 377.446 C 301.001 377.160,300.925 376.808,301.070 376.663 C 301.462 376.271,300.688 376.357,300.019 376.780 M339.311 382.000 C 337.173 382.253,337.520 383.087,339.995 383.643 C 342.024 384.099,342.235 383.975,341.531 382.735 C 341.071 381.925,340.773 381.827,339.311 382.000 " stroke="none" fill="#a4b661" fill-rule="evenodd"></path><path id="path4" d="M66.100 124.687 C 65.494 124.905,65.427 126.400,66.024 126.400 C 66.257 126.400,66.336 126.220,66.200 126.000 C 66.064 125.780,66.233 125.600,66.576 125.600 C 66.919 125.600,67.200 125.431,67.200 125.224 C 67.200 124.712,66.705 124.470,66.100 124.687 M108.066 161.550 C 107.632 161.826,107.645 161.932,108.133 162.119 C 108.464 162.246,108.833 162.091,108.954 161.775 C 109.202 161.130,108.864 161.045,108.066 161.550 M124.588 163.220 C 124.207 163.835,124.728 164.232,125.242 163.718 C 125.529 163.431,125.536 163.207,125.262 163.039 C 125.039 162.900,124.735 162.982,124.588 163.220 M197.701 195.800 C 197.705 196.680,197.787 196.993,197.883 196.495 C 197.979 195.998,197.975 195.278,197.875 194.895 C 197.775 194.513,197.696 194.920,197.701 195.800 M198.093 202.800 C 198.093 203.570,198.175 203.885,198.276 203.500 C 198.376 203.115,198.376 202.485,198.276 202.100 C 198.175 201.715,198.093 202.030,198.093 202.800 M207.041 205.267 C 207.155 205.450,207.087 205.600,206.892 205.600 C 206.696 205.600,206.551 206.005,206.568 206.500 C 206.588 207.047,206.392 207.357,206.070 207.290 C 205.779 207.230,205.647 207.352,205.777 207.562 C 205.907 207.773,205.830 208.058,205.607 208.196 C 205.383 208.334,205.200 208.719,205.200 209.052 C 205.200 209.556,205.317 209.540,205.900 208.957 C 206.285 208.572,206.549 208.193,206.486 208.114 C 206.423 208.036,206.658 207.685,207.009 207.334 C 207.359 206.984,207.551 206.450,207.436 206.148 C 207.320 205.847,207.399 205.600,207.613 205.600 C 207.826 205.600,208.000 205.450,208.000 205.267 C 208.000 205.083,207.738 204.933,207.418 204.933 C 207.097 204.933,206.928 205.083,207.041 205.267 M288.044 217.644 C 287.462 219.314,287.741 219.592,288.400 218.000 C 288.679 217.326,288.814 216.681,288.700 216.567 C 288.586 216.453,288.291 216.938,288.044 217.644 M288.248 219.500 C 287.635 221.588,287.544 223.250,288.012 223.814 C 288.777 224.737,288.309 224.837,287.194 223.990 C 286.330 223.334,286.265 223.129,286.700 222.423 C 286.975 221.976,287.200 221.297,287.200 220.914 C 287.200 220.530,286.392 221.598,285.404 223.285 C 283.355 226.784,283.376 227.076,285.756 228.376 C 287.116 229.119,287.454 229.506,287.317 230.162 C 287.157 230.922,287.192 230.938,287.687 230.337 C 288.080 229.861,288.734 229.708,290.017 229.795 C 292.070 229.933,294.286 229.464,295.389 228.658 C 296.297 227.993,294.956 227.091,292.328 226.598 C 290.916 226.333,290.877 226.275,290.601 224.067 C 290.201 220.868,288.702 217.957,288.248 219.500 M204.800 266.525 C 204.800 266.594,205.385 267.179,206.100 267.825 L 207.400 269.000 206.225 267.700 C 205.130 266.488,204.800 266.216,204.800 266.525 M271.300 298.012 C 270.805 298.211,270.400 298.434,270.400 298.507 C 270.400 298.800,273.223 298.287,273.427 297.956 C 273.706 297.505,272.480 297.538,271.300 298.012 M287.200 321.313 C 287.200 321.389,287.740 321.968,288.400 322.600 C 289.060 323.232,289.600 323.570,289.600 323.350 C 289.600 323.130,289.060 322.551,288.400 322.063 C 287.740 321.575,287.200 321.238,287.200 321.313 M349.350 370.600 C 349.351 373.020,349.416 373.958,349.496 372.685 C 349.576 371.412,349.575 369.432,349.494 368.285 C 349.414 367.138,349.349 368.180,349.350 370.600 M339.923 380.869 C 340.376 381.448,340.323 381.562,339.523 381.715 C 338.703 381.871,338.723 381.897,339.700 381.946 C 340.960 382.008,341.115 381.545,340.100 380.749 C 339.473 380.257,339.454 380.269,339.923 380.869 M264.400 390.249 C 264.400 391.221,265.734 392.242,266.801 392.085 C 268.008 391.908,268.429 391.284,267.500 391.048 C 267.225 390.978,266.415 390.730,265.700 390.495 C 264.985 390.261,264.400 390.150,264.400 390.249 M263.200 391.800 C 263.200 392.167,263.394 392.402,263.630 392.323 C 263.867 392.245,264.060 392.009,264.060 391.800 C 264.060 391.591,263.867 391.356,263.630 391.277 C 263.394 391.198,263.200 391.433,263.200 391.800 M268.800 392.250 C 267.590 392.558,266.105 392.749,265.500 392.675 C 264.895 392.600,264.400 392.687,264.400 392.869 C 264.400 393.051,264.040 393.200,263.600 393.200 C 262.652 393.200,262.566 393.708,263.399 394.399 C 264.273 395.125,272.000 392.944,272.000 391.971 C 272.000 391.508,271.556 391.547,268.800 392.250 M274.105 411.487 C 274.714 411.579,275.614 411.577,276.105 411.482 C 276.597 411.387,276.100 411.311,275.000 411.314 C 273.900 411.317,273.497 411.395,274.105 411.487 " stroke="none" fill="#b5b4ae" fill-rule="evenodd"></path></g></svg>