<svg xmlns="http://www.w3.org/2000/svg" xmlns:xlink="http://www.w3.org/1999/xlink" width="483.174" height="274.697" viewBox="0 0 483.174 274.697"><defs><clipPath id="clip-path" transform="translate(-173.817 -181.834)"><rect x="156.631" y="130.464" width="686.836" height="437.812" fill="none"/></clipPath></defs><title>region2</title><g id="Layer_2" data-name="Layer 2"><rect x="1.5" y="1.5" width="480.174" height="271.697" rx="12" fill="#fff" stroke="#1e1109" stroke-miterlimit="10" stroke-width="3"/></g><g id="Layer_8" data-name="Layer 8"><g clip-path="url(#clip-path)"><polygon points="205.559 89.825 206.05 89.825 206.54 89.825 207.522 89.825 208.012 89.825 213.409 89.825 214.39 89.825 215.372 89.825 218.316 90.372 218.806 90.372 219.297 90.372 220.769 90.372 222.241 90.372 223.222 90.372 223.712 90.372 224.694 90.372 225.184 90.372 226.166 90.372 227.147 90.372 227.637 90.372 228.128 90.372 229.109 90.372 230.091 90.372 230.581 90.372 231.072 90.372 231.562 90.372 232.053 90.372 232.544 90.372 233.034 90.372 233.525 90.372 234.016 90.372 234.506 90.372 234.997 90.372 236.959 90.372 237.45 90.372 237.941 90.372 238.922 90.372 239.903 90.372 240.394 90.372 240.884 90.372 241.375 90.372 241.866 90.372 242.356 90.372 243.338 90.372 243.828 90.372 244.319 90.372 245.3 90.372 245.791 90.372 246.281 90.372 246.772 90.372 247.263 90.372 247.753 90.372 248.244 90.372 248.244 90.919 248.244 90.372 248.734 90.372 248.734 90.919 249.225 90.919 249.225 91.466 249.225 92.014 249.716 92.561 249.716 93.108 250.206 93.655 250.206 94.203 250.206 94.75 250.697 95.297 251.188 95.844 251.188 96.392 251.678 96.392 251.678 96.939 252.169 96.939 252.659 96.939 252.659 97.486 253.15 98.034 253.15 98.581 253.15 99.128 253.641 99.675 253.641 100.223 254.131 100.223 254.131 100.77 254.622 100.77 255.113 100.77 255.603 101.317 256.094 101.317 257.075 101.864 257.566 101.864 257.566 102.412 258.056 102.412 258.547 102.412 259.038 102.412 259.038 102.959 258.547 102.959 258.547 103.506 258.547 104.053 259.038 104.053 259.038 104.601 259.038 105.148 259.528 105.148 260.019 105.148 260.019 105.695 260.509 105.695 260.509 106.242 260.509 106.79 260.509 107.337 260.509 108.979 260.509 109.526 260.509 110.073 260.509 111.168 260.509 111.715 260.509 112.262 260.509 112.81 260.509 113.904 260.509 114.451 260.509 114.999 260.509 115.546 260.509 117.188 260.509 117.735 260.509 118.83 260.509 119.377 260.509 119.924 260.509 121.019 260.509 121.566 260.509 122.113 260.509 122.66 260.509 123.208 260.509 124.302 260.509 124.849 260.019 124.849 259.528 125.397 259.038 125.397 258.547 125.397 258.056 125.397 257.566 125.397 256.584 125.397 256.094 125.397 255.603 125.397 254.622 125.397 254.131 125.397 253.15 125.397 252.659 125.397 252.169 125.397 251.678 125.397 251.188 125.397 250.697 125.397 250.206 125.397 249.716 125.397 249.225 125.397 248.244 125.397 246.772 125.397 246.281 125.397 244.809 125.397 244.319 125.397 241.866 125.397 241.375 125.397 240.884 125.397 240.394 125.397 238.922 125.397 237.941 125.397 237.45 125.397 236.469 125.397 234.997 125.397 234.016 125.397 233.525 125.397 233.034 125.397 232.053 125.397 231.562 125.397 231.072 125.397 230.581 125.397 230.091 125.397 229.6 125.397 228.619 125.397 227.637 125.397 227.147 125.397 226.656 125.397 226.166 125.397 225.675 125.397 225.184 125.397 224.694 125.397 224.203 125.397 223.712 125.397 223.222 125.397 222.731 125.397 221.259 125.397 220.769 125.397 219.787 125.397 219.297 125.397 218.316 125.397 217.334 125.397 216.844 125.397 216.353 125.397 215.372 125.397 214.881 125.397 214.39 125.397 213.9 125.397 213.409 125.397 212.919 125.397 212.428 125.397 211.447 125.397 210.956 125.397 209.975 125.397 209.484 125.397 208.503 125.397 208.012 125.397 207.522 125.397 206.05 125.397 205.559 125.397 205.559 124.302 205.559 123.755 205.559 123.208 205.559 122.66 205.559 121.566 205.559 121.019 205.559 118.83 205.559 118.282 205.559 117.735 205.559 117.188 205.559 116.093 205.559 115.546 205.559 114.451 205.559 113.904 205.559 112.81 205.559 112.262 205.559 111.715 205.559 110.621 205.559 110.073 205.559 109.526 205.559 108.432 205.559 107.884 205.559 107.337 205.559 105.695 205.559 104.053 205.559 102.959 205.559 101.317 205.559 100.77 205.559 100.223 205.559 99.675 205.559 99.128 205.559 98.581 205.559 98.034 205.559 97.486 205.559 96.939 205.559 96.392 205.559 95.297 205.559 93.655 205.559 93.108 205.559 92.561 205.559 92.014 205.559 90.372 205.559 89.825" fill="#897044"/><polyline points="205.559 89.825 206.05 89.825 206.54 89.825 207.522 89.825 208.012 89.825 213.409 89.825 214.39 89.825 215.372 89.825 218.316 90.372 218.806 90.372 219.297 90.372 220.769 90.372 222.241 90.372 223.222 90.372 223.712 90.372 224.694 90.372 225.184 90.372 226.166 90.372 227.147 90.372 227.637 90.372 228.128 90.372 229.109 90.372 230.091 90.372 230.581 90.372 231.072 90.372 231.562 90.372 232.053 90.372 232.544 90.372 233.034 90.372 233.525 90.372 234.016 90.372 234.506 90.372 234.997 90.372 236.959 90.372 237.45 90.372 237.941 90.372 238.922 90.372 239.903 90.372 240.394 90.372 240.884 90.372 241.375 90.372 241.866 90.372 242.356 90.372 243.338 90.372 243.828 90.372 244.319 90.372 245.3 90.372 245.791 90.372 246.281 90.372 246.772 90.372 247.263 90.372 247.753 90.372 248.244 90.372 248.244 90.919 248.244 90.372 248.734 90.372 248.734 90.919 249.225 90.919 249.225 91.466 249.225 92.014 249.716 92.561 249.716 93.108 250.206 93.655 250.206 94.203 250.206 94.75 250.697 95.297 251.188 95.844 251.188 96.392 251.678 96.392 251.678 96.939 252.169 96.939 252.659 96.939 252.659 97.486 253.15 98.034 253.15 98.581 253.15 99.128 253.641 99.675 253.641 100.223 254.131 100.223 254.131 100.77 254.622 100.77 255.113 100.77 255.603 101.317 256.094 101.317 257.075 101.864 257.566 101.864 257.566 102.412 258.056 102.412 258.547 102.412 259.038 102.412 259.038 102.959 258.547 102.959 258.547 103.506 258.547 104.053 259.038 104.053 259.038 104.601 259.038 105.148 259.528 105.148 260.019 105.148 260.019 105.695 260.509 105.695 260.509 106.242 260.509 106.79 260.509 107.337 260.509 108.979 260.509 109.526 260.509 110.073 260.509 111.168 260.509 111.715 260.509 112.262 260.509 112.81 260.509 113.904 260.509 114.451 260.509 114.999 260.509 115.546 260.509 117.188 260.509 117.735 260.509 118.83 260.509 119.377 260.509 119.924 260.509 121.019 260.509 121.566 260.509 122.113 260.509 122.66 260.509 123.208 260.509 124.302 260.509 124.849 260.019 124.849 259.528 125.397 259.038 125.397 258.547 125.397 258.056 125.397 257.566 125.397 256.584 125.397 256.094 125.397 255.603 125.397 254.622 125.397 254.131 125.397 253.15 125.397 252.659 125.397 252.169 125.397 251.678 125.397 251.188 125.397 250.697 125.397 250.206 125.397 249.716 125.397 249.225 125.397 248.244 125.397 246.772 125.397 246.281 125.397 244.809 125.397 244.319 125.397 241.866 125.397 241.375 125.397 240.884 125.397 240.394 125.397 238.922 125.397 237.941 125.397 237.45 125.397 236.469 125.397 234.997 125.397 234.016 125.397 233.525 125.397 233.034 125.397 232.053 125.397 231.562 125.397 231.072 125.397 230.581 125.397 230.091 125.397 229.6 125.397 228.619 125.397 227.637 125.397 227.147 125.397 226.656 125.397 226.166 125.397 225.675 125.397 225.184 125.397 224.694 125.397 224.203 125.397 223.712 125.397 223.222 125.397 222.731 125.397 221.259 125.397 220.769 125.397 219.787 125.397 219.297 125.397 218.316 125.397 217.334 125.397 216.844 125.397 216.353 125.397 215.372 125.397 214.881 125.397 214.39 125.397 213.9 125.397 213.409 125.397 212.919 125.397 212.428 125.397 211.447 125.397 210.956 125.397 209.975 125.397 209.484 125.397 208.503 125.397 208.012 125.397 207.522 125.397 206.05 125.397 205.559 125.397 205.559 124.302 205.559 123.755 205.559 123.208 205.559 122.66 205.559 121.566 205.559 121.019 205.559 118.83 205.559 118.282 205.559 117.735 205.559 117.188 205.559 116.093 205.559 115.546 205.559 114.451 205.559 113.904 205.559 112.81 205.559 112.262 205.559 111.715 205.559 110.621 205.559 110.073 205.559 109.526 205.559 108.432 205.559 107.884 205.559 107.337 205.559 105.695 205.559 104.053 205.559 102.959 205.559 101.317 205.559 100.77 205.559 100.223 205.559 99.675 205.559 99.128 205.559 98.581 205.559 98.034 205.559 97.486 205.559 96.939 205.559 96.392 205.559 95.297 205.559 93.655 205.559 93.108 205.559 92.561 205.559 92.014 205.559 90.372 205.559 89.825" fill="none" stroke="#fff" stroke-linecap="round" stroke-linejoin="round" stroke-width="1.08"/><polygon points="247.753 90.372 248.734 90.372 249.716 90.372 250.697 90.372 251.678 90.372 252.659 90.372 253.15 90.372 253.641 90.372 254.131 90.372 255.113 90.372 255.603 90.372 256.094 90.372 256.584 90.372 257.075 90.372 257.566 90.372 258.056 90.372 258.547 90.372 259.038 90.372 260.019 90.372 260.509 90.372 261 90.372 261.491 90.372 262.472 90.372 263.944 90.372 265.416 90.372 265.906 90.372 266.397 90.372 266.888 90.372 267.378 90.372 269.341 90.372 269.831 90.372 270.813 90.372 271.303 90.372 272.285 90.372 273.266 90.372 273.756 90.372 274.247 90.372 274.738 90.372 276.21 90.372 277.191 90.372 277.681 90.372 279.153 90.372 279.644 90.372 280.135 90.372 280.625 90.372 281.606 90.372 282.097 90.372 283.078 90.372 283.569 90.372 284.06 90.372 285.041 90.372 286.022 90.372 286.513 90.372 287.494 90.372 287.985 90.372 288.966 90.372 290.438 90.372 292.4 90.372 292.891 90.372 293.382 90.372 294.363 90.372 294.853 90.372 295.344 90.372 295.835 90.372 297.307 90.372 297.797 90.372 298.778 90.372 299.269 90.372 300.25 90.372 300.741 90.372 301.722 90.372 302.213 90.372 302.703 90.372 303.194 90.372 304.175 90.372 304.666 90.372 305.157 90.372 305.647 90.372 306.628 90.372 307.119 90.372 307.61 90.372 308.591 90.372 309.572 90.372 310.063 90.372 311.044 90.372 312.025 90.372 312.516 90.372 313.007 90.372 313.497 90.372 313.988 90.372 314.479 90.372 314.969 90.372 315.46 90.372 316.441 90.372 316.932 90.372 318.404 90.372 318.404 91.466 318.404 92.561 318.404 93.108 318.404 94.203 318.404 95.297 318.404 96.392 318.404 97.486 318.404 98.034 318.404 98.581 318.404 99.128 318.404 100.223 318.404 100.77 318.404 101.317 318.404 101.864 318.404 102.412 318.404 103.506 318.404 104.053 318.404 104.601 318.404 105.695 318.404 106.242 318.404 106.79 318.404 107.337 318.404 107.884 318.404 108.979 318.404 109.526 318.404 110.073 318.404 110.621 318.404 111.715 318.404 112.81 318.404 113.904 318.404 114.451 318.404 114.999 318.404 116.641 318.404 117.188 318.404 117.735 318.404 118.282 318.404 118.83 318.404 119.924 318.404 121.566 318.404 122.66 318.404 123.208 318.404 123.755 318.404 125.397 319.385 125.397 319.385 125.944 319.385 126.491 319.385 127.039 319.385 127.586 319.385 129.228 319.385 130.322 319.385 130.869 319.385 131.417 319.385 132.511 319.385 133.058 319.385 134.153 319.385 134.7 319.385 135.248 319.385 136.342 319.385 137.984 319.385 138.531 319.385 139.078 319.385 141.267 319.385 142.362 318.404 141.815 317.913 141.815 317.422 141.815 316.932 141.815 316.441 141.815 315.95 142.362 315.46 142.362 314.969 142.362 314.479 142.362 313.988 142.909 313.497 142.909 313.007 142.909 312.516 142.362 312.025 142.362 311.535 142.362 310.553 142.362 310.553 141.815 310.063 141.815 309.082 141.267 308.591 141.267 308.1 141.267 307.61 141.267 307.119 140.72 306.628 140.72 306.138 140.72 306.138 140.173 305.647 140.173 304.666 138.531 304.666 137.984 304.175 137.984 303.685 137.984 302.703 137.984 302.213 137.984 301.722 137.984 301.232 137.984 300.25 137.984 299.76 137.437 299.269 137.437 298.778 136.889 298.288 136.889 297.797 136.889 297.307 135.795 296.816 135.248 296.325 134.7 296.325 134.153 295.835 134.153 295.835 133.606 295.835 133.058 295.344 132.511 294.363 132.511 292.891 132.511 292.4 132.511 290.928 132.511 288.966 132.511 287.985 132.511 287.494 132.511 286.022 132.511 286.022 129.228 286.022 126.491 286.022 125.944 286.022 124.849 285.531 124.849 285.041 124.302 284.55 123.755 284.06 123.208 283.569 122.66 283.078 122.113 282.588 122.113 282.097 121.566 282.097 121.019 281.606 121.019 281.116 121.019 281.116 120.471 281.116 119.924 281.606 119.924 281.606 119.377 281.116 119.377 280.625 119.377 280.625 118.83 280.135 118.83 280.135 118.282 280.135 117.735 279.644 117.735 279.644 117.188 279.153 117.188 279.644 117.188 279.644 116.641 279.644 116.093 279.153 116.093 279.153 115.546 278.663 115.546 278.663 114.999 278.172 114.999 278.172 114.451 277.681 114.451 277.191 114.451 276.7 114.451 276.7 113.904 276.21 113.904 276.21 113.357 275.719 112.81 275.719 112.262 275.228 112.262 274.738 112.262 274.738 111.715 274.247 111.715 274.247 111.168 273.756 111.168 273.266 110.621 273.266 110.073 272.775 109.526 272.285 108.979 271.794 108.432 271.303 108.432 270.813 108.432 270.322 108.432 269.831 108.432 269.341 108.432 268.85 108.432 268.36 108.432 267.869 108.432 267.378 108.432 266.888 108.432 266.397 108.432 265.416 108.432 264.925 108.432 264.434 108.432 263.944 108.432 263.944 108.979 263.453 108.979 263.453 108.432 262.963 108.432 262.472 108.432 261.981 108.432 261.981 107.884 261.491 107.884 261.491 107.337 261 107.337 260.509 107.337 260.509 106.79 260.509 106.242 260.509 105.695 260.019 105.695 260.019 105.148 259.528 105.148 259.038 105.148 259.038 104.601 259.038 104.053 258.547 104.053 258.547 103.506 258.547 102.959 259.038 102.959 259.038 102.412 258.547 102.412 258.056 102.412 257.566 102.412 257.566 101.864 257.075 101.864 256.094 101.317 255.603 101.317 255.113 100.77 254.622 100.77 254.131 100.77 254.131 100.223 253.641 100.223 253.641 99.675 253.15 99.128 253.15 98.581 253.15 98.034 252.659 97.486 252.659 96.939 252.169 96.939 251.678 96.939 251.678 96.392 251.188 96.392 251.188 95.844 250.697 95.297 250.206 94.75 250.206 94.203 250.206 93.655 249.716 93.108 249.716 92.561 249.225 92.014 249.225 91.466 249.225 90.919 248.734 90.919 248.734 90.372 248.244 90.372 248.244 90.919 248.244 90.372 247.753 90.372" fill="#897044"/><polyline points="247.753 90.372 248.734 90.372 249.716 90.372 250.697 90.372 251.678 90.372 252.659 90.372 253.15 90.372 253.641 90.372 254.131 90.372 255.113 90.372 255.603 90.372 256.094 90.372 256.584 90.372 257.075 90.372 257.566 90.372 258.056 90.372 258.547 90.372 259.038 90.372 260.019 90.372 260.509 90.372 261 90.372 261.491 90.372 262.472 90.372 263.944 90.372 265.416 90.372 265.906 90.372 266.397 90.372 266.888 90.372 267.378 90.372 269.341 90.372 269.831 90.372 270.813 90.372 271.303 90.372 272.285 90.372 273.266 90.372 273.756 90.372 274.247 90.372 274.738 90.372 276.21 90.372 277.191 90.372 277.681 90.372 279.153 90.372 279.644 90.372 280.135 90.372 280.625 90.372 281.606 90.372 282.097 90.372 283.078 90.372 283.569 90.372 284.06 90.372 285.041 90.372 286.022 90.372 286.513 90.372 287.494 90.372 287.985 90.372 288.966 90.372 290.438 90.372 292.4 90.372 292.891 90.372 293.382 90.372 294.363 90.372 294.853 90.372 295.344 90.372 295.835 90.372 297.307 90.372 297.797 90.372 298.778 90.372 299.269 90.372 300.25 90.372 300.741 90.372 301.722 90.372 302.213 90.372 302.703 90.372 303.194 90.372 304.175 90.372 304.666 90.372 305.157 90.372 305.647 90.372 306.628 90.372 307.119 90.372 307.61 90.372 308.591 90.372 309.572 90.372 310.063 90.372 311.044 90.372 312.025 90.372 312.516 90.372 313.007 90.372 313.497 90.372 313.988 90.372 314.479 90.372 314.969 90.372 315.46 90.372 316.441 90.372 316.932 90.372 318.404 90.372 318.404 91.466 318.404 92.561 318.404 93.108 318.404 94.203 318.404 95.297 318.404 96.392 318.404 97.486 318.404 98.034 318.404 98.581 318.404 99.128 318.404 100.223 318.404 100.77 318.404 101.317 318.404 101.864 318.404 102.412 318.404 103.506 318.404 104.053 318.404 104.601 318.404 105.695 318.404 106.242 318.404 106.79 318.404 107.337 318.404 107.884 318.404 108.979 318.404 109.526 318.404 110.073 318.404 110.621 318.404 111.715 318.404 112.81 318.404 113.904 318.404 114.451 318.404 114.999 318.404 116.641 318.404 117.188 318.404 117.735 318.404 118.282 318.404 118.83 318.404 119.924 318.404 121.566 318.404 122.66 318.404 123.208 318.404 123.755 318.404 125.397 319.385 125.397 319.385 125.944 319.385 126.491 319.385 127.039 319.385 127.586 319.385 129.228 319.385 130.322 319.385 130.869 319.385 131.417 319.385 132.511 319.385 133.058 319.385 134.153 319.385 134.7 319.385 135.248 319.385 136.342 319.385 137.984 319.385 138.531 319.385 139.078 319.385 141.267 319.385 142.362 318.404 141.815 317.913 141.815 317.422 141.815 316.932 141.815 316.441 141.815 315.95 142.362 315.46 142.362 314.969 142.362 314.479 142.362 313.988 142.909 313.497 142.909 313.007 142.909 312.516 142.362 312.025 142.362 311.535 142.362 310.553 142.362 310.553 141.815 310.063 141.815 309.082 141.267 308.591 141.267 308.1 141.267 307.61 141.267 307.119 140.72 306.628 140.72 306.138 140.72 306.138 140.173 305.647 140.173 304.666 138.531 304.666 137.984 304.175 137.984 303.685 137.984 302.703 137.984 302.213 137.984 301.722 137.984 301.232 137.984 300.25 137.984 299.76 137.437 299.269 137.437 298.778 136.889 298.288 136.889 297.797 136.889 297.307 135.795 296.816 135.248 296.325 134.7 296.325 134.153 295.835 134.153 295.835 133.606 295.835 133.058 295.344 132.511 294.363 132.511 292.891 132.511 292.4 132.511 290.928 132.511 288.966 132.511 287.985 132.511 287.494 132.511 286.022 132.511 286.022 129.228 286.022 126.491 286.022 125.944 286.022 124.849 285.531 124.849 285.041 124.302 284.55 123.755 284.06 123.208 283.569 122.66 283.078 122.113 282.588 122.113 282.097 121.566 282.097 121.019 281.606 121.019 281.116 121.019 281.116 120.471 281.116 119.924 281.606 119.924 281.606 119.377 281.116 119.377 280.625 119.377 280.625 118.83 280.135 118.83 280.135 118.282 280.135 117.735 279.644 117.735 279.644 117.188 279.153 117.188 279.644 117.188 279.644 116.641 279.644 116.093 279.153 116.093 279.153 115.546 278.663 115.546 278.663 114.999 278.172 114.999 278.172 114.451 277.681 114.451 277.191 114.451 276.7 114.451 276.7 113.904 276.21 113.904 276.21 113.357 275.719 112.81 275.719 112.262 275.228 112.262 274.738 112.262 274.738 111.715 274.247 111.715 274.247 111.168 273.756 111.168 273.266 110.621 273.266 110.073 272.775 109.526 272.285 108.979 271.794 108.432 271.303 108.432 270.813 108.432 270.322 108.432 269.831 108.432 269.341 108.432 268.85 108.432 268.36 108.432 267.869 108.432 267.378 108.432 266.888 108.432 266.397 108.432 265.416 108.432 264.925 108.432 264.434 108.432 263.944 108.432 263.944 108.979 263.453 108.979 263.453 108.432 262.963 108.432 262.472 108.432 261.981 108.432 261.981 107.884 261.491 107.884 261.491 107.337 261 107.337 260.509 107.337 260.509 106.79 260.509 106.242 260.509 105.695 260.019 105.695 260.019 105.148 259.528 105.148 259.038 105.148 259.038 104.601 259.038 104.053 258.547 104.053 258.547 103.506 258.547 102.959 259.038 102.959 259.038 102.412 258.547 102.412 258.056 102.412 257.566 102.412 257.566 101.864 257.075 101.864 256.094 101.317 255.603 101.317 255.113 100.77 254.622 100.77 254.131 100.77 254.131 100.223 253.641 100.223 253.641 99.675 253.15 99.128 253.15 98.581 253.15 98.034 252.659 97.486 252.659 96.939 252.169 96.939 251.678 96.939 251.678 96.392 251.188 96.392 251.188 95.844 250.697 95.297 250.206 94.75 250.206 94.203 250.206 93.655 249.716 93.108 249.716 92.561 249.225 92.014 249.225 91.466 249.225 90.919 248.734 90.919 248.734 90.372 248.244 90.372 248.244 90.919 248.244 90.372 247.753 90.372" fill="none" stroke="#fff" stroke-linecap="round" stroke-linejoin="round" stroke-width="1.08"/><polygon points="401.81 90.372 402.791 90.372 403.282 90.372 403.773 90.372 404.754 90.372 405.245 90.372 405.735 90.372 406.226 90.372 406.717 90.372 407.207 90.372 407.698 90.372 408.188 90.372 408.679 90.372 409.17 90.372 410.151 90.372 410.642 90.372 411.132 90.372 411.623 90.372 413.095 90.372 413.585 90.372 414.567 90.372 415.057 90.372 415.548 90.372 416.529 90.372 417.02 90.372 417.51 90.372 418.001 90.372 418.492 90.372 418.982 90.372 419.473 90.372 419.963 90.372 420.454 90.372 421.435 90.372 421.926 90.372 422.907 90.372 423.398 90.372 423.888 90.372 424.87 90.372 425.36 90.372 426.342 90.372 426.832 90.372 427.323 90.372 427.813 90.372 428.304 90.372 428.795 90.372 429.776 90.372 430.267 90.372 430.757 90.372 431.739 90.372 432.229 90.372 433.21 90.372 434.192 90.372 434.682 90.372 435.173 90.372 436.645 90.372 437.135 90.372 437.626 90.372 438.117 90.372 438.607 90.372 439.589 90.372 440.079 90.372 441.06 90.372 441.551 90.372 442.042 90.372 442.532 90.372 443.514 90.372 444.004 90.372 444.985 90.372 446.948 90.372 447.439 90.372 447.929 90.372 448.91 90.372 449.892 90.372 450.382 90.372 450.873 90.372 451.364 90.372 451.854 90.372 453.326 90.372 453.817 90.372 455.289 90.372 456.761 90.372 456.761 91.466 456.761 92.014 456.761 92.561 456.761 94.203 456.761 94.75 456.761 95.297 456.761 96.392 456.761 97.486 456.761 98.034 456.761 99.675 456.761 100.77 456.761 101.317 456.761 101.864 456.761 102.412 456.761 102.959 456.761 103.506 456.761 104.053 456.761 105.148 456.761 106.242 456.761 106.79 456.761 107.884 456.761 108.979 456.27 108.979 455.289 108.979 454.798 108.979 453.817 108.979 453.817 109.526 453.817 110.073 452.345 110.073 451.854 110.073 451.364 110.073 451.364 110.621 451.854 111.168 451.364 111.168 451.364 111.715 451.364 112.262 450.873 112.262 450.382 112.262 449.892 112.262 449.401 112.262 448.91 112.262 448.42 111.715 447.929 111.715 447.439 111.715 446.948 111.715 446.457 111.715 445.967 111.715 445.476 112.262 444.985 112.81 444.495 112.81 444.495 113.357 444.495 113.904 444.004 114.451 443.514 114.451 443.514 114.999 443.514 115.546 443.514 116.093 443.023 116.093 443.023 116.641 443.023 117.188 442.532 117.188 442.042 117.188 442.042 117.735 441.551 117.735 441.06 117.188 440.57 117.188 440.079 117.188 439.589 117.188 439.098 117.188 438.607 117.188 438.117 117.188 437.626 117.188 437.135 116.641 436.645 116.641 436.154 116.641 435.664 116.641 435.664 116.093 435.173 116.093 434.682 116.093 434.192 116.093 434.192 116.641 433.701 116.641 433.21 116.641 433.21 117.188 432.72 117.188 432.72 117.735 432.72 118.282 432.72 118.83 432.72 119.377 432.72 119.924 432.72 120.471 433.21 120.471 433.21 121.019 433.701 121.019 433.701 121.566 433.701 122.113 433.701 122.66 433.701 123.208 433.701 123.755 433.701 124.302 434.192 124.302 434.192 124.849 433.701 124.849 433.21 124.849 433.21 125.397 432.72 125.397 432.229 125.397 431.739 125.397 431.248 125.397 429.776 125.397 429.285 125.397 428.304 125.397 427.813 125.397 427.323 125.397 426.832 125.397 425.851 125.397 425.36 125.397 424.87 125.397 424.379 125.397 423.888 125.397 423.398 125.397 422.907 125.397 421.926 125.397 421.435 125.397 419.963 125.397 418.492 125.397 417.02 125.397 416.529 125.397 416.038 125.397 415.548 125.397 415.057 125.397 414.567 125.397 413.095 125.397 412.604 125.397 411.623 125.397 411.132 125.397 410.642 125.397 410.151 125.397 409.66 125.397 408.679 125.397 407.207 125.397 406.226 125.397 405.735 125.397 405.245 125.397 404.754 125.397 403.773 125.397 403.282 125.397 402.301 125.397 401.81 125.397 401.81 124.849 401.81 123.755 401.81 123.208 401.81 122.66 401.81 122.113 401.81 121.566 401.81 121.019 401.81 120.471 401.81 119.924 401.81 118.83 401.81 117.735 401.81 117.188 401.81 116.641 401.81 114.999 401.81 114.451 401.81 113.904 401.81 113.357 401.81 112.81 401.81 112.262 401.81 111.715 401.81 110.073 401.81 109.526 401.81 108.979 401.81 108.432 401.81 107.884 401.81 107.337 401.81 106.79 401.81 106.242 401.81 105.695 401.81 105.148 401.81 104.053 401.81 102.959 401.81 102.412 401.81 101.317 401.81 100.77 401.81 100.223 401.81 99.128 401.81 98.034 401.81 97.486 401.81 96.392 401.81 95.297 401.81 94.203 401.81 93.655 401.81 93.108 401.81 92.561 401.81 92.014 401.81 91.466 401.81 90.372" fill="#897044"/><polyline points="401.81 90.372 402.791 90.372 403.282 90.372 403.773 90.372 404.754 90.372 405.245 90.372 405.735 90.372 406.226 90.372 406.717 90.372 407.207 90.372 407.698 90.372 408.188 90.372 408.679 90.372 409.17 90.372 410.151 90.372 410.642 90.372 411.132 90.372 411.623 90.372 413.095 90.372 413.585 90.372 414.567 90.372 415.057 90.372 415.548 90.372 416.529 90.372 417.02 90.372 417.51 90.372 418.001 90.372 418.492 90.372 418.982 90.372 419.473 90.372 419.963 90.372 420.454 90.372 421.435 90.372 421.926 90.372 422.907 90.372 423.398 90.372 423.888 90.372 424.87 90.372 425.36 90.372 426.342 90.372 426.832 90.372 427.323 90.372 427.813 90.372 428.304 90.372 428.795 90.372 429.776 90.372 430.267 90.372 430.757 90.372 431.739 90.372 432.229 90.372 433.21 90.372 434.192 90.372 434.682 90.372 435.173 90.372 436.645 90.372 437.135 90.372 437.626 90.372 438.117 90.372 438.607 90.372 439.589 90.372 440.079 90.372 441.06 90.372 441.551 90.372 442.042 90.372 442.532 90.372 443.514 90.372 444.004 90.372 444.985 90.372 446.948 90.372 447.439 90.372 447.929 90.372 448.91 90.372 449.892 90.372 450.382 90.372 450.873 90.372 451.364 90.372 451.854 90.372 453.326 90.372 453.817 90.372 455.289 90.372 456.761 90.372 456.761 91.466 456.761 92.014 456.761 92.561 456.761 94.203 456.761 94.75 456.761 95.297 456.761 96.392 456.761 97.486 456.761 98.034 456.761 99.675 456.761 100.77 456.761 101.317 456.761 101.864 456.761 102.412 456.761 102.959 456.761 103.506 456.761 104.053 456.761 105.148 456.761 106.242 456.761 106.79 456.761 107.884 456.761 108.979 456.27 108.979 455.289 108.979 454.798 108.979 453.817 108.979 453.817 109.526 453.817 110.073 452.345 110.073 451.854 110.073 451.364 110.073 451.364 110.621 451.854 111.168 451.364 111.168 451.364 111.715 451.364 112.262 450.873 112.262 450.382 112.262 449.892 112.262 449.401 112.262 448.91 112.262 448.42 111.715 447.929 111.715 447.439 111.715 446.948 111.715 446.457 111.715 445.967 111.715 445.476 112.262 444.985 112.81 444.495 112.81 444.495 113.357 444.495 113.904 444.004 114.451 443.514 114.451 443.514 114.999 443.514 115.546 443.514 116.093 443.023 116.093 443.023 116.641 443.023 117.188 442.532 117.188 442.042 117.188 442.042 117.735 441.551 117.735 441.06 117.188 440.57 117.188 440.079 117.188 439.589 117.188 439.098 117.188 438.607 117.188 438.117 117.188 437.626 117.188 437.135 116.641 436.645 116.641 436.154 116.641 435.664 116.641 435.664 116.093 435.173 116.093 434.682 116.093 434.192 116.093 434.192 116.641 433.701 116.641 433.21 116.641 433.21 117.188 432.72 117.188 432.72 117.735 432.72 118.282 432.72 118.83 432.72 119.377 432.72 119.924 432.72 120.471 433.21 120.471 433.21 121.019 433.701 121.019 433.701 121.566 433.701 122.113 433.701 122.66 433.701 123.208 433.701 123.755 433.701 124.302 434.192 124.302 434.192 124.849 433.701 124.849 433.21 124.849 433.21 125.397 432.72 125.397 432.229 125.397 431.739 125.397 431.248 125.397 429.776 125.397 429.285 125.397 428.304 125.397 427.813 125.397 427.323 125.397 426.832 125.397 425.851 125.397 425.36 125.397 424.87 125.397 424.379 125.397 423.888 125.397 423.398 125.397 422.907 125.397 421.926 125.397 421.435 125.397 419.963 125.397 418.492 125.397 417.02 125.397 416.529 125.397 416.038 125.397 415.548 125.397 415.057 125.397 414.567 125.397 413.095 125.397 412.604 125.397 411.623 125.397 411.132 125.397 410.642 125.397 410.151 125.397 409.66 125.397 408.679 125.397 407.207 125.397 406.226 125.397 405.735 125.397 405.245 125.397 404.754 125.397 403.773 125.397 403.282 125.397 402.301 125.397 401.81 125.397 401.81 124.849 401.81 123.755 401.81 123.208 401.81 122.66 401.81 122.113 401.81 121.566 401.81 121.019 401.81 120.471 401.81 119.924 401.81 118.83 401.81 117.735 401.81 117.188 401.81 116.641 401.81 114.999 401.81 114.451 401.81 113.904 401.81 113.357 401.81 112.81 401.81 112.262 401.81 111.715 401.81 110.073 401.81 109.526 401.81 108.979 401.81 108.432 401.81 107.884 401.81 107.337 401.81 106.79 401.81 106.242 401.81 105.695 401.81 105.148 401.81 104.053 401.81 102.959 401.81 102.412 401.81 101.317 401.81 100.77 401.81 100.223 401.81 99.128 401.81 98.034 401.81 97.486 401.81 96.392 401.81 95.297 401.81 94.203 401.81 93.655 401.81 93.108 401.81 92.561 401.81 92.014 401.81 91.466 401.81 90.372" fill="none" stroke="#fff" stroke-linecap="round" stroke-linejoin="round" stroke-width="1.08"/><polygon points="351.766 90.372 352.257 90.372 353.238 90.372 354.71 90.372 355.201 90.372 356.182 90.372 356.673 90.372 357.163 90.372 357.654 90.372 358.144 90.372 358.635 90.372 359.616 90.372 360.107 90.372 360.597 90.372 361.579 90.372 362.069 90.372 363.051 90.372 363.541 90.372 364.032 90.372 364.523 90.372 365.013 90.372 365.504 90.372 365.994 90.372 366.976 90.372 367.466 90.372 368.448 90.372 369.919 90.372 370.41 90.372 370.901 90.372 371.391 90.372 372.863 90.372 373.844 90.372 374.335 90.372 374.826 90.372 375.316 90.372 375.807 90.372 376.788 90.372 377.279 90.372 378.26 90.372 379.732 90.372 381.204 90.372 382.185 90.372 382.676 90.372 383.657 90.372 384.148 90.372 385.129 90.372 385.62 90.372 387.091 90.372 387.582 90.372 388.073 90.372 388.563 90.372 389.054 90.372 389.545 90.372 390.526 90.372 391.016 90.372 392.488 90.372 393.47 90.372 393.96 90.372 394.451 90.372 395.432 90.372 395.923 90.372 396.413 90.372 396.904 90.372 397.885 90.372 398.376 90.372 398.866 90.372 399.357 90.372 400.338 90.372 400.829 90.372 401.81 90.372 401.81 91.466 401.81 92.014 401.81 92.561 401.81 93.108 401.81 93.655 401.81 94.203 401.81 95.297 401.81 96.392 401.81 97.486 401.81 98.034 401.81 99.128 401.81 100.223 401.81 100.77 401.81 101.317 401.81 102.412 401.81 102.959 401.81 104.053 401.81 105.148 401.81 105.695 401.81 106.242 401.81 106.79 401.81 107.337 401.81 107.884 401.81 108.432 401.81 108.979 401.81 109.526 401.81 110.073 401.81 111.715 401.81 112.262 401.81 112.81 401.81 113.357 401.81 113.904 401.81 114.451 401.81 114.999 401.81 116.641 401.81 117.188 401.81 117.735 401.81 118.83 401.81 119.924 401.81 120.471 401.81 121.019 401.81 121.566 401.81 122.113 401.81 122.66 401.81 123.208 401.81 123.755 401.81 124.849 401.81 125.397 400.829 125.397 400.338 125.397 399.357 125.397 398.866 125.397 397.885 125.397 396.904 125.397 396.413 125.397 395.923 125.397 395.432 125.397 394.941 125.397 394.451 125.397 393.47 125.397 391.998 125.397 391.016 125.397 390.526 125.397 389.545 125.397 389.054 125.397 388.563 125.397 388.073 125.397 386.601 125.397 385.62 125.397 385.129 125.397 384.638 125.397 384.148 125.397 383.657 125.397 382.676 125.397 381.204 125.397 379.732 125.397 378.26 125.397 377.769 125.397 377.279 125.397 376.788 125.397 376.298 125.397 375.807 125.397 375.316 125.397 374.335 125.397 373.844 125.397 372.863 125.397 372.373 125.397 371.391 125.397 370.41 125.397 369.919 125.397 368.938 125.397 368.448 125.397 367.466 125.397 366.976 125.397 365.994 125.397 365.013 125.397 364.523 125.397 363.541 125.397 363.051 125.397 362.069 125.397 361.579 125.397 361.088 125.397 360.597 125.397 360.107 125.397 359.616 125.397 359.126 125.397 358.635 125.397 358.144 125.397 357.654 125.397 357.163 125.397 356.182 125.397 355.691 125.397 355.201 125.397 354.71 125.397 354.219 125.397 353.729 125.397 353.238 125.397 352.257 125.397 351.766 125.397 351.766 124.302 351.766 123.755 351.766 123.208 351.766 122.66 351.766 122.113 351.766 121.566 351.766 120.471 351.766 118.83 351.766 118.282 351.766 117.735 351.766 117.188 351.766 116.641 351.766 116.093 351.766 115.546 351.766 114.999 351.766 113.904 351.766 113.357 351.766 112.81 351.766 111.715 351.766 110.621 351.766 110.073 351.766 109.526 351.766 108.979 351.766 107.884 351.766 107.337 351.766 106.79 351.766 106.242 351.766 104.053 351.766 103.506 351.766 102.959 351.766 101.864 351.766 100.77 351.766 100.223 351.766 99.128 351.766 97.486 351.766 96.939 351.766 96.392 351.766 95.844 351.766 95.297 351.766 94.75 351.766 94.203 351.766 92.561 351.766 91.466 351.766 90.919 351.766 90.372" fill="#897044"/><polyline points="351.766 90.372 352.257 90.372 353.238 90.372 354.71 90.372 355.201 90.372 356.182 90.372 356.673 90.372 357.163 90.372 357.654 90.372 358.144 90.372 358.635 90.372 359.616 90.372 360.107 90.372 360.597 90.372 361.579 90.372 362.069 90.372 363.051 90.372 363.541 90.372 364.032 90.372 364.523 90.372 365.013 90.372 365.504 90.372 365.994 90.372 366.976 90.372 367.466 90.372 368.448 90.372 369.919 90.372 370.41 90.372 370.901 90.372 371.391 90.372 372.863 90.372 373.844 90.372 374.335 90.372 374.826 90.372 375.316 90.372 375.807 90.372 376.788 90.372 377.279 90.372 378.26 90.372 379.732 90.372 381.204 90.372 382.185 90.372 382.676 90.372 383.657 90.372 384.148 90.372 385.129 90.372 385.62 90.372 387.091 90.372 387.582 90.372 388.073 90.372 388.563 90.372 389.054 90.372 389.545 90.372 390.526 90.372 391.016 90.372 392.488 90.372 393.47 90.372 393.96 90.372 394.451 90.372 395.432 90.372 395.923 90.372 396.413 90.372 396.904 90.372 397.885 90.372 398.376 90.372 398.866 90.372 399.357 90.372 400.338 90.372 400.829 90.372 401.81 90.372 401.81 91.466 401.81 92.014 401.81 92.561 401.81 93.108 401.81 93.655 401.81 94.203 401.81 95.297 401.81 96.392 401.81 97.486 401.81 98.034 401.81 99.128 401.81 100.223 401.81 100.77 401.81 101.317 401.81 102.412 401.81 102.959 401.81 104.053 401.81 105.148 401.81 105.695 401.81 106.242 401.81 106.79 401.81 107.337 401.81 107.884 401.81 108.432 401.81 108.979 401.81 109.526 401.81 110.073 401.81 111.715 401.81 112.262 401.81 112.81 401.81 113.357 401.81 113.904 401.81 114.451 401.81 114.999 401.81 116.641 401.81 117.188 401.81 117.735 401.81 118.83 401.81 119.924 401.81 120.471 401.81 121.019 401.81 121.566 401.81 122.113 401.81 122.66 401.81 123.208 401.81 123.755 401.81 124.849 401.81 125.397 400.829 125.397 400.338 125.397 399.357 125.397 398.866 125.397 397.885 125.397 396.904 125.397 396.413 125.397 395.923 125.397 395.432 125.397 394.941 125.397 394.451 125.397 393.47 125.397 391.998 125.397 391.016 125.397 390.526 125.397 389.545 125.397 389.054 125.397 388.563 125.397 388.073 125.397 386.601 125.397 385.62 125.397 385.129 125.397 384.638 125.397 384.148 125.397 383.657 125.397 382.676 125.397 381.204 125.397 379.732 125.397 378.26 125.397 377.769 125.397 377.279 125.397 376.788 125.397 376.298 125.397 375.807 125.397 375.316 125.397 374.335 125.397 373.844 125.397 372.863 125.397 372.373 125.397 371.391 125.397 370.41 125.397 369.919 125.397 368.938 125.397 368.448 125.397 367.466 125.397 366.976 125.397 365.994 125.397 365.013 125.397 364.523 125.397 363.541 125.397 363.051 125.397 362.069 125.397 361.579 125.397 361.088 125.397 360.597 125.397 360.107 125.397 359.616 125.397 359.126 125.397 358.635 125.397 358.144 125.397 357.654 125.397 357.163 125.397 356.182 125.397 355.691 125.397 355.201 125.397 354.71 125.397 354.219 125.397 353.729 125.397 353.238 125.397 352.257 125.397 351.766 125.397 351.766 124.302 351.766 123.755 351.766 123.208 351.766 122.66 351.766 122.113 351.766 121.566 351.766 120.471 351.766 118.83 351.766 118.282 351.766 117.735 351.766 117.188 351.766 116.641 351.766 116.093 351.766 115.546 351.766 114.999 351.766 113.904 351.766 113.357 351.766 112.81 351.766 111.715 351.766 110.621 351.766 110.073 351.766 109.526 351.766 108.979 351.766 107.884 351.766 107.337 351.766 106.79 351.766 106.242 351.766 104.053 351.766 103.506 351.766 102.959 351.766 101.864 351.766 100.77 351.766 100.223 351.766 99.128 351.766 97.486 351.766 96.939 351.766 96.392 351.766 95.844 351.766 95.297 351.766 94.75 351.766 94.203 351.766 92.561 351.766 91.466 351.766 90.919 351.766 90.372" fill="none" stroke="#fff" stroke-linecap="round" stroke-linejoin="round" stroke-width="1.08"/><polygon points="318.404 90.372 319.875 90.372 320.857 90.372 321.347 90.372 321.838 90.372 322.329 90.372 322.819 90.372 323.31 90.372 323.8 90.372 324.291 90.372 324.782 90.372 325.272 90.372 325.763 90.372 326.254 90.372 326.744 90.372 327.235 90.372 327.725 90.372 328.216 90.372 328.707 90.372 329.197 90.372 331.16 90.372 332.141 90.372 332.632 90.372 333.122 90.372 333.613 90.372 334.594 90.372 335.085 90.372 336.557 90.372 337.047 90.372 337.538 90.372 338.029 90.372 339.01 90.372 340.972 90.372 341.954 90.372 343.426 90.372 343.916 90.372 344.407 90.372 344.897 90.372 345.388 90.372 345.879 90.372 346.369 90.372 346.86 90.372 347.841 90.372 348.332 90.372 348.822 90.372 349.313 90.372 350.294 90.372 350.785 90.372 351.276 90.372 351.766 90.372 351.766 90.919 351.766 91.466 351.766 92.561 351.766 94.203 351.766 94.75 351.766 95.297 351.766 95.844 351.766 96.392 351.766 96.939 351.766 97.486 351.766 99.128 351.766 100.223 351.766 100.77 351.766 101.864 351.766 102.959 351.766 103.506 351.766 104.053 351.766 106.242 351.766 106.79 351.766 107.337 351.766 107.884 351.766 108.979 351.766 109.526 351.766 110.073 351.766 110.621 351.766 111.715 351.766 112.81 351.766 113.357 351.766 113.904 351.766 114.999 351.766 115.546 351.766 116.093 351.766 116.641 351.766 117.188 351.766 117.735 351.766 118.282 351.766 118.83 351.766 120.471 351.766 121.566 351.766 122.113 351.766 122.66 351.766 123.208 351.766 123.755 351.766 124.302 351.766 125.397 352.257 125.397 352.257 126.491 352.257 127.039 352.257 127.586 352.257 128.133 352.257 128.68 352.257 129.228 352.257 129.775 352.257 130.322 352.257 131.417 352.257 131.964 352.257 132.511 352.257 133.058 352.257 133.606 352.257 134.153 352.257 135.248 352.257 135.795 352.257 136.342 351.766 136.342 351.276 136.342 350.785 136.342 350.294 136.342 349.313 136.342 348.822 136.342 348.332 136.342 347.841 136.342 347.351 136.342 346.86 136.342 345.879 136.342 345.388 136.342 344.897 136.342 343.916 136.342 343.426 136.342 342.935 136.342 342.444 136.342 341.463 136.342 340.972 136.342 340.482 136.342 339.991 136.342 339.501 136.342 339.01 136.342 338.519 136.342 338.029 136.342 337.538 136.342 337.047 136.342 336.557 136.342 335.576 136.342 335.085 136.342 334.104 136.342 333.613 136.342 333.122 136.342 332.632 136.342 332.141 136.342 331.65 136.342 331.16 136.342 330.669 136.342 330.179 136.342 329.197 136.342 328.707 136.342 327.235 136.342 326.254 136.342 325.272 136.342 324.782 136.342 324.291 136.342 323.8 136.342 323.31 136.342 322.329 136.342 321.838 136.342 320.857 136.342 320.366 136.342 319.385 136.342 319.385 135.248 319.385 134.7 319.385 134.153 319.385 133.058 319.385 132.511 319.385 131.417 319.385 130.869 319.385 130.322 319.385 129.228 319.385 127.586 319.385 127.039 319.385 126.491 319.385 125.944 319.385 125.397 318.404 125.397 318.404 123.755 318.404 123.208 318.404 122.66 318.404 121.566 318.404 119.924 318.404 118.83 318.404 118.282 318.404 117.735 318.404 117.188 318.404 116.641 318.404 114.999 318.404 114.451 318.404 113.904 318.404 112.81 318.404 111.715 318.404 110.621 318.404 110.073 318.404 109.526 318.404 108.979 318.404 107.884 318.404 107.337 318.404 106.79 318.404 106.242 318.404 105.695 318.404 104.601 318.404 104.053 318.404 103.506 318.404 102.412 318.404 101.864 318.404 101.317 318.404 100.77 318.404 100.223 318.404 99.128 318.404 98.581 318.404 98.034 318.404 97.486 318.404 96.392 318.404 95.297 318.404 94.203 318.404 93.108 318.404 92.561 318.404 91.466 318.404 90.372" fill="#897044"/><polyline points="318.404 90.372 319.875 90.372 320.857 90.372 321.347 90.372 321.838 90.372 322.329 90.372 322.819 90.372 323.31 90.372 323.8 90.372 324.291 90.372 324.782 90.372 325.272 90.372 325.763 90.372 326.254 90.372 326.744 90.372 327.235 90.372 327.725 90.372 328.216 90.372 328.707 90.372 329.197 90.372 331.16 90.372 332.141 90.372 332.632 90.372 333.122 90.372 333.613 90.372 334.594 90.372 335.085 90.372 336.557 90.372 337.047 90.372 337.538 90.372 338.029 90.372 339.01 90.372 340.972 90.372 341.954 90.372 343.426 90.372 343.916 90.372 344.407 90.372 344.897 90.372 345.388 90.372 345.879 90.372 346.369 90.372 346.86 90.372 347.841 90.372 348.332 90.372 348.822 90.372 349.313 90.372 350.294 90.372 350.785 90.372 351.276 90.372 351.766 90.372 351.766 90.919 351.766 91.466 351.766 92.561 351.766 94.203 351.766 94.75 351.766 95.297 351.766 95.844 351.766 96.392 351.766 96.939 351.766 97.486 351.766 99.128 351.766 100.223 351.766 100.77 351.766 101.864 351.766 102.959 351.766 103.506 351.766 104.053 351.766 106.242 351.766 106.79 351.766 107.337 351.766 107.884 351.766 108.979 351.766 109.526 351.766 110.073 351.766 110.621 351.766 111.715 351.766 112.81 351.766 113.357 351.766 113.904 351.766 114.999 351.766 115.546 351.766 116.093 351.766 116.641 351.766 117.188 351.766 117.735 351.766 118.282 351.766 118.83 351.766 120.471 351.766 121.566 351.766 122.113 351.766 122.66 351.766 123.208 351.766 123.755 351.766 124.302 351.766 125.397 352.257 125.397 352.257 126.491 352.257 127.039 352.257 127.586 352.257 128.133 352.257 128.68 352.257 129.228 352.257 129.775 352.257 130.322 352.257 131.417 352.257 131.964 352.257 132.511 352.257 133.058 352.257 133.606 352.257 134.153 352.257 135.248 352.257 135.795 352.257 136.342 351.766 136.342 351.276 136.342 350.785 136.342 350.294 136.342 349.313 136.342 348.822 136.342 348.332 136.342 347.841 136.342 347.351 136.342 346.86 136.342 345.879 136.342 345.388 136.342 344.897 136.342 343.916 136.342 343.426 136.342 342.935 136.342 342.444 136.342 341.463 136.342 340.972 136.342 340.482 136.342 339.991 136.342 339.501 136.342 339.01 136.342 338.519 136.342 338.029 136.342 337.538 136.342 337.047 136.342 336.557 136.342 335.576 136.342 335.085 136.342 334.104 136.342 333.613 136.342 333.122 136.342 332.632 136.342 332.141 136.342 331.65 136.342 331.16 136.342 330.669 136.342 330.179 136.342 329.197 136.342 328.707 136.342 327.235 136.342 326.254 136.342 325.272 136.342 324.782 136.342 324.291 136.342 323.8 136.342 323.31 136.342 322.329 136.342 321.838 136.342 320.857 136.342 320.366 136.342 319.385 136.342 319.385 135.248 319.385 134.7 319.385 134.153 319.385 133.058 319.385 132.511 319.385 131.417 319.385 130.869 319.385 130.322 319.385 129.228 319.385 127.586 319.385 127.039 319.385 126.491 319.385 125.944 319.385 125.397 318.404 125.397 318.404 123.755 318.404 123.208 318.404 122.66 318.404 121.566 318.404 119.924 318.404 118.83 318.404 118.282 318.404 117.735 318.404 117.188 318.404 116.641 318.404 114.999 318.404 114.451 318.404 113.904 318.404 112.81 318.404 111.715 318.404 110.621 318.404 110.073 318.404 109.526 318.404 108.979 318.404 107.884 318.404 107.337 318.404 106.79 318.404 106.242 318.404 105.695 318.404 104.601 318.404 104.053 318.404 103.506 318.404 102.412 318.404 101.864 318.404 101.317 318.404 100.77 318.404 100.223 318.404 99.128 318.404 98.581 318.404 98.034 318.404 97.486 318.404 96.392 318.404 95.297 318.404 94.203 318.404 93.108 318.404 92.561 318.404 91.466 318.404 90.372" fill="none" stroke="#fff" stroke-linecap="round" stroke-linejoin="round" stroke-width="1.08"/><polygon points="260.509 105.695 260.509 106.242 260.509 106.79 260.509 107.337 261 107.337 261.491 107.337 261.491 107.884 261.981 107.884 261.981 108.432 262.472 108.432 262.963 108.432 263.453 108.432 263.453 108.979 263.944 108.979 263.944 108.432 264.434 108.432 264.925 108.432 265.416 108.432 266.397 108.432 266.888 108.432 267.378 108.432 267.869 108.432 268.36 108.432 268.85 108.432 269.341 108.432 269.831 108.432 270.322 108.432 270.813 108.432 271.303 108.432 271.794 108.432 272.285 108.979 272.775 109.526 273.266 110.073 273.266 110.621 273.756 111.168 274.247 111.168 274.247 111.715 274.738 111.715 274.738 112.262 275.228 112.262 275.719 112.262 275.719 112.81 276.21 113.357 276.21 113.904 276.7 113.904 276.7 114.451 277.191 114.451 277.681 114.451 278.172 114.451 278.172 114.999 278.663 114.999 278.663 115.546 279.153 115.546 279.153 116.093 279.644 116.093 279.644 116.641 279.644 117.188 279.153 117.188 279.644 117.188 279.644 117.735 280.135 117.735 280.135 118.282 280.135 118.83 280.625 118.83 280.625 119.377 281.116 119.377 281.606 119.377 281.606 119.924 281.116 119.924 281.116 120.471 281.116 121.019 281.606 121.019 282.097 121.019 282.097 121.566 282.588 122.113 283.078 122.113 283.569 122.66 284.06 123.208 284.55 123.755 285.041 124.302 285.531 124.849 286.022 124.849 286.022 125.944 286.022 126.491 286.022 129.228 286.022 132.511 286.022 133.058 286.022 133.606 286.022 134.153 286.022 135.795 286.022 137.984 286.022 140.173 286.022 141.815 286.022 142.909 286.022 144.004 286.022 144.551 286.022 145.098 286.022 146.193 286.022 148.929 286.022 149.476 286.022 150.024 286.022 150.571 286.022 151.118 286.022 152.213 286.022 152.76 286.022 153.855 286.022 154.949 286.513 154.949 286.513 155.496 286.513 156.044 286.513 156.591 286.513 157.685 286.513 158.78 286.513 160.422 286.513 161.516 286.513 162.611 285.041 162.611 284.06 162.611 283.569 162.611 283.078 162.611 282.588 162.611 281.606 162.611 281.116 162.611 280.135 162.611 279.644 162.611 279.153 162.611 278.172 162.611 277.191 162.611 275.719 162.611 275.228 162.611 274.738 162.611 274.247 162.611 273.266 162.611 272.775 162.611 271.303 162.611 270.813 162.611 270.322 162.611 269.831 162.611 268.85 162.611 267.869 162.611 267.378 162.611 265.906 162.064 264.925 162.064 264.434 162.064 263.944 162.064 263.453 162.064 262.963 162.064 262.472 162.064 261.981 162.064 261.491 162.064 261 162.064 260.509 162.064 260.019 162.064 259.038 162.064 258.547 162.064 257.566 162.064 257.075 162.064 256.584 162.064 256.094 162.064 255.113 162.064 254.131 162.064 253.641 162.064 252.659 162.064 252.169 162.064 250.697 162.064 249.225 162.064 248.244 162.064 246.281 162.064 245.3 162.064 244.319 162.064 242.356 162.064 240.394 162.064 239.903 162.064 238.431 162.064 236.959 162.064 236.959 161.516 236.959 160.422 236.959 158.78 236.959 157.685 236.959 156.591 236.959 154.949 236.469 154.949 236.469 153.855 236.469 153.307 236.469 152.76 236.469 151.118 236.469 150.024 236.469 149.476 236.469 148.929 236.469 147.835 236.469 147.287 236.469 146.74 236.469 146.193 236.469 145.098 236.469 144.004 236.469 143.457 236.469 142.909 236.469 142.362 236.469 141.815 236.469 141.267 236.469 140.173 236.469 139.626 236.469 139.078 236.469 138.531 236.469 137.984 236.469 137.437 236.469 136.342 236.469 135.795 236.469 135.248 236.469 134.7 236.469 134.153 236.469 133.606 236.469 133.058 236.469 132.511 236.469 131.964 236.469 131.417 236.469 130.869 236.469 127.586 236.469 127.039 236.469 126.491 236.469 125.944 236.469 125.397 237.45 125.397 237.941 125.397 238.922 125.397 240.394 125.397 240.884 125.397 241.375 125.397 241.866 125.397 244.319 125.397 244.809 125.397 246.281 125.397 246.772 125.397 248.244 125.397 249.225 125.397 249.716 125.397 250.206 125.397 250.697 125.397 251.188 125.397 251.678 125.397 252.169 125.397 252.659 125.397 253.15 125.397 254.131 125.397 254.622 125.397 255.603 125.397 256.094 125.397 256.584 125.397 257.566 125.397 258.056 125.397 258.547 125.397 259.038 125.397 259.528 125.397 260.019 124.849 260.509 124.849 260.509 124.302 260.509 123.208 260.509 122.66 260.509 122.113 260.509 121.566 260.509 121.019 260.509 119.924 260.509 119.377 260.509 118.83 260.509 117.735 260.509 117.188 260.509 115.546 260.509 114.999 260.509 114.451 260.509 113.904 260.509 112.81 260.509 112.262 260.509 111.715 260.509 111.168 260.509 110.073 260.509 109.526 260.509 108.979 260.509 107.337 260.509 106.79 260.509 106.242 260.509 105.695" fill="#897044"/><polyline points="260.509 105.695 260.509 106.242 260.509 106.79 260.509 107.337 261 107.337 261.491 107.337 261.491 107.884 261.981 107.884 261.981 108.432 262.472 108.432 262.963 108.432 263.453 108.432 263.453 108.979 263.944 108.979 263.944 108.432 264.434 108.432 264.925 108.432 265.416 108.432 266.397 108.432 266.888 108.432 267.378 108.432 267.869 108.432 268.36 108.432 268.85 108.432 269.341 108.432 269.831 108.432 270.322 108.432 270.813 108.432 271.303 108.432 271.794 108.432 272.285 108.979 272.775 109.526 273.266 110.073 273.266 110.621 273.756 111.168 274.247 111.168 274.247 111.715 274.738 111.715 274.738 112.262 275.228 112.262 275.719 112.262 275.719 112.81 276.21 113.357 276.21 113.904 276.7 113.904 276.7 114.451 277.191 114.451 277.681 114.451 278.172 114.451 278.172 114.999 278.663 114.999 278.663 115.546 279.153 115.546 279.153 116.093 279.644 116.093 279.644 116.641 279.644 117.188 279.153 117.188 279.644 117.188 279.644 117.735 280.135 117.735 280.135 118.282 280.135 118.83 280.625 118.83 280.625 119.377 281.116 119.377 281.606 119.377 281.606 119.924 281.116 119.924 281.116 120.471 281.116 121.019 281.606 121.019 282.097 121.019 282.097 121.566 282.588 122.113 283.078 122.113 283.569 122.66 284.06 123.208 284.55 123.755 285.041 124.302 285.531 124.849 286.022 124.849 286.022 125.944 286.022 126.491 286.022 129.228 286.022 132.511 286.022 133.058 286.022 133.606 286.022 134.153 286.022 135.795 286.022 137.984 286.022 140.173 286.022 141.815 286.022 142.909 286.022 144.004 286.022 144.551 286.022 145.098 286.022 146.193 286.022 148.929 286.022 149.476 286.022 150.024 286.022 150.571 286.022 151.118 286.022 152.213 286.022 152.76 286.022 153.855 286.022 154.949 286.513 154.949 286.513 155.496 286.513 156.044 286.513 156.591 286.513 157.685 286.513 158.78 286.513 160.422 286.513 161.516 286.513 162.611 285.041 162.611 284.06 162.611 283.569 162.611 283.078 162.611 282.588 162.611 281.606 162.611 281.116 162.611 280.135 162.611 279.644 162.611 279.153 162.611 278.172 162.611 277.191 162.611 275.719 162.611 275.228 162.611 274.738 162.611 274.247 162.611 273.266 162.611 272.775 162.611 271.303 162.611 270.813 162.611 270.322 162.611 269.831 162.611 268.85 162.611 267.869 162.611 267.378 162.611 265.906 162.064 264.925 162.064 264.434 162.064 263.944 162.064 263.453 162.064 262.963 162.064 262.472 162.064 261.981 162.064 261.491 162.064 261 162.064 260.509 162.064 260.019 162.064 259.038 162.064 258.547 162.064 257.566 162.064 257.075 162.064 256.584 162.064 256.094 162.064 255.113 162.064 254.131 162.064 253.641 162.064 252.659 162.064 252.169 162.064 250.697 162.064 249.225 162.064 248.244 162.064 246.281 162.064 245.3 162.064 244.319 162.064 242.356 162.064 240.394 162.064 239.903 162.064 238.431 162.064 236.959 162.064 236.959 161.516 236.959 160.422 236.959 158.78 236.959 157.685 236.959 156.591 236.959 154.949 236.469 154.949 236.469 153.855 236.469 153.307 236.469 152.76 236.469 151.118 236.469 150.024 236.469 149.476 236.469 148.929 236.469 147.835 236.469 147.287 236.469 146.74 236.469 146.193 236.469 145.098 236.469 144.004 236.469 143.457 236.469 142.909 236.469 142.362 236.469 141.815 236.469 141.267 236.469 140.173 236.469 139.626 236.469 139.078 236.469 138.531 236.469 137.984 236.469 137.437 236.469 136.342 236.469 135.795 236.469 135.248 236.469 134.7 236.469 134.153 236.469 133.606 236.469 133.058 236.469 132.511 236.469 131.964 236.469 131.417 236.469 130.869 236.469 127.586 236.469 127.039 236.469 126.491 236.469 125.944 236.469 125.397 237.45 125.397 237.941 125.397 238.922 125.397 240.394 125.397 240.884 125.397 241.375 125.397 241.866 125.397 244.319 125.397 244.809 125.397 246.281 125.397 246.772 125.397 248.244 125.397 249.225 125.397 249.716 125.397 250.206 125.397 250.697 125.397 251.188 125.397 251.678 125.397 252.169 125.397 252.659 125.397 253.15 125.397 254.131 125.397 254.622 125.397 255.603 125.397 256.094 125.397 256.584 125.397 257.566 125.397 258.056 125.397 258.547 125.397 259.038 125.397 259.528 125.397 260.019 124.849 260.509 124.849 260.509 124.302 260.509 123.208 260.509 122.66 260.509 122.113 260.509 121.566 260.509 121.019 260.509 119.924 260.509 119.377 260.509 118.83 260.509 117.735 260.509 117.188 260.509 115.546 260.509 114.999 260.509 114.451 260.509 113.904 260.509 112.81 260.509 112.262 260.509 111.715 260.509 111.168 260.509 110.073 260.509 109.526 260.509 108.979 260.509 107.337 260.509 106.79 260.509 106.242 260.509 105.695" fill="none" stroke="#fff" stroke-linecap="round" stroke-linejoin="round" stroke-width="1.08"/><polygon points="433.21 125.397 433.701 125.397 434.192 125.397 434.192 125.944 434.682 125.944 435.173 125.944 435.664 125.944 436.154 125.944 436.645 125.944 437.135 125.944 437.626 125.944 438.117 125.944 438.607 125.944 439.098 125.944 439.589 125.944 440.079 125.944 440.57 125.944 441.06 125.944 441.06 125.397 441.551 125.397 442.042 125.397 442.532 125.397 442.532 124.849 443.023 124.849 443.514 124.849 444.004 124.849 444.495 124.849 444.985 125.397 444.985 125.944 445.476 125.944 445.967 126.491 446.457 127.039 445.967 127.039 445.967 127.586 445.967 128.133 445.476 128.133 445.476 128.68 444.985 128.68 444.495 128.68 444.004 128.68 443.514 128.68 443.023 128.68 443.023 129.228 442.532 129.228 442.042 129.228 442.042 129.775 441.551 129.775 441.551 130.322 441.06 130.322 440.57 130.322 440.079 130.322 439.589 130.322 439.098 130.322 438.607 130.322 438.117 130.869 437.626 130.869 437.626 131.417 437.135 131.417 437.135 131.964 436.645 131.964 436.645 132.511 435.664 132.511 435.173 132.511 435.173 133.058 435.173 133.606 435.173 134.153 435.173 134.7 435.173 135.248 435.173 135.795 435.173 136.342 435.173 136.889 435.173 137.984 435.173 139.078 435.173 140.173 435.173 141.267 435.173 142.362 435.173 144.004 435.173 144.551 435.173 145.646 435.173 146.193 435.173 146.74 435.173 147.287 435.173 147.835 435.664 147.835 436.154 147.835 436.645 147.835 437.135 147.835 437.626 147.835 438.607 147.835 439.098 147.835 440.079 147.835 440.57 147.835 441.06 147.835 441.551 147.835 442.042 147.835 442.532 147.835 443.514 147.835 443.514 148.382 443.514 148.929 443.514 149.476 443.514 150.024 443.514 150.571 443.514 151.665 443.514 152.76 443.514 153.307 443.514 153.855 443.514 154.402 443.514 154.949 442.042 154.949 441.551 154.949 441.06 154.949 440.57 154.949 440.079 154.949 439.589 154.949 439.098 154.949 437.626 154.949 436.645 154.949 435.173 154.949 434.682 154.949 434.192 154.949 433.701 154.949 432.229 154.949 431.739 154.949 430.757 154.949 429.776 154.949 429.285 154.949 428.304 154.949 427.813 154.949 427.323 154.949 426.832 154.949 426.832 156.044 426.832 156.591 426.832 157.685 426.832 158.233 426.832 158.78 426.832 159.327 426.832 160.422 426.832 161.516 426.832 162.064 426.832 162.611 425.851 162.611 425.36 162.611 424.379 162.611 423.888 162.611 422.907 162.611 422.417 162.611 421.435 162.611 420.945 162.611 420.454 162.611 419.963 162.611 418.982 162.611 418.492 162.611 418.001 162.611 417.51 162.611 417.02 162.611 416.529 162.611 415.548 162.611 415.057 162.611 414.567 162.611 413.585 162.611 413.095 162.611 412.604 162.611 412.113 162.611 411.623 162.611 411.132 162.611 410.642 162.611 410.151 162.611 410.151 162.064 409.66 162.064 408.679 162.064 407.698 162.064 406.717 162.064 406.226 162.064 405.735 162.064 404.754 162.064 404.263 162.064 403.773 162.064 403.282 162.064 402.301 162.064 401.81 162.064 401.81 161.516 401.81 160.969 401.81 159.874 401.81 159.327 401.81 158.78 401.81 157.685 401.81 157.138 401.81 156.591 401.81 155.496 401.81 154.949 401.81 154.402 401.81 153.855 401.81 152.76 401.81 152.213 401.81 151.665 401.81 151.118 401.81 150.571 401.81 150.024 401.81 148.929 401.81 147.835 401.81 147.287 401.81 146.74 401.81 145.098 401.81 144.551 401.81 144.004 401.81 143.457 401.81 142.909 401.81 142.362 401.81 141.267 401.81 140.173 401.81 139.626 401.81 139.078 401.81 137.984 401.81 136.889 401.81 136.342 401.81 135.795 401.81 135.248 401.81 134.153 401.81 133.058 401.81 132.511 401.81 131.964 401.81 131.417 401.81 130.322 401.81 129.228 401.81 128.133 401.81 127.586 401.81 126.491 401.81 125.397 402.301 125.397 403.282 125.397 403.773 125.397 404.754 125.397 405.245 125.397 405.735 125.397 406.226 125.397 407.207 125.397 408.679 125.397 409.66 125.397 410.151 125.397 410.642 125.397 411.132 125.397 411.623 125.397 412.604 125.397 413.095 125.397 414.567 125.397 415.057 125.397 415.548 125.397 416.038 125.397 416.529 125.397 417.02 125.397 418.492 125.397 419.963 125.397 421.435 125.397 421.926 125.397 422.907 125.397 423.398 125.397 423.888 125.397 424.379 125.397 424.87 125.397 425.36 125.397 425.851 125.397 426.832 125.397 427.323 125.397 427.813 125.397 428.304 125.397 429.285 125.397 429.776 125.397 431.248 125.397 431.739 125.397 432.229 125.397 432.72 125.397 433.21 125.397" fill="#897044"/><polyline points="433.21 125.397 433.701 125.397 434.192 125.397 434.192 125.944 434.682 125.944 435.173 125.944 435.664 125.944 436.154 125.944 436.645 125.944 437.135 125.944 437.626 125.944 438.117 125.944 438.607 125.944 439.098 125.944 439.589 125.944 440.079 125.944 440.57 125.944 441.06 125.944 441.06 125.397 441.551 125.397 442.042 125.397 442.532 125.397 442.532 124.849 443.023 124.849 443.514 124.849 444.004 124.849 444.495 124.849 444.985 125.397 444.985 125.944 445.476 125.944 445.967 126.491 446.457 127.039 445.967 127.039 445.967 127.586 445.967 128.133 445.476 128.133 445.476 128.68 444.985 128.68 444.495 128.68 444.004 128.68 443.514 128.68 443.023 128.68 443.023 129.228 442.532 129.228 442.042 129.228 442.042 129.775 441.551 129.775 441.551 130.322 441.06 130.322 440.57 130.322 440.079 130.322 439.589 130.322 439.098 130.322 438.607 130.322 438.117 130.869 437.626 130.869 437.626 131.417 437.135 131.417 437.135 131.964 436.645 131.964 436.645 132.511 435.664 132.511 435.173 132.511 435.173 133.058 435.173 133.606 435.173 134.153 435.173 134.7 435.173 135.248 435.173 135.795 435.173 136.342 435.173 136.889 435.173 137.984 435.173 139.078 435.173 140.173 435.173 141.267 435.173 142.362 435.173 144.004 435.173 144.551 435.173 145.646 435.173 146.193 435.173 146.74 435.173 147.287 435.173 147.835 435.664 147.835 436.154 147.835 436.645 147.835 437.135 147.835 437.626 147.835 438.607 147.835 439.098 147.835 440.079 147.835 440.57 147.835 441.06 147.835 441.551 147.835 442.042 147.835 442.532 147.835 443.514 147.835 443.514 148.382 443.514 148.929 443.514 149.476 443.514 150.024 443.514 150.571 443.514 151.665 443.514 152.76 443.514 153.307 443.514 153.855 443.514 154.402 443.514 154.949 442.042 154.949 441.551 154.949 441.06 154.949 440.57 154.949 440.079 154.949 439.589 154.949 439.098 154.949 437.626 154.949 436.645 154.949 435.173 154.949 434.682 154.949 434.192 154.949 433.701 154.949 432.229 154.949 431.739 154.949 430.757 154.949 429.776 154.949 429.285 154.949 428.304 154.949 427.813 154.949 427.323 154.949 426.832 154.949 426.832 156.044 426.832 156.591 426.832 157.685 426.832 158.233 426.832 158.78 426.832 159.327 426.832 160.422 426.832 161.516 426.832 162.064 426.832 162.611 425.851 162.611 425.36 162.611 424.379 162.611 423.888 162.611 422.907 162.611 422.417 162.611 421.435 162.611 420.945 162.611 420.454 162.611 419.963 162.611 418.982 162.611 418.492 162.611 418.001 162.611 417.51 162.611 417.02 162.611 416.529 162.611 415.548 162.611 415.057 162.611 414.567 162.611 413.585 162.611 413.095 162.611 412.604 162.611 412.113 162.611 411.623 162.611 411.132 162.611 410.642 162.611 410.151 162.611 410.151 162.064 409.66 162.064 408.679 162.064 407.698 162.064 406.717 162.064 406.226 162.064 405.735 162.064 404.754 162.064 404.263 162.064 403.773 162.064 403.282 162.064 402.301 162.064 401.81 162.064 401.81 161.516 401.81 160.969 401.81 159.874 401.81 159.327 401.81 158.78 401.81 157.685 401.81 157.138 401.81 156.591 401.81 155.496 401.81 154.949 401.81 154.402 401.81 153.855 401.81 152.76 401.81 152.213 401.81 151.665 401.81 151.118 401.81 150.571 401.81 150.024 401.81 148.929 401.81 147.835 401.81 147.287 401.81 146.74 401.81 145.098 401.81 144.551 401.81 144.004 401.81 143.457 401.81 142.909 401.81 142.362 401.81 141.267 401.81 140.173 401.81 139.626 401.81 139.078 401.81 137.984 401.81 136.889 401.81 136.342 401.81 135.795 401.81 135.248 401.81 134.153 401.81 133.058 401.81 132.511 401.81 131.964 401.81 131.417 401.81 130.322 401.81 129.228 401.81 128.133 401.81 127.586 401.81 126.491 401.81 125.397 402.301 125.397 403.282 125.397 403.773 125.397 404.754 125.397 405.245 125.397 405.735 125.397 406.226 125.397 407.207 125.397 408.679 125.397 409.66 125.397 410.151 125.397 410.642 125.397 411.132 125.397 411.623 125.397 412.604 125.397 413.095 125.397 414.567 125.397 415.057 125.397 415.548 125.397 416.038 125.397 416.529 125.397 417.02 125.397 418.492 125.397 419.963 125.397 421.435 125.397 421.926 125.397 422.907 125.397 423.398 125.397 423.888 125.397 424.379 125.397 424.87 125.397 425.36 125.397 425.851 125.397 426.832 125.397 427.323 125.397 427.813 125.397 428.304 125.397 429.285 125.397 429.776 125.397 431.248 125.397 431.739 125.397 432.229 125.397 432.72 125.397 433.21 125.397" fill="none" stroke="#fff" stroke-linecap="round" stroke-linejoin="round" stroke-width="1.08"/><polygon points="401.81 125.397 401.81 126.491 401.81 127.586 401.81 128.133 401.81 129.228 401.81 130.322 401.81 131.417 401.81 131.964 401.81 132.511 401.81 133.058 401.81 134.153 401.81 135.248 401.81 135.795 401.81 136.342 401.81 136.889 401.81 137.984 401.81 139.078 401.81 139.626 401.81 140.173 401.81 141.267 401.81 142.362 401.81 142.909 401.81 143.457 401.81 144.004 401.81 144.551 401.81 145.098 401.81 146.74 401.81 147.287 401.81 147.835 401.81 148.929 401.81 150.024 401.81 150.571 401.81 151.118 401.81 151.665 401.81 152.213 401.81 152.76 401.81 153.855 401.81 154.402 401.81 154.949 401.81 155.496 401.81 156.591 401.81 157.138 401.81 157.685 401.81 158.78 401.81 159.327 401.81 159.874 401.81 160.969 401.81 161.516 401.81 162.064 401.32 162.064 400.829 162.064 399.848 162.064 399.357 162.064 398.866 162.064 396.904 162.064 396.413 162.064 394.941 162.064 394.451 162.064 393.96 162.064 392.488 162.064 391.998 162.064 391.507 162.064 391.016 162.064 389.545 162.064 389.054 162.064 388.563 162.064 388.073 162.064 387.582 162.064 386.601 162.064 386.11 162.064 385.62 162.064 385.129 162.064 384.638 162.064 384.148 162.064 383.166 162.064 382.676 162.064 382.185 162.064 381.694 162.064 381.204 162.064 380.713 162.064 379.732 162.064 379.241 162.064 378.751 162.064 378.26 162.064 377.279 162.064 376.788 162.064 376.298 162.064 375.807 162.064 374.335 162.064 373.844 162.064 373.354 162.064 372.863 162.064 371.882 162.064 371.391 162.064 370.41 162.064 369.919 162.064 369.429 162.064 368.938 162.064 368.448 162.064 367.957 162.064 367.466 162.064 366.485 162.064 365.994 162.064 365.504 162.064 365.013 162.064 364.523 162.064 364.032 162.064 363.541 162.064 363.051 162.064 362.069 162.064 361.088 162.064 360.597 162.064 360.107 162.064 359.126 162.064 358.635 162.064 358.144 162.064 357.654 162.064 356.673 162.064 355.201 162.064 354.71 162.064 354.219 162.064 353.729 162.064 353.238 162.064 352.747 162.064 352.257 162.064 352.257 161.516 352.257 160.969 352.257 160.422 352.257 159.874 352.257 158.78 352.257 157.685 352.257 157.138 352.257 156.591 352.257 154.949 352.257 154.402 352.257 153.855 352.257 153.307 352.257 152.76 352.257 152.213 352.257 151.665 352.257 151.118 352.257 150.571 352.257 150.024 352.257 148.929 352.257 148.382 352.257 147.835 352.257 147.287 352.257 146.193 352.257 145.098 352.257 144.551 352.257 144.004 352.257 143.457 352.257 142.909 352.257 141.267 352.257 140.72 352.257 140.173 352.257 139.078 352.257 138.531 352.257 137.984 352.257 136.889 352.257 136.342 352.257 135.795 352.257 135.248 352.257 134.153 352.257 133.606 352.257 133.058 352.257 132.511 352.257 131.964 352.257 131.417 352.257 130.322 352.257 129.775 352.257 129.228 352.257 128.68 352.257 128.133 352.257 127.586 352.257 127.039 352.257 126.491 352.257 125.397 353.238 125.397 353.729 125.397 354.219 125.397 354.71 125.397 355.201 125.397 355.691 125.397 356.182 125.397 357.163 125.397 357.654 125.397 358.144 125.397 358.635 125.397 359.126 125.397 359.616 125.397 360.107 125.397 360.597 125.397 361.088 125.397 361.579 125.397 362.069 125.397 363.051 125.397 363.541 125.397 364.523 125.397 365.013 125.397 365.994 125.397 366.976 125.397 367.466 125.397 368.448 125.397 368.938 125.397 369.919 125.397 370.41 125.397 371.391 125.397 372.373 125.397 372.863 125.397 373.844 125.397 374.335 125.397 375.316 125.397 375.807 125.397 376.298 125.397 376.788 125.397 377.279 125.397 377.769 125.397 378.26 125.397 379.732 125.397 381.204 125.397 382.676 125.397 383.657 125.397 384.148 125.397 384.638 125.397 385.129 125.397 385.62 125.397 386.601 125.397 388.073 125.397 388.563 125.397 389.054 125.397 389.545 125.397 390.526 125.397 391.016 125.397 391.998 125.397 393.47 125.397 394.451 125.397 394.941 125.397 395.432 125.397 395.923 125.397 396.413 125.397 396.904 125.397 397.885 125.397 398.866 125.397 399.357 125.397 400.338 125.397 400.829 125.397 401.81 125.397 401.81 125.397" fill="#897044"/><polyline points="401.81 125.397 401.81 126.491 401.81 127.586 401.81 128.133 401.81 129.228 401.81 130.322 401.81 131.417 401.81 131.964 401.81 132.511 401.81 133.058 401.81 134.153 401.81 135.248 401.81 135.795 401.81 136.342 401.81 136.889 401.81 137.984 401.81 139.078 401.81 139.626 401.81 140.173 401.81 141.267 401.81 142.362 401.81 142.909 401.81 143.457 401.81 144.004 401.81 144.551 401.81 145.098 401.81 146.74 401.81 147.287 401.81 147.835 401.81 148.929 401.81 150.024 401.81 150.571 401.81 151.118 401.81 151.665 401.81 152.213 401.81 152.76 401.81 153.855 401.81 154.402 401.81 154.949 401.81 155.496 401.81 156.591 401.81 157.138 401.81 157.685 401.81 158.78 401.81 159.327 401.81 159.874 401.81 160.969 401.81 161.516 401.81 162.064 401.32 162.064 400.829 162.064 399.848 162.064 399.357 162.064 398.866 162.064 396.904 162.064 396.413 162.064 394.941 162.064 394.451 162.064 393.96 162.064 392.488 162.064 391.998 162.064 391.507 162.064 391.016 162.064 389.545 162.064 389.054 162.064 388.563 162.064 388.073 162.064 387.582 162.064 386.601 162.064 386.11 162.064 385.62 162.064 385.129 162.064 384.638 162.064 384.148 162.064 383.166 162.064 382.676 162.064 382.185 162.064 381.694 162.064 381.204 162.064 380.713 162.064 379.732 162.064 379.241 162.064 378.751 162.064 378.26 162.064 377.279 162.064 376.788 162.064 376.298 162.064 375.807 162.064 374.335 162.064 373.844 162.064 373.354 162.064 372.863 162.064 371.882 162.064 371.391 162.064 370.41 162.064 369.919 162.064 369.429 162.064 368.938 162.064 368.448 162.064 367.957 162.064 367.466 162.064 366.485 162.064 365.994 162.064 365.504 162.064 365.013 162.064 364.523 162.064 364.032 162.064 363.541 162.064 363.051 162.064 362.069 162.064 361.088 162.064 360.597 162.064 360.107 162.064 359.126 162.064 358.635 162.064 358.144 162.064 357.654 162.064 356.673 162.064 355.201 162.064 354.71 162.064 354.219 162.064 353.729 162.064 353.238 162.064 352.747 162.064 352.257 162.064 352.257 161.516 352.257 160.969 352.257 160.422 352.257 159.874 352.257 158.78 352.257 157.685 352.257 157.138 352.257 156.591 352.257 154.949 352.257 154.402 352.257 153.855 352.257 153.307 352.257 152.76 352.257 152.213 352.257 151.665 352.257 151.118 352.257 150.571 352.257 150.024 352.257 148.929 352.257 148.382 352.257 147.835 352.257 147.287 352.257 146.193 352.257 145.098 352.257 144.551 352.257 144.004 352.257 143.457 352.257 142.909 352.257 141.267 352.257 140.72 352.257 140.173 352.257 139.078 352.257 138.531 352.257 137.984 352.257 136.889 352.257 136.342 352.257 135.795 352.257 135.248 352.257 134.153 352.257 133.606 352.257 133.058 352.257 132.511 352.257 131.964 352.257 131.417 352.257 130.322 352.257 129.775 352.257 129.228 352.257 128.68 352.257 128.133 352.257 127.586 352.257 127.039 352.257 126.491 352.257 125.397 353.238 125.397 353.729 125.397 354.219 125.397 354.71 125.397 355.201 125.397 355.691 125.397 356.182 125.397 357.163 125.397 357.654 125.397 358.144 125.397 358.635 125.397 359.126 125.397 359.616 125.397 360.107 125.397 360.597 125.397 361.088 125.397 361.579 125.397 362.069 125.397 363.051 125.397 363.541 125.397 364.523 125.397 365.013 125.397 365.994 125.397 366.976 125.397 367.466 125.397 368.448 125.397 368.938 125.397 369.919 125.397 370.41 125.397 371.391 125.397 372.373 125.397 372.863 125.397 373.844 125.397 374.335 125.397 375.316 125.397 375.807 125.397 376.298 125.397 376.788 125.397 377.279 125.397 377.769 125.397 378.26 125.397 379.732 125.397 381.204 125.397 382.676 125.397 383.657 125.397 384.148 125.397 384.638 125.397 385.129 125.397 385.62 125.397 386.601 125.397 388.073 125.397 388.563 125.397 389.054 125.397 389.545 125.397 390.526 125.397 391.016 125.397 391.998 125.397 393.47 125.397 394.451 125.397 394.941 125.397 395.432 125.397 395.923 125.397 396.413 125.397 396.904 125.397 397.885 125.397 398.866 125.397 399.357 125.397 400.338 125.397 400.829 125.397 401.81 125.397 401.81 125.397" fill="none" stroke="#fff" stroke-linecap="round" stroke-linejoin="round" stroke-width="1.08"/><polygon points="236.469 125.397 236.469 125.944 236.469 126.491 236.469 127.039 236.469 127.586 236.469 130.869 236.469 131.417 236.469 131.964 236.469 132.511 236.469 133.058 236.469 133.606 236.469 134.153 236.469 134.7 236.469 135.248 236.469 135.795 236.469 136.342 236.469 137.437 236.469 137.984 236.469 138.531 236.469 139.078 236.469 139.626 236.469 140.173 236.469 141.267 236.469 141.815 236.469 142.362 236.469 142.909 236.469 143.457 236.469 144.004 236.469 145.098 236.469 146.193 236.469 146.74 236.469 147.287 236.469 147.835 236.469 148.929 236.469 149.476 236.469 150.024 236.469 151.118 236.469 152.76 236.469 153.307 236.469 153.855 236.469 154.949 236.959 154.949 236.959 156.591 236.959 157.685 236.959 158.78 236.959 160.422 236.959 161.516 236.959 162.064 238.431 162.064 239.903 162.064 240.394 162.064 242.356 162.064 244.319 162.064 245.3 162.064 246.281 162.064 248.244 162.064 249.225 162.064 250.697 162.064 252.169 162.064 252.659 162.064 253.641 162.064 253.641 162.611 253.641 163.158 253.641 163.705 253.641 164.8 253.641 165.347 253.641 166.989 253.641 167.536 253.641 168.083 253.641 168.631 253.641 169.178 253.641 170.273 253.641 170.82 253.641 171.914 253.641 173.009 253.641 173.556 253.641 174.651 253.641 175.198 253.15 175.198 252.659 175.198 252.169 175.198 251.678 175.198 251.188 175.198 250.697 175.198 250.206 175.198 249.716 175.745 249.225 175.745 248.734 175.745 248.244 175.745 247.753 175.745 247.753 176.292 247.263 176.292 247.263 176.84 246.772 177.387 246.281 177.387 245.791 177.387 245.3 177.934 244.809 177.934 244.809 178.482 244.319 179.029 244.319 179.576 244.319 180.123 243.828 180.671 243.828 181.218 243.828 181.765 243.338 182.312 243.338 182.86 242.847 182.86 242.356 183.407 241.866 183.954 241.375 184.501 240.884 185.049 240.394 185.049 240.394 185.596 240.394 186.143 240.884 186.143 240.394 186.143 240.394 186.69 240.394 187.238 239.903 187.238 239.903 187.785 239.903 188.332 239.413 188.332 238.922 188.332 238.431 188.332 237.941 188.332 237.45 188.88 236.959 188.88 236.469 188.88 236.469 189.427 235.978 189.427 235.487 189.427 235.487 189.974 234.997 189.974 234.506 189.974 234.016 189.974 233.525 189.974 233.525 189.427 233.034 189.427 232.544 189.427 232.053 189.427 231.562 188.88 231.562 189.427 230.581 189.427 230.091 188.88 229.6 188.88 229.109 188.88 228.619 188.88 228.128 188.332 227.637 188.332 227.147 188.332 227.147 187.785 226.656 187.785 226.656 187.238 226.166 187.238 225.675 186.69 225.184 186.69 224.694 186.69 224.203 186.69 223.712 186.69 223.712 186.143 223.222 186.143 222.731 185.596 222.731 185.049 222.241 185.049 222.241 184.501 221.75 184.501 221.259 183.954 221.259 183.407 221.259 182.86 220.769 182.86 220.769 182.312 220.278 182.312 220.769 181.765 220.769 181.218 220.769 180.671 220.769 180.123 220.769 179.576 221.259 179.029 221.259 178.482 220.769 177.934 220.769 177.387 220.769 176.84 220.769 176.292 220.278 176.292 219.787 175.745 219.297 175.745 218.806 175.745 218.316 175.745 217.825 175.745 217.334 175.745 216.844 176.292 216.353 176.84 215.862 177.387 215.372 177.387 214.881 177.387 214.39 177.387 213.9 177.387 213.9 177.934 213.9 178.482 213.409 178.482 213.409 179.029 212.919 179.029 212.919 179.576 212.919 180.123 212.428 180.123 212.428 180.671 212.919 180.671 212.919 181.218 213.409 181.765 212.919 182.312 212.919 182.86 212.428 182.86 211.937 182.86 211.937 183.407 211.937 183.954 211.447 183.954 210.956 183.954 210.465 184.501 209.975 184.501 209.484 184.501 209.484 185.049 208.994 185.049 208.503 185.049 208.503 185.596 208.012 186.143 207.522 186.143 207.031 186.143 206.54 186.143 206.05 186.69 206.05 186.143 206.05 182.86 206.05 180.671 206.05 180.123 206.05 179.029 206.05 177.387 206.05 176.84 206.05 176.292 206.05 175.745 206.05 175.198 206.05 174.103 206.05 172.462 206.05 171.914 206.05 171.367 206.05 170.82 206.05 170.273 206.05 168.631 206.05 167.536 206.05 165.347 206.05 162.064 206.05 160.422 206.05 159.874 206.05 159.327 206.05 158.78 206.05 158.233 206.05 157.685 206.05 157.138 206.05 156.044 206.05 155.496 206.05 154.949 206.05 153.855 206.05 152.76 206.05 152.213 206.05 150.024 206.05 148.382 206.05 147.835 206.05 146.74 206.05 146.193 206.05 145.646 206.05 145.098 206.05 144.551 206.05 144.004 206.05 142.909 206.05 142.362 206.05 141.267 206.05 140.173 206.05 139.078 206.05 138.531 206.05 135.795 206.05 135.248 206.05 133.606 206.05 133.058 205.559 133.606 205.559 133.058 205.559 132.511 205.559 131.964 205.559 131.417 205.559 130.869 205.559 130.322 205.559 129.775 205.559 129.228 205.559 128.133 205.559 127.586 205.559 126.491 205.559 125.944 205.559 125.397 206.05 125.397 207.522 125.397 208.012 125.397 208.503 125.397 209.484 125.397 209.975 125.397 210.956 125.397 211.447 125.397 212.428 125.397 212.919 125.397 213.409 125.397 213.9 125.397 214.39 125.397 214.881 125.397 215.372 125.397 216.353 125.397 216.844 125.397 217.334 125.397 218.316 125.397 219.297 125.397 219.787 125.397 220.769 125.397 221.259 125.397 222.731 125.397 223.222 125.397 223.712 125.397 224.203 125.397 224.694 125.397 225.184 125.397 225.675 125.397 226.166 125.397 226.656 125.397 227.147 125.397 227.637 125.397 228.619 125.397 229.6 125.397 230.091 125.397 230.581 125.397 231.072 125.397 231.562 125.397 232.053 125.397 233.034 125.397 233.525 125.397 234.016 125.397 234.997 125.397 236.469 125.397" fill="#897044"/><polyline points="236.469 125.397 236.469 125.944 236.469 126.491 236.469 127.039 236.469 127.586 236.469 130.869 236.469 131.417 236.469 131.964 236.469 132.511 236.469 133.058 236.469 133.606 236.469 134.153 236.469 134.7 236.469 135.248 236.469 135.795 236.469 136.342 236.469 137.437 236.469 137.984 236.469 138.531 236.469 139.078 236.469 139.626 236.469 140.173 236.469 141.267 236.469 141.815 236.469 142.362 236.469 142.909 236.469 143.457 236.469 144.004 236.469 145.098 236.469 146.193 236.469 146.74 236.469 147.287 236.469 147.835 236.469 148.929 236.469 149.476 236.469 150.024 236.469 151.118 236.469 152.76 236.469 153.307 236.469 153.855 236.469 154.949 236.959 154.949 236.959 156.591 236.959 157.685 236.959 158.78 236.959 160.422 236.959 161.516 236.959 162.064 238.431 162.064 239.903 162.064 240.394 162.064 242.356 162.064 244.319 162.064 245.3 162.064 246.281 162.064 248.244 162.064 249.225 162.064 250.697 162.064 252.169 162.064 252.659 162.064 253.641 162.064 253.641 162.611 253.641 163.158 253.641 163.705 253.641 164.8 253.641 165.347 253.641 166.989 253.641 167.536 253.641 168.083 253.641 168.631 253.641 169.178 253.641 170.273 253.641 170.82 253.641 171.914 253.641 173.009 253.641 173.556 253.641 174.651 253.641 175.198 253.15 175.198 252.659 175.198 252.169 175.198 251.678 175.198 251.188 175.198 250.697 175.198 250.206 175.198 249.716 175.745 249.225 175.745 248.734 175.745 248.244 175.745 247.753 175.745 247.753 176.292 247.263 176.292 247.263 176.84 246.772 177.387 246.281 177.387 245.791 177.387 245.3 177.934 244.809 177.934 244.809 178.482 244.319 179.029 244.319 179.576 244.319 180.123 243.828 180.671 243.828 181.218 243.828 181.765 243.338 182.312 243.338 182.86 242.847 182.86 242.356 183.407 241.866 183.954 241.375 184.501 240.884 185.049 240.394 185.049 240.394 185.596 240.394 186.143 240.884 186.143 240.394 186.143 240.394 186.69 240.394 187.238 239.903 187.238 239.903 187.785 239.903 188.332 239.413 188.332 238.922 188.332 238.431 188.332 237.941 188.332 237.45 188.88 236.959 188.88 236.469 188.88 236.469 189.427 235.978 189.427 235.487 189.427 235.487 189.974 234.997 189.974 234.506 189.974 234.016 189.974 233.525 189.974 233.525 189.427 233.034 189.427 232.544 189.427 232.053 189.427 231.562 188.88 231.562 189.427 230.581 189.427 230.091 188.88 229.6 188.88 229.109 188.88 228.619 188.88 228.128 188.332 227.637 188.332 227.147 188.332 227.147 187.785 226.656 187.785 226.656 187.238 226.166 187.238 225.675 186.69 225.184 186.69 224.694 186.69 224.203 186.69 223.712 186.69 223.712 186.143 223.222 186.143 222.731 185.596 222.731 185.049 222.241 185.049 222.241 184.501 221.75 184.501 221.259 183.954 221.259 183.407 221.259 182.86 220.769 182.86 220.769 182.312 220.278 182.312 220.769 181.765 220.769 181.218 220.769 180.671 220.769 180.123 220.769 179.576 221.259 179.029 221.259 178.482 220.769 177.934 220.769 177.387 220.769 176.84 220.769 176.292 220.278 176.292 219.787 175.745 219.297 175.745 218.806 175.745 218.316 175.745 217.825 175.745 217.334 175.745 216.844 176.292 216.353 176.84 215.862 177.387 215.372 177.387 214.881 177.387 214.39 177.387 213.9 177.387 213.9 177.934 213.9 178.482 213.409 178.482 213.409 179.029 212.919 179.029 212.919 179.576 212.919 180.123 212.428 180.123 212.428 180.671 212.919 180.671 212.919 181.218 213.409 181.765 212.919 182.312 212.919 182.86 212.428 182.86 211.937 182.86 211.937 183.407 211.937 183.954 211.447 183.954 210.956 183.954 210.465 184.501 209.975 184.501 209.484 184.501 209.484 185.049 208.994 185.049 208.503 185.049 208.503 185.596 208.012 186.143 207.522 186.143 207.031 186.143 206.54 186.143 206.05 186.69 206.05 186.143 206.05 182.86 206.05 180.671 206.05 180.123 206.05 179.029 206.05 177.387 206.05 176.84 206.05 176.292 206.05 175.745 206.05 175.198 206.05 174.103 206.05 172.462 206.05 171.914 206.05 171.367 206.05 170.82 206.05 170.273 206.05 168.631 206.05 167.536 206.05 165.347 206.05 162.064 206.05 160.422 206.05 159.874 206.05 159.327 206.05 158.78 206.05 158.233 206.05 157.685 206.05 157.138 206.05 156.044 206.05 155.496 206.05 154.949 206.05 153.855 206.05 152.76 206.05 152.213 206.05 150.024 206.05 148.382 206.05 147.835 206.05 146.74 206.05 146.193 206.05 145.646 206.05 145.098 206.05 144.551 206.05 144.004 206.05 142.909 206.05 142.362 206.05 141.267 206.05 140.173 206.05 139.078 206.05 138.531 206.05 135.795 206.05 135.248 206.05 133.606 206.05 133.058 205.559 133.606 205.559 133.058 205.559 132.511 205.559 131.964 205.559 131.417 205.559 130.869 205.559 130.322 205.559 129.775 205.559 129.228 205.559 128.133 205.559 127.586 205.559 126.491 205.559 125.944 205.559 125.397 206.05 125.397 207.522 125.397 208.012 125.397 208.503 125.397 209.484 125.397 209.975 125.397 210.956 125.397 211.447 125.397 212.428 125.397 212.919 125.397 213.409 125.397 213.9 125.397 214.39 125.397 214.881 125.397 215.372 125.397 216.353 125.397 216.844 125.397 217.334 125.397 218.316 125.397 219.297 125.397 219.787 125.397 220.769 125.397 221.259 125.397 222.731 125.397 223.222 125.397 223.712 125.397 224.203 125.397 224.694 125.397 225.184 125.397 225.675 125.397 226.166 125.397 226.656 125.397 227.147 125.397 227.637 125.397 228.619 125.397 229.6 125.397 230.091 125.397 230.581 125.397 231.072 125.397 231.562 125.397 232.053 125.397 233.034 125.397 233.525 125.397 234.016 125.397 234.997 125.397 236.469 125.397" fill="none" stroke="#fff" stroke-linecap="round" stroke-linejoin="round" stroke-width="1.08"/><polygon points="352.257 136.342 352.257 136.889 352.257 137.984 352.257 138.531 352.257 139.078 352.257 140.173 352.257 140.72 352.257 141.267 352.257 142.909 352.257 143.457 352.257 144.004 352.257 144.551 352.257 145.098 352.257 146.193 352.257 147.287 352.257 147.835 352.257 148.382 352.257 148.929 352.257 150.024 352.257 150.571 352.257 151.118 352.257 151.665 352.257 152.213 352.257 152.76 352.257 153.307 352.257 153.855 352.257 154.402 352.257 154.949 352.257 156.591 352.257 157.138 352.257 157.685 352.257 158.78 352.257 159.874 352.257 160.422 352.257 160.969 352.257 161.516 352.257 162.064 350.785 162.064 349.804 162.064 349.313 162.064 348.822 162.064 348.332 162.064 347.351 162.064 345.879 162.064 344.897 162.064 343.916 162.064 343.426 162.064 342.935 162.064 342.444 162.064 341.954 162.064 341.463 162.064 340.972 162.064 340.482 162.064 339.991 162.064 339.01 162.064 338.519 162.064 338.029 162.064 337.538 162.064 337.047 162.064 336.066 162.064 334.594 162.064 334.104 162.064 333.122 162.064 331.65 162.064 331.16 162.064 330.179 162.064 329.197 162.064 328.216 162.064 326.744 162.064 326.254 162.064 325.763 162.064 324.782 162.064 323.31 162.064 322.819 162.064 321.838 162.064 320.857 162.064 320.366 162.064 319.385 162.064 318.894 162.064 317.913 162.064 316.441 162.064 315.46 162.064 313.988 162.064 312.516 162.064 312.025 162.064 311.044 162.064 309.572 162.064 309.082 162.064 308.591 162.064 307.119 162.064 304.175 162.064 302.213 162.064 301.722 162.611 300.741 162.611 298.778 162.611 297.797 162.611 297.307 162.611 296.325 162.611 294.363 162.611 293.872 162.611 293.382 162.611 292.891 162.611 291.419 162.611 290.928 162.611 290.438 162.611 289.947 162.611 289.457 162.611 288.966 162.611 288.475 162.611 287.985 162.611 286.513 162.611 286.513 161.516 286.513 160.422 286.513 158.78 286.513 157.685 286.513 156.591 286.513 156.044 286.513 155.496 286.513 154.949 286.022 154.949 286.022 153.855 286.022 152.76 286.022 152.213 286.022 151.118 286.022 150.571 286.022 150.024 286.022 149.476 286.022 148.929 286.022 146.193 286.022 145.098 286.022 144.551 286.022 144.004 286.022 142.909 286.022 141.815 286.022 140.173 286.022 137.984 286.022 135.795 286.022 134.153 286.022 133.606 286.022 133.058 286.022 132.511 287.494 132.511 287.985 132.511 288.966 132.511 290.928 132.511 292.4 132.511 292.891 132.511 294.363 132.511 295.344 132.511 295.835 133.058 295.835 133.606 295.835 134.153 296.325 134.153 296.325 134.7 296.816 135.248 297.307 135.795 297.797 136.889 298.288 136.889 298.778 136.889 299.269 137.437 299.76 137.437 300.25 137.984 301.232 137.984 301.722 137.984 302.213 137.984 302.703 137.984 303.685 137.984 304.175 137.984 304.666 137.984 304.666 138.531 305.647 140.173 306.138 140.173 306.138 140.72 306.628 140.72 307.119 140.72 307.61 141.267 308.1 141.267 308.591 141.267 309.082 141.267 310.063 141.815 310.553 141.815 310.553 142.362 311.535 142.362 312.025 142.362 312.516 142.362 313.007 142.909 313.497 142.909 313.988 142.909 314.479 142.362 314.969 142.362 315.46 142.362 315.95 142.362 316.441 141.815 316.932 141.815 317.422 141.815 317.913 141.815 318.404 141.815 319.385 142.362 319.385 141.267 319.385 139.078 319.385 138.531 319.385 137.984 319.385 136.342 320.366 136.342 320.857 136.342 321.838 136.342 322.329 136.342 323.31 136.342 323.8 136.342 324.291 136.342 324.782 136.342 325.272 136.342 326.254 136.342 327.235 136.342 328.707 136.342 329.197 136.342 330.179 136.342 330.669 136.342 331.16 136.342 331.65 136.342 332.141 136.342 332.632 136.342 333.122 136.342 333.613 136.342 334.104 136.342 335.085 136.342 335.576 136.342 336.557 136.342 337.047 136.342 337.538 136.342 338.029 136.342 338.519 136.342 339.01 136.342 339.501 136.342 339.991 136.342 340.482 136.342 340.972 136.342 341.463 136.342 342.444 136.342 342.935 136.342 343.426 136.342 343.916 136.342 344.897 136.342 345.388 136.342 345.879 136.342 346.86 136.342 347.351 136.342 347.841 136.342 348.332 136.342 348.822 136.342 349.313 136.342 350.294 136.342 350.785 136.342 351.276 136.342 351.766 136.342 352.257 136.342" fill="#897044"/><polyline points="352.257 136.342 352.257 136.889 352.257 137.984 352.257 138.531 352.257 139.078 352.257 140.173 352.257 140.72 352.257 141.267 352.257 142.909 352.257 143.457 352.257 144.004 352.257 144.551 352.257 145.098 352.257 146.193 352.257 147.287 352.257 147.835 352.257 148.382 352.257 148.929 352.257 150.024 352.257 150.571 352.257 151.118 352.257 151.665 352.257 152.213 352.257 152.76 352.257 153.307 352.257 153.855 352.257 154.402 352.257 154.949 352.257 156.591 352.257 157.138 352.257 157.685 352.257 158.78 352.257 159.874 352.257 160.422 352.257 160.969 352.257 161.516 352.257 162.064 350.785 162.064 349.804 162.064 349.313 162.064 348.822 162.064 348.332 162.064 347.351 162.064 345.879 162.064 344.897 162.064 343.916 162.064 343.426 162.064 342.935 162.064 342.444 162.064 341.954 162.064 341.463 162.064 340.972 162.064 340.482 162.064 339.991 162.064 339.01 162.064 338.519 162.064 338.029 162.064 337.538 162.064 337.047 162.064 336.066 162.064 334.594 162.064 334.104 162.064 333.122 162.064 331.65 162.064 331.16 162.064 330.179 162.064 329.197 162.064 328.216 162.064 326.744 162.064 326.254 162.064 325.763 162.064 324.782 162.064 323.31 162.064 322.819 162.064 321.838 162.064 320.857 162.064 320.366 162.064 319.385 162.064 318.894 162.064 317.913 162.064 316.441 162.064 315.46 162.064 313.988 162.064 312.516 162.064 312.025 162.064 311.044 162.064 309.572 162.064 309.082 162.064 308.591 162.064 307.119 162.064 304.175 162.064 302.213 162.064 301.722 162.611 300.741 162.611 298.778 162.611 297.797 162.611 297.307 162.611 296.325 162.611 294.363 162.611 293.872 162.611 293.382 162.611 292.891 162.611 291.419 162.611 290.928 162.611 290.438 162.611 289.947 162.611 289.457 162.611 288.966 162.611 288.475 162.611 287.985 162.611 286.513 162.611 286.513 161.516 286.513 160.422 286.513 158.78 286.513 157.685 286.513 156.591 286.513 156.044 286.513 155.496 286.513 154.949 286.022 154.949 286.022 153.855 286.022 152.76 286.022 152.213 286.022 151.118 286.022 150.571 286.022 150.024 286.022 149.476 286.022 148.929 286.022 146.193 286.022 145.098 286.022 144.551 286.022 144.004 286.022 142.909 286.022 141.815 286.022 140.173 286.022 137.984 286.022 135.795 286.022 134.153 286.022 133.606 286.022 133.058 286.022 132.511 287.494 132.511 287.985 132.511 288.966 132.511 290.928 132.511 292.4 132.511 292.891 132.511 294.363 132.511 295.344 132.511 295.835 133.058 295.835 133.606 295.835 134.153 296.325 134.153 296.325 134.7 296.816 135.248 297.307 135.795 297.797 136.889 298.288 136.889 298.778 136.889 299.269 137.437 299.76 137.437 300.25 137.984 301.232 137.984 301.722 137.984 302.213 137.984 302.703 137.984 303.685 137.984 304.175 137.984 304.666 137.984 304.666 138.531 305.647 140.173 306.138 140.173 306.138 140.72 306.628 140.72 307.119 140.72 307.61 141.267 308.1 141.267 308.591 141.267 309.082 141.267 310.063 141.815 310.553 141.815 310.553 142.362 311.535 142.362 312.025 142.362 312.516 142.362 313.007 142.909 313.497 142.909 313.988 142.909 314.479 142.362 314.969 142.362 315.46 142.362 315.95 142.362 316.441 141.815 316.932 141.815 317.422 141.815 317.913 141.815 318.404 141.815 319.385 142.362 319.385 141.267 319.385 139.078 319.385 138.531 319.385 137.984 319.385 136.342 320.366 136.342 320.857 136.342 321.838 136.342 322.329 136.342 323.31 136.342 323.8 136.342 324.291 136.342 324.782 136.342 325.272 136.342 326.254 136.342 327.235 136.342 328.707 136.342 329.197 136.342 330.179 136.342 330.669 136.342 331.16 136.342 331.65 136.342 332.141 136.342 332.632 136.342 333.122 136.342 333.613 136.342 334.104 136.342 335.085 136.342 335.576 136.342 336.557 136.342 337.047 136.342 337.538 136.342 338.029 136.342 338.519 136.342 339.01 136.342 339.501 136.342 339.991 136.342 340.482 136.342 340.972 136.342 341.463 136.342 342.444 136.342 342.935 136.342 343.426 136.342 343.916 136.342 344.897 136.342 345.388 136.342 345.879 136.342 346.86 136.342 347.351 136.342 347.841 136.342 348.332 136.342 348.822 136.342 349.313 136.342 350.294 136.342 350.785 136.342 351.276 136.342 351.766 136.342 352.257 136.342" fill="none" stroke="#fff" stroke-linecap="round" stroke-linejoin="round" stroke-width="1.08"/></g><text transform="translate(330.273 243.793)" font-size="80" font-family="MyriadPro-Regular, Myriad Pro">2</text><text transform="translate(12.932 25.179)" font-size="18" font-family="MyriadPro-Regular, Myriad Pro"><tspan letter-spacing="0.004em">R</tspan><tspan x="9.756" y="0">e</tspan><tspan x="18.774" y="0" letter-spacing="-0.006em">g</tspan><tspan x="28.728" y="0">ion 2 is </tspan><tspan x="84.833" y="0" letter-spacing="-0.006em">c</tspan><tspan x="92.789" y="0">omp</tspan><tspan x="127.925" y="0" letter-spacing="0.004em">r</tspan><tspan x="133.883" y="0">ised </tspan><tspan x="0" y="21.6">of mostly p</tspan><tspan x="83.717" y="21.6" letter-spacing="-0.005em">r</tspan><tspan x="89.513" y="21.6">ai</tspan><tspan x="102.401" y="21.6" letter-spacing="0.004em">r</tspan><tspan x="108.358" y="21.6">ie but </tspan><tspan x="0" y="43.2">quic</tspan><tspan x="32.328" y="43.2" letter-spacing="0.017em">k</tspan><tspan x="41.076" y="43.2">ly be</tspan><tspan x="76.877" y="43.2" letter-spacing="-0.006em">c</tspan><tspan x="84.833" y="43.2">omes a </tspan><tspan x="0" y="64.8">dese</tspan><tspan x="35.316" y="64.8" letter-spacing="0.024em">r</tspan><tspan x="41.633" y="64.8">t in the </tspan><tspan x="98.207" y="64.8" letter-spacing="-0.01em">w</tspan><tspan x="111.275" y="64.8">es</tspan><tspan x="127.421" y="64.8" letter-spacing="-0.003em">t</tspan><tspan x="133.325" y="64.8">. </tspan><tspan x="140.867" y="64.8" letter-spacing="-0.003em">A</tspan><tspan x="151.829" y="64.8" letter-spacing="0.004em">r</tspan><tspan x="157.787" y="64.8">id </tspan><tspan x="0" y="86.4">in n</tspan><tspan x="28.007" y="86.4" letter-spacing="-0.004em">a</tspan><tspan x="36.611" y="86.4">tu</tspan><tspan x="52.487" y="86.4" letter-spacing="-0.01em">r</tspan><tspan x="58.193" y="86.4">e this pa</tspan><tspan x="121.048" y="86.4" letter-spacing="0.024em">r</tspan><tspan x="127.365" y="86.4">t of </tspan><tspan x="0" y="108">O</tspan><tspan x="12.402" y="108" letter-spacing="0.017em">k</tspan><tspan x="21.15" y="108">lahoma </tspan><tspan x="81.449" y="108" letter-spacing="-0.01em">r</tspan><tspan x="87.155" y="108">elies on </tspan><tspan x="0" y="129.6">aqui</tspan><tspan x="32.939" y="129.6" letter-spacing="-0.013em">f</tspan><tspan x="37.961" y="129.6">ers </tspan><tspan x="63.809" y="129.6" letter-spacing="-0.006em">t</tspan><tspan x="69.659" y="129.6">o i</tspan><tspan x="87.569" y="129.6" letter-spacing="0.004em">rr</tspan><tspan x="99.484" y="129.6">ig</tspan><tspan x="113.758" y="129.6" letter-spacing="-0.004em">a</tspan><tspan x="122.362" y="129.6" letter-spacing="-0.006em">t</tspan><tspan x="128.212" y="129.6">e </tspan><tspan x="0" y="151.2">c</tspan><tspan x="8.064" y="151.2" letter-spacing="-0.01em">r</tspan><tspan x="13.77" y="151.2">ops in this a</tspan><tspan x="102.634" y="151.2" letter-spacing="-0.01em">r</tspan><tspan x="108.34" y="151.2">ea. </tspan><tspan x="133.575" y="151.2" letter-spacing="-0.006em">A</tspan><tspan x="144.483" y="151.2">s a </tspan><tspan x="0" y="172.8" letter-spacing="-0.01em">r</tspan><tspan x="5.706" y="172.8">esult </tspan><tspan x="45.792" y="172.8" letter-spacing="-0.01em">y</tspan><tspan x="54.09" y="172.8">ou a</tspan><tspan x="86.381" y="172.8" letter-spacing="-0.01em">r</tspan><tspan x="92.087" y="172.8">e most </tspan><tspan x="0" y="194.4">likely </tspan><tspan x="42.462" y="194.4" letter-spacing="-0.006em">t</tspan><tspan x="48.312" y="194.4">o see ha</tspan><tspan x="109.655" y="194.4" letter-spacing="-0.01em">r</tspan><tspan x="115.361" y="194.4" letter-spacing="0em">dy </tspan><tspan x="0" y="216">wildfl</tspan><tspan x="41.274" y="216" letter-spacing="-0.007em">o</tspan><tspan x="51.03" y="216" letter-spacing="-0.01em">w</tspan><tspan x="64.098" y="216">ers in this </tspan><tspan x="0" y="237.6" letter-spacing="-0.01em">r</tspan><tspan x="5.706" y="237.6">e</tspan><tspan x="14.724" y="237.6" letter-spacing="-0.006em">g</tspan><tspan x="24.678" y="237.6" xml:space="preserve">ion.  </tspan></text></g></svg>