<svg xmlns="http://www.w3.org/2000/svg" xmlns:xlink="http://www.w3.org/1999/xlink" width="483.174" height="274.697" viewBox="0 0 483.174 274.697"><defs><clipPath id="clip-path" transform="translate(-173.817 -181.834)"><rect x="169.1" y="80.624" width="666.287" height="477.116" fill="none"/></clipPath></defs><title>region1</title><g id="Layer_2" data-name="Layer 2"><rect x="1.5" y="1.5" width="480.174" height="271.697" rx="12" fill="#fff" stroke="#1e1109" stroke-miterlimit="10" stroke-width="3"/></g><g id="region_1" data-name="region 1"><g clip-path="url(#clip-path)"><polygon points="380.326 114.089 381.278 114.089 381.754 114.089 382.229 114.089 382.705 114.089 383.181 114.089 383.657 114.089 384.609 114.089 385.085 114.089 385.561 114.089 386.037 114.089 386.513 114.089 386.989 114.089 387.465 114.089 389.369 114.089 390.321 114.089 390.797 114.089 394.128 114.089 394.604 114.089 395.08 114.089 396.032 114.089 396.508 114.089 399.364 114.089 400.791 114.089 401.267 114.089 402.219 114.089 403.171 114.089 403.647 114.089 404.123 114.089 404.599 114.089 405.075 114.089 406.027 114.089 406.503 114.089 406.979 114.089 407.455 114.089 407.931 114.089 408.883 114.089 409.834 114.089 410.31 114.089 410.786 114.089 411.262 114.089 411.738 114.089 412.214 114.089 412.69 114.089 413.166 114.089 413.642 114.089 414.118 114.089 414.594 114.089 415.07 114.089 415.546 114.089 416.498 114.089 416.974 114.089 417.45 114.089 417.926 114.089 418.402 114.089 418.877 114.089 419.353 114.089 419.829 114.089 420.305 114.089 420.781 114.089 421.733 114.089 422.209 114.089 423.161 114.089 423.637 114.089 424.113 114.089 425.541 114.089 426.969 114.089 427.921 114.089 428.396 114.089 428.872 114.089 429.348 114.089 430.3 114.089 430.776 114.089 431.252 114.089 432.204 114.089 432.68 114.089 434.584 114.089 435.06 114.089 435.536 114.089 436.012 114.089 436.964 114.089 437.439 114.089 438.391 114.089 440.295 114.089 440.771 114.089 441.723 114.089 442.199 114.089 442.675 114.089 443.151 114.089 444.103 114.089 444.579 114.089 447.434 114.089 447.91 114.089 448.386 114.089 448.862 114.089 449.814 114.089 450.29 114.089 450.766 114.089 451.242 114.089 451.242 115.878 451.242 116.475 451.242 117.071 451.242 117.667 451.242 119.457 451.242 120.053 451.242 120.649 451.242 121.246 451.242 122.439 451.242 123.035 451.242 123.631 451.242 124.228 451.242 124.824 451.242 125.421 450.766 126.017 450.766 127.806 450.766 128.999 450.766 130.788 450.766 132.577 450.766 133.174 450.766 133.77 450.766 134.963 450.766 135.559 450.766 136.752 450.766 137.349 450.766 137.945 450.766 138.541 450.766 139.138 450.766 140.33 450.766 140.927 450.766 141.523 450.766 142.716 450.766 143.312 450.766 143.909 450.766 144.505 450.766 145.102 451.242 145.102 450.766 145.698 450.766 147.487 451.242 148.084 451.242 149.276 451.242 149.873 451.242 150.469 451.242 151.066 451.242 151.662 451.242 152.258 451.242 152.855 451.242 153.451 450.766 154.644 450.766 155.24 450.766 156.433 450.766 157.03 450.766 157.626 450.766 158.222 450.766 158.819 450.766 159.415 450.766 160.012 450.766 161.204 450.29 161.204 449.814 161.204 449.338 161.204 448.862 161.204 448.386 161.204 447.91 161.204 447.434 161.204 446.958 161.204 446.483 161.204 446.007 161.204 445.055 161.204 444.579 161.204 444.103 161.204 443.627 161.204 443.151 161.204 442.675 161.204 441.723 161.204 441.247 161.204 440.295 161.204 439.819 161.204 439.343 161.204 438.867 161.204 438.391 161.204 437.915 161.204 436.488 161.204 436.012 161.204 435.06 161.204 433.632 161.204 432.68 161.204 432.204 161.204 431.728 161.204 430.3 161.204 429.824 161.204 429.348 161.204 428.396 161.204 427.921 161.204 426.969 161.204 426.017 161.204 425.541 161.204 425.065 161.204 424.589 161.204 422.685 161.204 420.781 161.204 420.305 161.204 419.829 161.204 419.353 161.204 418.402 161.204 417.45 161.204 416.022 161.204 415.546 161.204 414.594 161.204 414.118 161.204 412.69 161.204 412.214 161.204 411.738 161.204 411.262 161.204 410.31 161.204 409.834 161.204 407.931 161.204 407.455 161.204 406.979 161.204 405.551 161.204 405.075 161.204 403.171 161.204 402.695 161.204 401.743 161.204 400.791 161.204 399.84 161.204 397.936 161.204 396.984 161.204 394.128 161.204 393.652 161.204 391.272 161.204 390.797 161.204 389.369 161.204 388.893 161.204 387.941 161.204 387.465 161.204 386.989 161.204 386.513 161.204 386.037 161.204 385.561 161.204 385.085 161.204 384.609 161.204 384.133 161.204 383.657 161.204 383.181 161.204 382.229 161.204 381.278 161.204 380.802 161.204 380.326 161.204 379.85 161.204 379.85 160.608 379.85 160.012 379.85 159.415 379.85 158.819 379.85 158.222 379.85 157.03 379.85 156.433 379.85 155.837 379.85 154.048 379.85 153.451 379.85 152.855 379.85 151.066 379.85 150.469 379.85 149.873 379.85 149.276 379.85 148.68 379.85 148.084 379.85 147.487 379.85 146.294 379.85 145.698 379.85 145.102 379.85 144.505 379.85 140.927 379.85 140.33 379.85 139.734 379.85 139.138 379.85 138.541 379.85 137.945 379.85 137.349 379.85 136.156 379.85 134.963 379.85 134.367 379.85 133.77 379.85 132.577 379.85 130.788 379.85 129.595 379.85 128.403 380.326 128.403 380.326 126.613 380.326 126.017 380.326 125.421 380.326 124.228 380.326 123.035 380.326 121.842 380.326 121.246 380.326 120.053 380.326 119.457 380.326 118.86 380.326 118.264 380.326 117.071 380.326 115.878 380.326 114.685 380.326 114.089" fill="#a87000"/><polyline points="380.326 114.089 381.278 114.089 381.754 114.089 382.229 114.089 382.705 114.089 383.181 114.089 383.657 114.089 384.609 114.089 385.085 114.089 385.561 114.089 386.037 114.089 386.513 114.089 386.989 114.089 387.465 114.089 389.369 114.089 390.321 114.089 390.797 114.089 394.128 114.089 394.604 114.089 395.08 114.089 396.032 114.089 396.508 114.089 399.364 114.089 400.791 114.089 401.267 114.089 402.219 114.089 403.171 114.089 403.647 114.089 404.123 114.089 404.599 114.089 405.075 114.089 406.027 114.089 406.503 114.089 406.979 114.089 407.455 114.089 407.931 114.089 408.883 114.089 409.834 114.089 410.31 114.089 410.786 114.089 411.262 114.089 411.738 114.089 412.214 114.089 412.69 114.089 413.166 114.089 413.642 114.089 414.118 114.089 414.594 114.089 415.07 114.089 415.546 114.089 416.498 114.089 416.974 114.089 417.45 114.089 417.926 114.089 418.402 114.089 418.877 114.089 419.353 114.089 419.829 114.089 420.305 114.089 420.781 114.089 421.733 114.089 422.209 114.089 423.161 114.089 423.637 114.089 424.113 114.089 425.541 114.089 426.969 114.089 427.921 114.089 428.396 114.089 428.872 114.089 429.348 114.089 430.3 114.089 430.776 114.089 431.252 114.089 432.204 114.089 432.68 114.089 434.584 114.089 435.06 114.089 435.536 114.089 436.012 114.089 436.964 114.089 437.439 114.089 438.391 114.089 440.295 114.089 440.771 114.089 441.723 114.089 442.199 114.089 442.675 114.089 443.151 114.089 444.103 114.089 444.579 114.089 447.434 114.089 447.91 114.089 448.386 114.089 448.862 114.089 449.814 114.089 450.29 114.089 450.766 114.089 451.242 114.089 451.242 115.878 451.242 116.475 451.242 117.071 451.242 117.667 451.242 119.457 451.242 120.053 451.242 120.649 451.242 121.246 451.242 122.439 451.242 123.035 451.242 123.631 451.242 124.228 451.242 124.824 451.242 125.421 450.766 126.017 450.766 127.806 450.766 128.999 450.766 130.788 450.766 132.577 450.766 133.174 450.766 133.77 450.766 134.963 450.766 135.559 450.766 136.752 450.766 137.349 450.766 137.945 450.766 138.541 450.766 139.138 450.766 140.33 450.766 140.927 450.766 141.523 450.766 142.716 450.766 143.312 450.766 143.909 450.766 144.505 450.766 145.102 451.242 145.102 450.766 145.698 450.766 147.487 451.242 148.084 451.242 149.276 451.242 149.873 451.242 150.469 451.242 151.066 451.242 151.662 451.242 152.258 451.242 152.855 451.242 153.451 450.766 154.644 450.766 155.24 450.766 156.433 450.766 157.03 450.766 157.626 450.766 158.222 450.766 158.819 450.766 159.415 450.766 160.012 450.766 161.204 450.29 161.204 449.814 161.204 449.338 161.204 448.862 161.204 448.386 161.204 447.91 161.204 447.434 161.204 446.958 161.204 446.483 161.204 446.007 161.204 445.055 161.204 444.579 161.204 444.103 161.204 443.627 161.204 443.151 161.204 442.675 161.204 441.723 161.204 441.247 161.204 440.295 161.204 439.819 161.204 439.343 161.204 438.867 161.204 438.391 161.204 437.915 161.204 436.488 161.204 436.012 161.204 435.06 161.204 433.632 161.204 432.68 161.204 432.204 161.204 431.728 161.204 430.3 161.204 429.824 161.204 429.348 161.204 428.396 161.204 427.921 161.204 426.969 161.204 426.017 161.204 425.541 161.204 425.065 161.204 424.589 161.204 422.685 161.204 420.781 161.204 420.305 161.204 419.829 161.204 419.353 161.204 418.402 161.204 417.45 161.204 416.022 161.204 415.546 161.204 414.594 161.204 414.118 161.204 412.69 161.204 412.214 161.204 411.738 161.204 411.262 161.204 410.31 161.204 409.834 161.204 407.931 161.204 407.455 161.204 406.979 161.204 405.551 161.204 405.075 161.204 403.171 161.204 402.695 161.204 401.743 161.204 400.791 161.204 399.84 161.204 397.936 161.204 396.984 161.204 394.128 161.204 393.652 161.204 391.272 161.204 390.797 161.204 389.369 161.204 388.893 161.204 387.941 161.204 387.465 161.204 386.989 161.204 386.513 161.204 386.037 161.204 385.561 161.204 385.085 161.204 384.609 161.204 384.133 161.204 383.657 161.204 383.181 161.204 382.229 161.204 381.278 161.204 380.802 161.204 380.326 161.204 379.85 161.204 379.85 160.608 379.85 160.012 379.85 159.415 379.85 158.819 379.85 158.222 379.85 157.03 379.85 156.433 379.85 155.837 379.85 154.048 379.85 153.451 379.85 152.855 379.85 151.066 379.85 150.469 379.85 149.873 379.85 149.276 379.85 148.68 379.85 148.084 379.85 147.487 379.85 146.294 379.85 145.698 379.85 145.102 379.85 144.505 379.85 140.927 379.85 140.33 379.85 139.734 379.85 139.138 379.85 138.541 379.85 137.945 379.85 137.349 379.85 136.156 379.85 134.963 379.85 134.367 379.85 133.77 379.85 132.577 379.85 130.788 379.85 129.595 379.85 128.403 380.326 128.403 380.326 126.613 380.326 126.017 380.326 125.421 380.326 124.228 380.326 123.035 380.326 121.842 380.326 121.246 380.326 120.053 380.326 119.457 380.326 118.86 380.326 118.264 380.326 117.071 380.326 115.878 380.326 114.685 380.326 114.089" fill="none" stroke="#fff" stroke-linecap="round" stroke-linejoin="round" stroke-width="1.08"/><polygon points="299.414 114.685 299.414 115.282 299.414 116.475 299.414 117.071 299.414 117.667 299.414 118.86 299.414 119.457 299.414 120.053 299.414 120.649 299.414 121.246 299.414 122.439 299.414 123.035 299.414 123.631 299.414 124.228 299.414 124.824 299.414 125.421 299.414 126.017 299.414 126.613 299.414 127.806 299.414 128.403 298.938 128.403 298.938 128.999 298.938 129.595 298.938 130.788 298.938 132.577 298.938 133.174 298.938 133.77 298.938 134.963 298.938 135.559 298.938 136.156 298.938 136.752 298.938 137.349 298.938 138.541 298.938 139.138 298.938 139.734 298.938 140.33 298.938 142.12 298.938 143.312 298.938 144.505 298.938 145.698 298.938 146.294 298.938 147.487 298.938 148.084 298.938 149.276 298.938 149.873 298.938 151.662 298.938 152.258 298.938 152.855 298.938 153.451 298.938 154.048 298.938 154.644 298.938 155.24 298.938 156.433 298.938 157.03 298.938 157.626 298.938 158.222 298.938 158.819 298.938 159.415 298.938 160.608 298.938 161.204 296.559 161.204 296.083 161.204 295.607 161.204 293.227 161.204 292.275 161.204 291.799 161.204 290.847 161.204 289.895 161.204 289.42 161.204 285.136 161.204 284.66 161.204 283.232 161.204 282.756 161.204 281.804 161.204 280.852 161.204 280.377 161.204 277.521 161.204 276.569 161.204 275.141 161.204 274.189 161.204 273.237 161.204 272.761 161.204 269.43 161.204 266.574 161.204 263.718 161.204 262.766 161.204 262.29 161.204 261.339 161.204 258.007 161.204 257.531 161.204 254.675 161.204 253.247 161.204 248.964 161.204 246.584 161.204 245.156 161.204 242.777 161.204 242.301 161.204 241.825 161.204 240.873 161.204 239.921 161.204 238.493 161.204 238.017 161.204 236.589 161.204 235.637 161.204 234.685 161.204 234.21 161.204 233.734 161.204 233.258 161.204 232.306 161.204 231.83 161.204 229.45 161.204 228.022 161.204 227.546 161.204 226.594 161.204 226.118 161.204 226.118 160.012 226.118 159.415 226.118 158.819 226.118 158.222 226.118 157.03 226.118 156.433 226.118 155.837 226.118 155.24 226.118 154.644 226.118 152.855 226.118 152.258 226.118 151.662 226.118 151.066 226.118 149.873 226.118 149.276 226.118 148.68 226.118 148.084 226.118 146.891 226.118 146.294 226.118 145.698 226.118 145.102 226.118 144.505 226.118 143.312 226.118 142.716 226.118 141.523 226.118 140.927 226.118 140.33 226.118 139.734 226.118 139.138 226.118 137.945 226.118 137.349 226.118 136.156 226.118 135.559 226.118 134.963 226.118 133.77 226.118 132.577 226.118 131.981 226.118 131.385 226.118 130.788 226.118 128.999 226.118 127.21 226.118 126.017 226.118 125.421 226.118 124.228 226.118 123.631 226.118 123.035 226.118 122.439 226.118 121.842 226.118 121.246 226.118 120.649 226.118 120.053 226.118 118.86 226.118 118.264 226.118 117.071 226.118 116.475 226.118 114.685 226.118 114.089 226.594 114.089 227.546 114.089 228.022 114.089 228.498 114.089 228.974 114.089 231.354 114.089 231.83 114.089 232.306 114.089 233.258 114.089 233.734 114.089 234.685 114.089 235.161 114.089 235.637 114.089 236.589 114.089 238.493 114.089 239.445 114.089 239.921 114.089 239.445 114.089 238.969 114.089 239.445 114.089 239.921 114.089 240.397 114.089 240.873 114.089 241.825 114.089 242.777 114.089 243.253 114.089 243.728 114.089 244.204 114.089 244.68 114.089 245.156 114.089 245.632 114.089 247.536 114.089 248.488 114.685 248.964 114.685 250.392 114.685 251.82 114.685 252.296 114.685 252.772 114.685 253.723 114.685 254.675 114.685 256.103 114.685 257.055 114.685 258.007 114.685 258.483 114.685 260.863 114.685 261.815 114.685 262.29 114.685 263.718 114.685 264.194 114.685 266.098 114.685 268.002 114.685 268.954 114.685 271.333 114.685 272.285 114.685 273.237 114.685 274.665 114.685 275.141 114.685 275.617 114.685 277.045 114.685 278.473 114.685 278.949 114.685 279.901 114.685 280.377 114.685 281.328 114.685 281.804 114.685 282.28 114.685 282.756 114.685 283.708 114.685 284.66 114.685 285.612 114.685 286.564 114.685 287.04 114.685 287.516 114.685 288.468 114.685 289.895 114.685 290.371 114.685 291.323 114.685 291.799 114.685 293.227 114.685 294.655 114.685 295.131 114.685 295.607 114.685 296.083 114.685 297.511 114.685 297.987 114.685 298.463 114.685 299.414 114.685" fill="#a87000"/><polyline points="299.414 114.685 299.414 115.282 299.414 116.475 299.414 117.071 299.414 117.667 299.414 118.86 299.414 119.457 299.414 120.053 299.414 120.649 299.414 121.246 299.414 122.439 299.414 123.035 299.414 123.631 299.414 124.228 299.414 124.824 299.414 125.421 299.414 126.017 299.414 126.613 299.414 127.806 299.414 128.403 298.938 128.403 298.938 128.999 298.938 129.595 298.938 130.788 298.938 132.577 298.938 133.174 298.938 133.77 298.938 134.963 298.938 135.559 298.938 136.156 298.938 136.752 298.938 137.349 298.938 138.541 298.938 139.138 298.938 139.734 298.938 140.33 298.938 142.12 298.938 143.312 298.938 144.505 298.938 145.698 298.938 146.294 298.938 147.487 298.938 148.084 298.938 149.276 298.938 149.873 298.938 151.662 298.938 152.258 298.938 152.855 298.938 153.451 298.938 154.048 298.938 154.644 298.938 155.24 298.938 156.433 298.938 157.03 298.938 157.626 298.938 158.222 298.938 158.819 298.938 159.415 298.938 160.608 298.938 161.204 296.559 161.204 296.083 161.204 295.607 161.204 293.227 161.204 292.275 161.204 291.799 161.204 290.847 161.204 289.895 161.204 289.42 161.204 285.136 161.204 284.66 161.204 283.232 161.204 282.756 161.204 281.804 161.204 280.852 161.204 280.377 161.204 277.521 161.204 276.569 161.204 275.141 161.204 274.189 161.204 273.237 161.204 272.761 161.204 269.43 161.204 266.574 161.204 263.718 161.204 262.766 161.204 262.29 161.204 261.339 161.204 258.007 161.204 257.531 161.204 254.675 161.204 253.247 161.204 248.964 161.204 246.584 161.204 245.156 161.204 242.777 161.204 242.301 161.204 241.825 161.204 240.873 161.204 239.921 161.204 238.493 161.204 238.017 161.204 236.589 161.204 235.637 161.204 234.685 161.204 234.21 161.204 233.734 161.204 233.258 161.204 232.306 161.204 231.83 161.204 229.45 161.204 228.022 161.204 227.546 161.204 226.594 161.204 226.118 161.204 226.118 160.012 226.118 159.415 226.118 158.819 226.118 158.222 226.118 157.03 226.118 156.433 226.118 155.837 226.118 155.24 226.118 154.644 226.118 152.855 226.118 152.258 226.118 151.662 226.118 151.066 226.118 149.873 226.118 149.276 226.118 148.68 226.118 148.084 226.118 146.891 226.118 146.294 226.118 145.698 226.118 145.102 226.118 144.505 226.118 143.312 226.118 142.716 226.118 141.523 226.118 140.927 226.118 140.33 226.118 139.734 226.118 139.138 226.118 137.945 226.118 137.349 226.118 136.156 226.118 135.559 226.118 134.963 226.118 133.77 226.118 132.577 226.118 131.981 226.118 131.385 226.118 130.788 226.118 128.999 226.118 127.21 226.118 126.017 226.118 125.421 226.118 124.228 226.118 123.631 226.118 123.035 226.118 122.439 226.118 121.842 226.118 121.246 226.118 120.649 226.118 120.053 226.118 118.86 226.118 118.264 226.118 117.071 226.118 116.475 226.118 114.685 226.118 114.089 226.594 114.089 227.546 114.089 228.022 114.089 228.498 114.089 228.974 114.089 231.354 114.089 231.83 114.089 232.306 114.089 233.258 114.089 233.734 114.089 234.685 114.089 235.161 114.089 235.637 114.089 236.589 114.089 238.493 114.089 239.445 114.089 239.921 114.089 239.445 114.089 238.969 114.089 239.445 114.089 239.921 114.089 240.397 114.089 240.873 114.089 241.825 114.089 242.777 114.089 243.253 114.089 243.728 114.089 244.204 114.089 244.68 114.089 245.156 114.089 245.632 114.089 247.536 114.089 248.488 114.685 248.964 114.685 250.392 114.685 251.82 114.685 252.296 114.685 252.772 114.685 253.723 114.685 254.675 114.685 256.103 114.685 257.055 114.685 258.007 114.685 258.483 114.685 260.863 114.685 261.815 114.685 262.29 114.685 263.718 114.685 264.194 114.685 266.098 114.685 268.002 114.685 268.954 114.685 271.333 114.685 272.285 114.685 273.237 114.685 274.665 114.685 275.141 114.685 275.617 114.685 277.045 114.685 278.473 114.685 278.949 114.685 279.901 114.685 280.377 114.685 281.328 114.685 281.804 114.685 282.28 114.685 282.756 114.685 283.708 114.685 284.66 114.685 285.612 114.685 286.564 114.685 287.04 114.685 287.516 114.685 288.468 114.685 289.895 114.685 290.371 114.685 291.323 114.685 291.799 114.685 293.227 114.685 294.655 114.685 295.131 114.685 295.607 114.685 296.083 114.685 297.511 114.685 297.987 114.685 298.463 114.685 299.414 114.685" fill="none" stroke="#fff" stroke-linecap="round" stroke-linejoin="round" stroke-width="1.08"/><polygon points="299.414 114.685 300.366 114.685 300.842 114.685 301.318 114.685 301.794 114.685 302.27 114.685 302.746 114.685 303.222 114.685 303.698 114.685 304.65 114.685 305.126 114.685 306.078 114.685 306.554 114.685 307.506 114.685 307.982 114.685 308.457 114.685 308.933 114.685 309.409 114.685 309.885 114.685 310.361 114.685 310.837 114.685 311.313 114.685 311.789 114.685 312.741 114.685 313.217 114.685 313.693 114.685 314.169 114.685 314.645 114.685 315.121 114.685 315.597 114.685 317.025 114.685 317.5 114.685 317.976 114.685 318.452 114.685 318.928 114.685 319.404 114.685 319.88 114.685 320.832 114.685 321.308 114.685 322.26 114.685 322.736 114.685 323.688 114.685 324.164 114.685 325.116 114.685 326.068 114.685 326.544 114.685 327.495 114.685 327.971 114.685 328.447 114.685 328.923 114.685 329.399 114.685 330.351 114.685 330.827 114.685 331.303 114.685 331.779 114.685 332.731 114.685 333.207 114.685 334.159 114.685 334.635 114.685 335.587 114.685 336.062 114.685 337.014 114.685 337.49 114.685 337.966 114.685 338.442 114.685 338.918 114.685 339.87 114.685 340.346 114.685 340.822 114.685 341.298 114.685 342.25 114.685 342.726 114.685 344.154 114.685 345.106 114.685 345.581 114.685 346.057 114.685 346.533 114.685 347.009 114.685 347.961 114.685 348.437 114.685 348.913 114.685 349.389 114.685 352.245 114.685 354.149 114.089 355.1 114.089 356.528 114.089 357.48 114.089 357.956 114.089 358.432 114.089 360.336 114.089 361.288 114.089 362.24 114.089 362.716 114.089 363.192 114.089 364.143 114.089 365.571 114.089 366.047 114.089 366.999 114.089 367.475 114.089 367.951 114.089 368.427 114.089 369.379 114.089 369.855 114.089 370.807 114.089 371.283 114.089 372.235 114.089 372.711 114.089 373.662 114.089 374.138 114.089 374.614 114.089 375.09 114.089 375.566 114.089 376.042 114.089 376.518 114.089 377.946 114.089 378.898 114.089 379.374 114.089 379.85 114.089 380.326 114.089 380.326 114.685 380.326 115.878 380.326 117.071 380.326 118.264 380.326 118.86 380.326 119.457 380.326 120.053 380.326 121.246 380.326 121.842 380.326 123.035 380.326 124.228 380.326 125.421 380.326 126.017 380.326 126.613 380.326 128.403 379.85 128.403 379.85 129.595 379.85 130.788 379.85 132.577 379.85 133.77 379.85 134.367 379.85 134.963 379.85 136.156 379.85 137.349 379.85 137.945 379.85 138.541 379.85 139.138 379.85 139.734 379.85 140.33 379.85 140.927 379.85 144.505 379.85 145.102 379.85 145.698 379.85 146.294 379.85 147.487 379.85 148.084 379.85 148.68 379.85 149.276 379.85 149.873 379.85 150.469 379.85 151.066 379.85 152.855 379.85 153.451 379.85 154.048 379.85 155.837 379.85 156.433 379.85 157.03 379.85 158.222 379.85 158.819 379.85 159.415 379.85 160.012 379.85 160.608 379.85 161.204 378.422 161.204 377.946 161.204 376.518 161.204 375.566 161.204 373.186 161.204 372.711 161.204 372.235 161.204 371.759 161.204 369.855 161.204 369.379 161.204 368.903 161.204 366.999 161.204 366.047 161.204 365.571 161.204 363.667 161.204 362.24 161.204 361.288 161.204 360.812 161.204 360.336 161.204 359.86 161.204 357.48 161.204 356.052 161.204 354.624 161.204 353.673 161.204 352.721 161.204 352.245 161.204 350.817 161.204 349.865 161.204 349.389 161.204 348.913 161.204 348.437 161.204 347.009 161.204 345.581 161.204 345.106 161.204 341.298 161.204 340.822 161.204 340.346 161.204 339.87 161.204 339.394 161.204 338.918 161.204 338.442 161.204 335.587 161.204 335.111 161.204 333.683 161.204 333.207 161.204 332.731 161.204 331.779 161.204 329.399 161.204 328.447 161.204 327.495 161.204 326.544 161.204 326.068 161.204 324.64 161.204 324.164 161.204 323.212 161.204 322.736 161.204 321.784 161.204 320.356 161.204 319.88 161.204 318.928 161.204 318.452 161.204 317.976 161.204 317.5 161.204 317.025 161.204 316.073 161.204 315.121 161.204 314.645 161.204 314.169 161.204 313.693 161.204 313.217 161.204 312.741 161.204 312.265 161.204 310.837 161.204 310.361 161.204 309.409 161.204 308.933 161.204 307.982 161.204 307.03 161.204 306.554 161.204 305.126 161.204 304.174 161.204 303.222 161.204 302.27 161.204 301.794 161.204 301.318 161.204 300.366 161.204 298.938 161.204 298.938 160.608 298.938 159.415 298.938 158.819 298.938 158.222 298.938 157.626 298.938 157.03 298.938 156.433 298.938 155.24 298.938 154.644 298.938 154.048 298.938 153.451 298.938 152.855 298.938 152.258 298.938 151.662 298.938 149.873 298.938 149.276 298.938 148.084 298.938 147.487 298.938 146.294 298.938 145.698 298.938 144.505 298.938 143.312 298.938 142.12 298.938 140.33 298.938 139.734 298.938 139.138 298.938 138.541 298.938 137.349 298.938 136.752 298.938 136.156 298.938 135.559 298.938 134.963 298.938 133.77 298.938 133.174 298.938 132.577 298.938 130.788 298.938 129.595 298.938 128.999 298.938 128.403 299.414 128.403 299.414 127.806 299.414 126.613 299.414 126.017 299.414 125.421 299.414 124.824 299.414 124.228 299.414 123.631 299.414 123.035 299.414 122.439 299.414 121.246 299.414 120.649 299.414 120.053 299.414 119.457 299.414 118.86 299.414 117.667 299.414 117.071 299.414 116.475 299.414 115.282 299.414 114.685" fill="#a87000"/><polyline points="299.414 114.685 300.366 114.685 300.842 114.685 301.318 114.685 301.794 114.685 302.27 114.685 302.746 114.685 303.222 114.685 303.698 114.685 304.65 114.685 305.126 114.685 306.078 114.685 306.554 114.685 307.506 114.685 307.982 114.685 308.457 114.685 308.933 114.685 309.409 114.685 309.885 114.685 310.361 114.685 310.837 114.685 311.313 114.685 311.789 114.685 312.741 114.685 313.217 114.685 313.693 114.685 314.169 114.685 314.645 114.685 315.121 114.685 315.597 114.685 317.025 114.685 317.5 114.685 317.976 114.685 318.452 114.685 318.928 114.685 319.404 114.685 319.88 114.685 320.832 114.685 321.308 114.685 322.26 114.685 322.736 114.685 323.688 114.685 324.164 114.685 325.116 114.685 326.068 114.685 326.544 114.685 327.495 114.685 327.971 114.685 328.447 114.685 328.923 114.685 329.399 114.685 330.351 114.685 330.827 114.685 331.303 114.685 331.779 114.685 332.731 114.685 333.207 114.685 334.159 114.685 334.635 114.685 335.587 114.685 336.062 114.685 337.014 114.685 337.49 114.685 337.966 114.685 338.442 114.685 338.918 114.685 339.87 114.685 340.346 114.685 340.822 114.685 341.298 114.685 342.25 114.685 342.726 114.685 344.154 114.685 345.106 114.685 345.581 114.685 346.057 114.685 346.533 114.685 347.009 114.685 347.961 114.685 348.437 114.685 348.913 114.685 349.389 114.685 352.245 114.685 354.149 114.089 355.1 114.089 356.528 114.089 357.48 114.089 357.956 114.089 358.432 114.089 360.336 114.089 361.288 114.089 362.24 114.089 362.716 114.089 363.192 114.089 364.143 114.089 365.571 114.089 366.047 114.089 366.999 114.089 367.475 114.089 367.951 114.089 368.427 114.089 369.379 114.089 369.855 114.089 370.807 114.089 371.283 114.089 372.235 114.089 372.711 114.089 373.662 114.089 374.138 114.089 374.614 114.089 375.09 114.089 375.566 114.089 376.042 114.089 376.518 114.089 377.946 114.089 378.898 114.089 379.374 114.089 379.85 114.089 380.326 114.089 380.326 114.685 380.326 115.878 380.326 117.071 380.326 118.264 380.326 118.86 380.326 119.457 380.326 120.053 380.326 121.246 380.326 121.842 380.326 123.035 380.326 124.228 380.326 125.421 380.326 126.017 380.326 126.613 380.326 128.403 379.85 128.403 379.85 129.595 379.85 130.788 379.85 132.577 379.85 133.77 379.85 134.367 379.85 134.963 379.85 136.156 379.85 137.349 379.85 137.945 379.85 138.541 379.85 139.138 379.85 139.734 379.85 140.33 379.85 140.927 379.85 144.505 379.85 145.102 379.85 145.698 379.85 146.294 379.85 147.487 379.85 148.084 379.85 148.68 379.85 149.276 379.85 149.873 379.85 150.469 379.85 151.066 379.85 152.855 379.85 153.451 379.85 154.048 379.85 155.837 379.85 156.433 379.85 157.03 379.85 158.222 379.85 158.819 379.85 159.415 379.85 160.012 379.85 160.608 379.85 161.204 378.422 161.204 377.946 161.204 376.518 161.204 375.566 161.204 373.186 161.204 372.711 161.204 372.235 161.204 371.759 161.204 369.855 161.204 369.379 161.204 368.903 161.204 366.999 161.204 366.047 161.204 365.571 161.204 363.667 161.204 362.24 161.204 361.288 161.204 360.812 161.204 360.336 161.204 359.86 161.204 357.48 161.204 356.052 161.204 354.624 161.204 353.673 161.204 352.721 161.204 352.245 161.204 350.817 161.204 349.865 161.204 349.389 161.204 348.913 161.204 348.437 161.204 347.009 161.204 345.581 161.204 345.106 161.204 341.298 161.204 340.822 161.204 340.346 161.204 339.87 161.204 339.394 161.204 338.918 161.204 338.442 161.204 335.587 161.204 335.111 161.204 333.683 161.204 333.207 161.204 332.731 161.204 331.779 161.204 329.399 161.204 328.447 161.204 327.495 161.204 326.544 161.204 326.068 161.204 324.64 161.204 324.164 161.204 323.212 161.204 322.736 161.204 321.784 161.204 320.356 161.204 319.88 161.204 318.928 161.204 318.452 161.204 317.976 161.204 317.5 161.204 317.025 161.204 316.073 161.204 315.121 161.204 314.645 161.204 314.169 161.204 313.693 161.204 313.217 161.204 312.741 161.204 312.265 161.204 310.837 161.204 310.361 161.204 309.409 161.204 308.933 161.204 307.982 161.204 307.03 161.204 306.554 161.204 305.126 161.204 304.174 161.204 303.222 161.204 302.27 161.204 301.794 161.204 301.318 161.204 300.366 161.204 298.938 161.204 298.938 160.608 298.938 159.415 298.938 158.819 298.938 158.222 298.938 157.626 298.938 157.03 298.938 156.433 298.938 155.24 298.938 154.644 298.938 154.048 298.938 153.451 298.938 152.855 298.938 152.258 298.938 151.662 298.938 149.873 298.938 149.276 298.938 148.084 298.938 147.487 298.938 146.294 298.938 145.698 298.938 144.505 298.938 143.312 298.938 142.12 298.938 140.33 298.938 139.734 298.938 139.138 298.938 138.541 298.938 137.349 298.938 136.752 298.938 136.156 298.938 135.559 298.938 134.963 298.938 133.77 298.938 133.174 298.938 132.577 298.938 130.788 298.938 129.595 298.938 128.999 298.938 128.403 299.414 128.403 299.414 127.806 299.414 126.613 299.414 126.017 299.414 125.421 299.414 124.824 299.414 124.228 299.414 123.631 299.414 123.035 299.414 122.439 299.414 121.246 299.414 120.649 299.414 120.053 299.414 119.457 299.414 118.86 299.414 117.667 299.414 117.071 299.414 116.475 299.414 115.282 299.414 114.685" fill="none" stroke="#fff" stroke-linecap="round" stroke-linejoin="round" stroke-width="1.08"/></g><text transform="translate(328.427 234.978)" font-size="80" font-family="MyriadPro-Regular, Myriad Pro">1</text><path d="M196.273,198.028a17.214,17.214,0,0,1,3.172-.266,5.237,5.237,0,0,1,3.705,1.045,3.187,3.187,0,0,1,1.007,2.431,3.362,3.362,0,0,1-2.413,3.268v.057a3.192,3.192,0,0,1,1.881,2.583,20.352,20.352,0,0,0,.988,3.515H202.9a16.6,16.6,0,0,1-.855-3.058c-.38-1.767-1.064-2.432-2.565-2.489h-1.557v5.547h-1.653Zm1.653,5.832h1.69c1.767,0,2.888-.969,2.888-2.431,0-1.653-1.2-2.375-2.944-2.394a6.794,6.794,0,0,0-1.634.152Z" transform="translate(-173.817 -181.834)"/><path d="M207.445,206.368a2.945,2.945,0,0,0,3.153,3.191,6.046,6.046,0,0,0,2.546-.475l.285,1.2a7.448,7.448,0,0,1-3.059.57,4.27,4.27,0,0,1-4.521-4.635c0-2.774,1.633-4.959,4.312-4.959,3,0,3.8,2.641,3.8,4.332a6.349,6.349,0,0,1-.056.779Zm4.9-1.2c.019-1.064-.437-2.717-2.318-2.717a2.772,2.772,0,0,0-2.565,2.717Z" transform="translate(-173.817 -181.834)"/><path d="M223.955,201.466c-.038.665-.077,1.406-.077,2.527v5.339c0,2.108-.417,3.4-1.31,4.2a4.874,4.874,0,0,1-3.344,1.1,5.934,5.934,0,0,1-3.058-.759l.417-1.273a5.188,5.188,0,0,0,2.7.722c1.71,0,2.964-.893,2.964-3.211v-1.026h-.038a3.283,3.283,0,0,1-2.926,1.539c-2.28,0-3.913-1.937-3.913-4.483,0-3.116,2.032-4.883,4.141-4.883a3.057,3.057,0,0,1,2.869,1.6h.038l.076-1.388Zm-1.729,3.629a2.381,2.381,0,0,0-.095-.76,2.409,2.409,0,0,0-2.337-1.767c-1.6,0-2.735,1.349-2.735,3.477,0,1.805.912,3.305,2.716,3.305a2.443,2.443,0,0,0,2.318-1.709,2.913,2.913,0,0,0,.133-.893Z" transform="translate(-173.817 -181.834)"/><path d="M228.4,198.883a1.036,1.036,0,0,1-2.071,0,1.019,1.019,0,0,1,1.045-1.045A.992.992,0,0,1,228.4,198.883Zm-1.862,11.778v-9.195h1.672v9.195Z" transform="translate(-173.817 -181.834)"/><path d="M239.306,205.988a4.494,4.494,0,0,1-4.578,4.882,4.372,4.372,0,0,1-4.408-4.73c0-3.077,2.014-4.883,4.559-4.883C237.52,201.257,239.306,203.176,239.306,205.988Zm-7.3.095c0,2.014,1.158,3.533,2.792,3.533,1.6,0,2.793-1.5,2.793-3.571,0-1.558-.779-3.534-2.755-3.534S232.011,204.335,232.011,206.083Z" transform="translate(-173.817 -181.834)"/><path d="M241.416,203.955c0-.95-.019-1.728-.076-2.489h1.482l.095,1.52h.038a3.382,3.382,0,0,1,3.04-1.729c1.272,0,3.248.761,3.248,3.914v5.49h-1.672v-5.3c0-1.482-.55-2.716-2.128-2.716a2.374,2.374,0,0,0-2.241,1.709,2.4,2.4,0,0,0-.114.779v5.528h-1.672Z" transform="translate(-173.817 -181.834)"/><path d="M259.085,199.871h-.038L256.9,201.03l-.323-1.273,2.7-1.444H260.7v12.348h-1.615Z" transform="translate(-173.817 -181.834)"/><path d="M271.625,198.883a1.036,1.036,0,0,1-2.071,0,1.019,1.019,0,0,1,1.045-1.045A.992.992,0,0,1,271.625,198.883Zm-1.862,11.778v-9.195h1.672v9.195Z" transform="translate(-173.817 -181.834)"/><path d="M273.981,208.951a4.382,4.382,0,0,0,2.2.665c1.215,0,1.786-.608,1.786-1.367,0-.8-.475-1.235-1.71-1.691-1.653-.589-2.432-1.5-2.432-2.6,0-1.482,1.2-2.7,3.172-2.7a4.573,4.573,0,0,1,2.261.571l-.418,1.215a3.578,3.578,0,0,0-1.88-.532c-.988,0-1.539.57-1.539,1.254,0,.76.551,1.1,1.748,1.558,1.6.608,2.412,1.406,2.412,2.774,0,1.614-1.253,2.754-3.438,2.754a5.244,5.244,0,0,1-2.584-.627Z" transform="translate(-173.817 -181.834)"/><path d="M287.774,198.826v2.64h2.394v1.273h-2.394V207.7c0,1.139.324,1.785,1.254,1.785a3.719,3.719,0,0,0,.969-.114l.076,1.254a4.093,4.093,0,0,1-1.482.228,2.316,2.316,0,0,1-1.8-.7,3.407,3.407,0,0,1-.646-2.394v-5.015h-1.425v-1.273h1.425v-2.2Z" transform="translate(-173.817 -181.834)"/><path d="M292.05,197.173h1.672v5.737h.038a3.1,3.1,0,0,1,1.2-1.178,3.435,3.435,0,0,1,1.709-.475c1.235,0,3.211.761,3.211,3.933v5.471h-1.672V205.38c0-1.482-.551-2.735-2.128-2.735a2.4,2.4,0,0,0-2.242,1.671,2.044,2.044,0,0,0-.113.8v5.547H292.05Z" transform="translate(-173.817 -181.834)"/><path d="M303.526,206.368a2.945,2.945,0,0,0,3.153,3.191,6.046,6.046,0,0,0,2.546-.475l.285,1.2a7.448,7.448,0,0,1-3.059.57,4.27,4.27,0,0,1-4.521-4.635c0-2.774,1.633-4.959,4.312-4.959,3,0,3.8,2.641,3.8,4.332a6.306,6.306,0,0,1-.057.779Zm4.9-1.2c.019-1.064-.437-2.717-2.318-2.717a2.772,2.772,0,0,0-2.565,2.717Z" transform="translate(-173.817 -181.834)"/><path d="M196.216,227.269c0-1.179-.038-2.128-.076-3h1.5l.076,1.577h.038a3.613,3.613,0,0,1,3.267-1.786c2.223,0,3.9,1.88,3.9,4.673,0,3.306-2.014,4.939-4.18,4.939a3.222,3.222,0,0,1-2.83-1.443h-.038v5h-1.653Zm1.653,2.45a3.765,3.765,0,0,0,.076.684,2.578,2.578,0,0,0,2.507,1.956c1.767,0,2.793-1.443,2.793-3.552,0-1.843-.969-3.419-2.736-3.419a2.67,2.67,0,0,0-2.527,2.07,2.756,2.756,0,0,0-.113.684Z" transform="translate(-173.817 -181.834)"/><path d="M212.118,233.461l-.133-1.158h-.057a3.427,3.427,0,0,1-2.812,1.367,2.619,2.619,0,0,1-2.811-2.64c0-2.223,1.975-3.439,5.528-3.42v-.19a1.9,1.9,0,0,0-2.09-2.128,4.576,4.576,0,0,0-2.393.685l-.381-1.1a5.707,5.707,0,0,1,3.021-.817c2.812,0,3.5,1.919,3.5,3.761v3.439a12.828,12.828,0,0,0,.153,2.2Zm-.247-4.692c-1.824-.038-3.9.285-3.9,2.071a1.48,1.48,0,0,0,1.577,1.6,2.288,2.288,0,0,0,2.223-1.539,1.745,1.745,0,0,0,.095-.532Z" transform="translate(-173.817 -181.834)"/><path d="M216.184,226.755c0-.949-.019-1.728-.076-2.488h1.482l.095,1.52h.038a3.382,3.382,0,0,1,3.04-1.729c1.272,0,3.248.76,3.248,3.913v5.49h-1.672v-5.3c0-1.482-.551-2.716-2.128-2.716a2.376,2.376,0,0,0-2.241,1.709,2.4,2.4,0,0,0-.114.779v5.528h-1.672Z" transform="translate(-173.817 -181.834)"/><path d="M226.729,219.974H228.4v5.736h.038a3.107,3.107,0,0,1,1.2-1.177,3.435,3.435,0,0,1,1.709-.475c1.235,0,3.211.76,3.211,3.932v5.471h-1.672V228.18c0-1.482-.551-2.735-2.128-2.735a2.4,2.4,0,0,0-2.241,1.671,2.024,2.024,0,0,0-.114.8v5.547h-1.672Z" transform="translate(-173.817 -181.834)"/><path d="M242.365,233.461l-.133-1.158h-.057a3.427,3.427,0,0,1-2.811,1.367,2.62,2.62,0,0,1-2.812-2.64c0-2.223,1.976-3.439,5.528-3.42v-.19a1.9,1.9,0,0,0-2.089-2.128,4.583,4.583,0,0,0-2.394.685l-.38-1.1a5.707,5.707,0,0,1,3.021-.817c2.811,0,3.5,1.919,3.5,3.761v3.439a12.936,12.936,0,0,0,.152,2.2Zm-.247-4.692c-1.824-.038-3.894.285-3.894,2.071a1.48,1.48,0,0,0,1.577,1.6,2.287,2.287,0,0,0,2.222-1.539,1.745,1.745,0,0,0,.095-.532Z" transform="translate(-173.817 -181.834)"/><path d="M246.432,226.755c0-.949-.019-1.728-.076-2.488h1.481l.1,1.52h.038a3.379,3.379,0,0,1,3.039-1.729c1.273,0,3.249.76,3.249,3.913v5.49h-1.672v-5.3c0-1.482-.551-2.716-2.128-2.716a2.376,2.376,0,0,0-2.242,1.709,2.433,2.433,0,0,0-.113.779v5.528h-1.672Z" transform="translate(-173.817 -181.834)"/><path d="M264.917,219.974v11.113c0,.817.02,1.747.077,2.374h-1.5l-.076-1.595h-.038a3.4,3.4,0,0,1-3.135,1.8c-2.223,0-3.932-1.88-3.932-4.673-.019-3.059,1.88-4.939,4.122-4.939a3.076,3.076,0,0,1,2.774,1.405h.038v-5.489Zm-1.671,8.035a2.951,2.951,0,0,0-.076-.7,2.459,2.459,0,0,0-2.413-1.937c-1.729,0-2.755,1.519-2.755,3.552,0,1.862.913,3.4,2.717,3.4a2.513,2.513,0,0,0,2.451-2,2.9,2.9,0,0,0,.076-.722Z" transform="translate(-173.817 -181.834)"/><path d="M267.692,219.974h1.672v13.487h-1.672Z" transform="translate(-173.817 -181.834)"/><path d="M273.107,229.168a2.945,2.945,0,0,0,3.154,3.191,6.056,6.056,0,0,0,2.545-.474l.285,1.2a7.446,7.446,0,0,1-3.058.569,4.27,4.27,0,0,1-4.522-4.635c0-2.773,1.634-4.958,4.313-4.958,3,0,3.8,2.64,3.8,4.331a6.306,6.306,0,0,1-.057.779Zm4.9-1.2c.019-1.064-.436-2.716-2.317-2.716a2.771,2.771,0,0,0-2.565,2.716Z" transform="translate(-173.817 -181.834)"/><path d="M294.044,228.788a4.494,4.494,0,0,1-4.578,4.882,4.371,4.371,0,0,1-4.408-4.73c0-3.078,2.014-4.882,4.56-4.882C292.258,224.058,294.044,225.977,294.044,228.788Zm-7.295.095c0,2.014,1.159,3.534,2.793,3.534,1.6,0,2.792-1.5,2.792-3.572,0-1.558-.779-3.533-2.754-3.533S286.749,227.135,286.749,228.883Z" transform="translate(-173.817 -181.834)"/><path d="M296.325,233.461V225.54h-1.291v-1.273h1.291v-.437a4.335,4.335,0,0,1,1.064-3.211,3.2,3.2,0,0,1,2.242-.854,3.88,3.88,0,0,1,1.425.265l-.228,1.292a2.5,2.5,0,0,0-1.064-.209c-1.425,0-1.786,1.254-1.786,2.66v.494H300.2v1.273h-2.223v7.921Z" transform="translate(-173.817 -181.834)"/><path d="M316.729,226.926c0,4.408-2.678,6.744-5.946,6.744-3.381,0-5.756-2.621-5.756-6.5,0-4.065,2.527-6.725,5.946-6.725C314.469,220.448,316.729,223.127,316.729,226.926Zm-9.935.209c0,2.736,1.482,5.187,4.084,5.187,2.622,0,4.1-2.413,4.1-5.32,0-2.545-1.329-5.205-4.084-5.205C308.162,221.8,306.794,224.324,306.794,227.135Z" transform="translate(-173.817 -181.834)"/><path d="M320.474,228.484h.038c.228-.323.551-.722.817-1.045l2.7-3.172h2.014l-3.553,3.78,4.047,5.414H324.5l-3.172-4.407-.855.95v3.457h-1.653V219.974h1.653Z" transform="translate(-173.817 -181.834)"/><path d="M328.054,219.974h1.672v13.487h-1.672Z" transform="translate(-173.817 -181.834)"/><path d="M337.629,233.461,337.5,232.3h-.058a3.425,3.425,0,0,1-2.811,1.367,2.62,2.62,0,0,1-2.812-2.64c0-2.223,1.976-3.439,5.528-3.42v-.19a1.9,1.9,0,0,0-2.089-2.128,4.583,4.583,0,0,0-2.394.685l-.38-1.1a5.707,5.707,0,0,1,3.021-.817c2.811,0,3.5,1.919,3.5,3.761v3.439a12.936,12.936,0,0,0,.152,2.2Zm-.247-4.692c-1.823-.038-3.894.285-3.894,2.071a1.48,1.48,0,0,0,1.577,1.6,2.289,2.289,0,0,0,2.223-1.539,1.774,1.774,0,0,0,.094-.532Z" transform="translate(-173.817 -181.834)"/><path d="M341.7,219.974h1.672v5.736h.038a3.093,3.093,0,0,1,1.2-1.177,3.435,3.435,0,0,1,1.709-.475c1.235,0,3.211.76,3.211,3.932v5.471h-1.672V228.18c0-1.482-.551-2.735-2.128-2.735a2.4,2.4,0,0,0-2.242,1.671,2.044,2.044,0,0,0-.113.8v5.547H341.7Z" transform="translate(-173.817 -181.834)"/><path d="M360.562,228.788a4.494,4.494,0,0,1-4.579,4.882,4.371,4.371,0,0,1-4.407-4.73c0-3.078,2.014-4.882,4.559-4.882C358.776,224.058,360.562,225.977,360.562,228.788Zm-7.3.095c0,2.014,1.158,3.534,2.792,3.534,1.6,0,2.793-1.5,2.793-3.572,0-1.558-.779-3.533-2.755-3.533S353.267,227.135,353.267,228.883Z" transform="translate(-173.817 -181.834)"/><path d="M366.547,227.705v1.235h-4.692v-1.235Z" transform="translate(-173.817 -181.834)"/><path d="M196.216,249.555c0-.95-.019-1.728-.076-2.489H197.6l.076,1.482h.057a3.169,3.169,0,0,1,2.887-1.691,2.72,2.72,0,0,1,2.6,1.843h.038a3.811,3.811,0,0,1,1.026-1.2,3.137,3.137,0,0,1,2.032-.646c1.216,0,3.021.8,3.021,3.99v5.414h-1.634v-5.205c0-1.767-.646-2.83-2-2.83a2.163,2.163,0,0,0-1.975,1.519,2.753,2.753,0,0,0-.133.836v5.68h-1.634v-5.509c0-1.463-.646-2.526-1.919-2.526a2.286,2.286,0,0,0-2.071,1.671,2.327,2.327,0,0,0-.132.817v5.547h-1.634Z" transform="translate(-173.817 -181.834)"/><path d="M217.153,256.261l-.132-1.158h-.058a3.427,3.427,0,0,1-2.811,1.367,2.62,2.62,0,0,1-2.812-2.64c0-2.223,1.976-3.439,5.528-3.42v-.19a1.9,1.9,0,0,0-2.089-2.128,4.582,4.582,0,0,0-2.394.684l-.38-1.1a5.716,5.716,0,0,1,3.021-.817c2.811,0,3.495,1.919,3.495,3.762v3.439a12.943,12.943,0,0,0,.152,2.2Zm-.247-4.692c-1.823-.038-3.894.285-3.894,2.071a1.479,1.479,0,0,0,1.577,1.6,2.288,2.288,0,0,0,2.223-1.538,1.785,1.785,0,0,0,.094-.532Z" transform="translate(-173.817 -181.834)"/><path d="M220.821,255.273a1.123,1.123,0,0,1,1.14-1.2,1.2,1.2,0,1,1-1.14,1.2Z" transform="translate(-173.817 -181.834)"/><path d="M230.89,243.457v12.8h-1.653v-12.8Z" transform="translate(-173.817 -181.834)"/><path d="M236.039,244.426v2.64h2.393v1.273h-2.393V253.3c0,1.14.323,1.785,1.253,1.785a3.719,3.719,0,0,0,.969-.114l.076,1.254a4.093,4.093,0,0,1-1.482.228,2.319,2.319,0,0,1-1.8-.7,3.41,3.41,0,0,1-.646-2.395v-5.015H232.98v-1.273h1.425v-2.2Z" transform="translate(-173.817 -181.834)"/><path d="M244.342,242.773h1.672v5.737h.038a3.093,3.093,0,0,1,1.2-1.177,3.425,3.425,0,0,1,1.709-.476c1.235,0,3.211.761,3.211,3.933v5.471H250.5V250.98c0-1.482-.551-2.735-2.128-2.735a2.4,2.4,0,0,0-2.242,1.671,2.044,2.044,0,0,0-.113.8v5.547h-1.672Z" transform="translate(-173.817 -181.834)"/><path d="M259.978,256.261l-.133-1.158h-.057a3.427,3.427,0,0,1-2.811,1.367,2.62,2.62,0,0,1-2.812-2.64c0-2.223,1.976-3.439,5.528-3.42v-.19a1.9,1.9,0,0,0-2.089-2.128,4.579,4.579,0,0,0-2.394.684l-.38-1.1a5.714,5.714,0,0,1,3.021-.817c2.811,0,3.5,1.919,3.5,3.762v3.439a12.943,12.943,0,0,0,.152,2.2Zm-.247-4.692c-1.824-.038-3.895.285-3.895,2.071a1.48,1.48,0,0,0,1.578,1.6,2.287,2.287,0,0,0,2.222-1.538,1.756,1.756,0,0,0,.095-.532Z" transform="translate(-173.817 -181.834)"/><path d="M263.816,254.551a4.378,4.378,0,0,0,2.2.665c1.216,0,1.786-.608,1.786-1.367,0-.8-.475-1.235-1.71-1.691-1.653-.589-2.431-1.5-2.431-2.6,0-1.482,1.2-2.7,3.172-2.7a4.589,4.589,0,0,1,2.261.571l-.418,1.216a3.578,3.578,0,0,0-1.881-.533c-.988,0-1.539.57-1.539,1.254,0,.76.551,1.1,1.748,1.558,1.6.608,2.413,1.406,2.413,2.774,0,1.615-1.254,2.754-3.439,2.754a5.247,5.247,0,0,1-2.584-.627Z" transform="translate(-173.817 -181.834)"/><path d="M277.61,244.426v2.64H280v1.273H277.61V253.3c0,1.14.323,1.785,1.254,1.785a3.719,3.719,0,0,0,.969-.114l.076,1.254a4.1,4.1,0,0,1-1.482.228,2.32,2.32,0,0,1-1.805-.7,3.41,3.41,0,0,1-.646-2.395v-5.015h-1.425v-1.273h1.425v-2.2Z" transform="translate(-173.817 -181.834)"/><path d="M281.885,242.773h1.672v5.737h.038a3.107,3.107,0,0,1,1.2-1.177,3.431,3.431,0,0,1,1.709-.476c1.235,0,3.211.761,3.211,3.933v5.471h-1.671V250.98c0-1.482-.552-2.735-2.128-2.735a2.4,2.4,0,0,0-2.242,1.671,2.024,2.024,0,0,0-.114.8v5.547h-1.672Z" transform="translate(-173.817 -181.834)"/><path d="M293.361,251.968a2.945,2.945,0,0,0,3.154,3.191,6.059,6.059,0,0,0,2.545-.474l.285,1.2a7.443,7.443,0,0,1-3.058.57,4.27,4.27,0,0,1-4.522-4.635c0-2.774,1.634-4.959,4.313-4.959,3,0,3.8,2.641,3.8,4.332a6.306,6.306,0,0,1-.057.779Zm4.9-1.2c.019-1.064-.436-2.716-2.317-2.716a2.77,2.77,0,0,0-2.565,2.716Z" transform="translate(-173.817 -181.834)"/><path d="M305.977,242.773h1.672v5.737h.038a3.107,3.107,0,0,1,1.2-1.177,3.425,3.425,0,0,1,1.709-.476c1.235,0,3.211.761,3.211,3.933v5.471h-1.672V250.98c0-1.482-.551-2.735-2.128-2.735a2.4,2.4,0,0,0-2.241,1.671,2.024,2.024,0,0,0-.114.8v5.547h-1.672Z" transform="translate(-173.817 -181.834)"/><path d="M318.384,244.483a1.036,1.036,0,0,1-2.071,0,1.019,1.019,0,0,1,1.045-1.045A.992.992,0,0,1,318.384,244.483Zm-1.862,11.778v-9.2h1.672v9.2Z" transform="translate(-173.817 -181.834)"/><path d="M328.89,247.066c-.038.665-.077,1.406-.077,2.527v5.339c0,2.108-.417,3.4-1.31,4.2a4.874,4.874,0,0,1-3.344,1.1,5.934,5.934,0,0,1-3.058-.759l.418-1.273a5.182,5.182,0,0,0,2.7.722c1.71,0,2.964-.893,2.964-3.211v-1.025h-.038a3.282,3.282,0,0,1-2.926,1.538c-2.279,0-3.913-1.937-3.913-4.483,0-3.115,2.032-4.883,4.141-4.883a3.057,3.057,0,0,1,2.869,1.6h.038l.076-1.388Zm-1.729,3.629a2.381,2.381,0,0,0-.1-.76,2.409,2.409,0,0,0-2.337-1.767c-1.6,0-2.735,1.349-2.735,3.477,0,1.8.912,3.3,2.716,3.3a2.443,2.443,0,0,0,2.318-1.709,2.909,2.909,0,0,0,.133-.893Z" transform="translate(-173.817 -181.834)"/><path d="M331.588,242.773h1.672v5.737h.038a3.107,3.107,0,0,1,1.2-1.177,3.432,3.432,0,0,1,1.71-.476c1.234,0,3.211.761,3.211,3.933v5.471h-1.672V250.98c0-1.482-.552-2.735-2.128-2.735a2.4,2.4,0,0,0-2.242,1.671,2.024,2.024,0,0,0-.114.8v5.547h-1.672Z" transform="translate(-173.817 -181.834)"/><path d="M343.064,251.968a2.945,2.945,0,0,0,3.154,3.191,6.056,6.056,0,0,0,2.545-.474l.285,1.2a7.443,7.443,0,0,1-3.058.57,4.27,4.27,0,0,1-4.522-4.635c0-2.774,1.634-4.959,4.313-4.959,3,0,3.8,2.641,3.8,4.332a6.306,6.306,0,0,1-.057.779Zm4.9-1.2c.019-1.064-.436-2.716-2.317-2.716a2.77,2.77,0,0,0-2.565,2.716Z" transform="translate(-173.817 -181.834)"/><path d="M351.424,254.551a4.372,4.372,0,0,0,2.2.665c1.216,0,1.786-.608,1.786-1.367,0-.8-.475-1.235-1.71-1.691-1.653-.589-2.432-1.5-2.432-2.6,0-1.482,1.2-2.7,3.173-2.7a4.589,4.589,0,0,1,2.261.571l-.418,1.216a3.578,3.578,0,0,0-1.881-.533c-.988,0-1.539.57-1.539,1.254,0,.76.551,1.1,1.748,1.558,1.6.608,2.413,1.406,2.413,2.774,0,1.615-1.254,2.754-3.439,2.754a5.244,5.244,0,0,1-2.584-.627Z" transform="translate(-173.817 -181.834)"/><path d="M361.19,244.426v2.64h2.393v1.273H361.19V253.3c0,1.14.323,1.785,1.254,1.785a3.719,3.719,0,0,0,.969-.114l.076,1.254a4.093,4.093,0,0,1-1.482.228,2.32,2.32,0,0,1-1.805-.7,3.41,3.41,0,0,1-.646-2.395v-5.015h-1.425v-1.273h1.425v-2.2Z" transform="translate(-173.817 -181.834)"/><path d="M197.147,274.768a2.945,2.945,0,0,0,3.153,3.191,6.046,6.046,0,0,0,2.546-.475l.285,1.2a7.448,7.448,0,0,1-3.059.57,4.27,4.27,0,0,1-4.521-4.635c0-2.774,1.634-4.959,4.312-4.959,3,0,3.8,2.641,3.8,4.332a6.306,6.306,0,0,1-.057.779Zm4.9-1.2c.019-1.064-.437-2.717-2.318-2.717a2.771,2.771,0,0,0-2.564,2.717Z" transform="translate(-173.817 -181.834)"/><path d="M205.735,265.573h1.672v13.488h-1.672Z" transform="translate(-173.817 -181.834)"/><path d="M211.15,274.768a2.945,2.945,0,0,0,3.153,3.191,6.046,6.046,0,0,0,2.546-.475l.285,1.2a7.448,7.448,0,0,1-3.059.57,4.27,4.27,0,0,1-4.521-4.635c0-2.774,1.634-4.959,4.312-4.959,3,0,3.8,2.641,3.8,4.332a6.306,6.306,0,0,1-.057.779Zm4.9-1.2c.019-1.064-.437-2.717-2.318-2.717a2.772,2.772,0,0,0-2.565,2.717Z" transform="translate(-173.817 -181.834)"/><path d="M220.384,269.866l1.8,5.168a23.375,23.375,0,0,1,.741,2.355h.057c.209-.76.475-1.519.779-2.355l1.786-5.168H227.3l-3.61,9.195h-1.595l-3.5-9.195Z" transform="translate(-173.817 -181.834)"/><path d="M233.892,279.061l-.133-1.159H233.7a3.427,3.427,0,0,1-2.812,1.368,2.619,2.619,0,0,1-2.811-2.641c0-2.222,1.975-3.438,5.527-3.419v-.19a1.9,1.9,0,0,0-2.089-2.128,4.576,4.576,0,0,0-2.393.684l-.381-1.1a5.707,5.707,0,0,1,3.021-.817c2.812,0,3.495,1.919,3.495,3.762v3.438a12.84,12.84,0,0,0,.153,2.2Zm-.247-4.692c-1.824-.038-3.9.285-3.9,2.07a1.48,1.48,0,0,0,1.577,1.6,2.288,2.288,0,0,0,2.223-1.538,1.788,1.788,0,0,0,.095-.533Z" transform="translate(-173.817 -181.834)"/><path d="M239.9,267.226v2.64h2.394v1.273H239.9V276.1c0,1.139.323,1.785,1.254,1.785a3.719,3.719,0,0,0,.969-.114l.076,1.254a4.093,4.093,0,0,1-1.482.228,2.317,2.317,0,0,1-1.805-.7,3.407,3.407,0,0,1-.646-2.394v-5.015h-1.425v-1.273h1.425v-2.2Z" transform="translate(-173.817 -181.834)"/><path d="M246.033,267.283a1.036,1.036,0,0,1-2.071,0,1.019,1.019,0,0,1,1.045-1.045A.992.992,0,0,1,246.033,267.283Zm-1.862,11.778v-9.195h1.672v9.195Z" transform="translate(-173.817 -181.834)"/><path d="M256.938,274.388a4.493,4.493,0,0,1-4.578,4.882,4.372,4.372,0,0,1-4.408-4.73c0-3.078,2.014-4.883,4.56-4.883C255.152,269.657,256.938,271.576,256.938,274.388Zm-7.295.1c0,2.014,1.159,3.533,2.793,3.533,1.595,0,2.793-1.5,2.793-3.571,0-1.558-.78-3.534-2.755-3.534S249.643,272.735,249.643,274.483Z" transform="translate(-173.817 -181.834)"/><path d="M259.048,272.355c0-.95-.019-1.729-.075-2.489h1.481l.095,1.52h.038a3.382,3.382,0,0,1,3.04-1.729c1.272,0,3.248.76,3.248,3.914v5.49H265.2v-5.3c0-1.482-.552-2.717-2.128-2.717a2.375,2.375,0,0,0-2.242,1.71,2.4,2.4,0,0,0-.114.779v5.528h-1.672Z" transform="translate(-173.817 -181.834)"/><path d="M278.712,279.061l-.132-1.159h-.058a3.423,3.423,0,0,1-2.811,1.368,2.62,2.62,0,0,1-2.812-2.641c0-2.222,1.976-3.438,5.528-3.419v-.19a1.9,1.9,0,0,0-2.089-2.128,4.582,4.582,0,0,0-2.394.684l-.38-1.1a5.707,5.707,0,0,1,3.021-.817c2.811,0,3.5,1.919,3.5,3.762v3.438a12.948,12.948,0,0,0,.152,2.2Zm-.247-4.692c-1.823-.038-3.894.285-3.894,2.07a1.48,1.48,0,0,0,1.577,1.6,2.289,2.289,0,0,0,2.223-1.538,1.786,1.786,0,0,0,.094-.533Z" transform="translate(-173.817 -181.834)"/><path d="M282.779,272.355c0-.95-.019-1.729-.076-2.489h1.482l.095,1.52h.038a3.379,3.379,0,0,1,3.039-1.729c1.273,0,3.249.76,3.249,3.914v5.49h-1.672v-5.3c0-1.482-.551-2.717-2.128-2.717a2.377,2.377,0,0,0-2.242,1.71,2.433,2.433,0,0,0-.113.779v5.528h-1.672Z" transform="translate(-173.817 -181.834)"/><path d="M301.265,265.573v11.114c0,.816.019,1.747.076,2.374h-1.5l-.076-1.6h-.038a3.4,3.4,0,0,1-3.135,1.805c-2.222,0-3.932-1.881-3.932-4.673-.019-3.059,1.881-4.94,4.122-4.94a3.075,3.075,0,0,1,2.774,1.406h.038v-5.49Zm-1.672,8.036a2.951,2.951,0,0,0-.076-.7,2.459,2.459,0,0,0-2.413-1.938c-1.729,0-2.754,1.52-2.754,3.553,0,1.861.912,3.4,2.716,3.4a2.513,2.513,0,0,0,2.451-2,2.891,2.891,0,0,0,.076-.721Z" transform="translate(-173.817 -181.834)"/><path d="M310.081,267.226v2.64h2.394v1.273h-2.394V276.1c0,1.139.323,1.785,1.254,1.785a3.719,3.719,0,0,0,.969-.114l.076,1.254a4.093,4.093,0,0,1-1.482.228,2.317,2.317,0,0,1-1.805-.7,3.407,3.407,0,0,1-.646-2.394v-5.015h-1.425v-1.273h1.425v-2.2Z" transform="translate(-173.817 -181.834)"/><path d="M314.356,265.573h1.672v5.737h.038a3.1,3.1,0,0,1,1.2-1.178,3.441,3.441,0,0,1,1.71-.475c1.235,0,3.211.76,3.211,3.933v5.471h-1.672V273.78c0-1.482-.551-2.736-2.128-2.736a2.4,2.4,0,0,0-2.242,1.672,2.024,2.024,0,0,0-.114.8v5.547h-1.672Z" transform="translate(-173.817 -181.834)"/><path d="M325.833,274.768a2.945,2.945,0,0,0,3.153,3.191,6.038,6.038,0,0,0,2.545-.475l.285,1.2a7.439,7.439,0,0,1-3.058.57,4.27,4.27,0,0,1-4.522-4.635c0-2.774,1.634-4.959,4.313-4.959,3,0,3.8,2.641,3.8,4.332a6.349,6.349,0,0,1-.056.779Zm4.9-1.2c.019-1.064-.436-2.717-2.317-2.717a2.771,2.771,0,0,0-2.565,2.717Z" transform="translate(-173.817 -181.834)"/><path d="M338.448,265.573h1.672v13.488h-1.672Z" transform="translate(-173.817 -181.834)"/><path d="M343.863,274.768a2.946,2.946,0,0,0,3.154,3.191,6.041,6.041,0,0,0,2.545-.475l.285,1.2a7.447,7.447,0,0,1-3.058.57,4.27,4.27,0,0,1-4.522-4.635c0-2.774,1.634-4.959,4.313-4.959,3,0,3.8,2.641,3.8,4.332a6.306,6.306,0,0,1-.057.779Zm4.9-1.2c.019-1.064-.436-2.717-2.317-2.717a2.771,2.771,0,0,0-2.565,2.717Z" transform="translate(-173.817 -181.834)"/><path d="M357.542,279.061l-.132-1.159h-.057a3.425,3.425,0,0,1-2.812,1.368,2.62,2.62,0,0,1-2.812-2.641c0-2.222,1.976-3.438,5.528-3.419v-.19a1.9,1.9,0,0,0-2.089-2.128,4.582,4.582,0,0,0-2.394.684l-.38-1.1a5.707,5.707,0,0,1,3.021-.817c2.812,0,3.5,1.919,3.5,3.762v3.438a12.84,12.84,0,0,0,.153,2.2Zm-.247-4.692c-1.823-.038-3.894.285-3.894,2.07a1.48,1.48,0,0,0,1.577,1.6A2.288,2.288,0,0,0,357.2,276.5a1.786,1.786,0,0,0,.094-.533Z" transform="translate(-173.817 -181.834)"/><path d="M361.381,277.351a4.381,4.381,0,0,0,2.2.665c1.216,0,1.787-.608,1.787-1.368,0-.8-.475-1.234-1.71-1.69-1.653-.589-2.432-1.5-2.432-2.6,0-1.482,1.2-2.7,3.172-2.7a4.576,4.576,0,0,1,2.261.571l-.418,1.215a3.578,3.578,0,0,0-1.88-.532c-.989,0-1.539.57-1.539,1.254,0,.76.55,1.1,1.748,1.558,1.6.608,2.412,1.4,2.412,2.774,0,1.614-1.254,2.754-3.438,2.754a5.244,5.244,0,0,1-2.584-.627Z" transform="translate(-173.817 -181.834)"/><path d="M371.146,267.226v2.64h2.394v1.273h-2.394V276.1c0,1.139.324,1.785,1.254,1.785a3.719,3.719,0,0,0,.969-.114l.076,1.254a4.093,4.093,0,0,1-1.482.228,2.316,2.316,0,0,1-1.8-.7,3.407,3.407,0,0,1-.646-2.394v-5.015h-1.425v-1.273h1.425v-2.2Z" transform="translate(-173.817 -181.834)"/><path d="M201.307,301.861l-.133-1.158h-.057a3.427,3.427,0,0,1-2.811,1.367,2.62,2.62,0,0,1-2.812-2.64c0-2.223,1.976-3.439,5.528-3.42v-.19a1.9,1.9,0,0,0-2.089-2.128,4.582,4.582,0,0,0-2.394.684l-.38-1.1a5.716,5.716,0,0,1,3.021-.816c2.811,0,3.5,1.918,3.5,3.761v3.439a12.936,12.936,0,0,0,.152,2.2Zm-.247-4.692c-1.824-.038-3.894.285-3.894,2.071a1.479,1.479,0,0,0,1.577,1.595,2.287,2.287,0,0,0,2.222-1.538,1.745,1.745,0,0,0,.095-.532Z" transform="translate(-173.817 -181.834)"/><path d="M205.374,295.155c0-.949-.02-1.728-.076-2.488h1.462l.076,1.481h.058a3.166,3.166,0,0,1,2.887-1.69,2.719,2.719,0,0,1,2.6,1.842h.037a3.808,3.808,0,0,1,1.026-1.2,3.14,3.14,0,0,1,2.033-.646c1.216,0,3.02.8,3.02,3.989v5.414h-1.633v-5.2c0-1.767-.646-2.83-1.995-2.83a2.165,2.165,0,0,0-1.976,1.519,2.755,2.755,0,0,0-.132.836v5.68H211.13v-5.509c0-1.463-.646-2.526-1.919-2.526a2.491,2.491,0,0,0-2.2,2.488v5.547h-1.633Z" transform="translate(-173.817 -181.834)"/><path d="M229.541,297.188a4.494,4.494,0,0,1-4.579,4.882,4.371,4.371,0,0,1-4.407-4.73c0-3.077,2.013-4.882,4.559-4.882C227.755,292.458,229.541,294.376,229.541,297.188Zm-7.295.1c0,2.014,1.158,3.533,2.792,3.533,1.6,0,2.793-1.5,2.793-3.571,0-1.558-.779-3.534-2.755-3.534S222.246,295.535,222.246,297.283Z" transform="translate(-173.817 -181.834)"/><path d="M239.345,299.354c0,.95.019,1.786.076,2.507h-1.482l-.095-1.5h-.038a3.457,3.457,0,0,1-3.039,1.71c-1.444,0-3.173-.8-3.173-4.027v-5.376h1.672v5.091c0,1.748.532,2.926,2.051,2.926a2.417,2.417,0,0,0,2.2-1.52,2.445,2.445,0,0,0,.152-.855v-5.642h1.672Z" transform="translate(-173.817 -181.834)"/><path d="M242.12,295.155c0-.949-.019-1.728-.076-2.488h1.481l.1,1.52h.038a3.379,3.379,0,0,1,3.039-1.729c1.273,0,3.249.76,3.249,3.913v5.49h-1.672v-5.3c0-1.482-.551-2.716-2.128-2.716a2.376,2.376,0,0,0-2.242,1.709,2.433,2.433,0,0,0-.113.779v5.528H242.12Z" transform="translate(-173.817 -181.834)"/><path d="M254.6,290.026v2.641H257v1.272H254.6V298.9c0,1.14.323,1.786,1.254,1.786a3.711,3.711,0,0,0,.969-.115l.076,1.254a4.071,4.071,0,0,1-1.482.228,2.32,2.32,0,0,1-1.805-.7,3.408,3.408,0,0,1-.646-2.394v-5.016h-1.425v-1.272h1.425v-2.2Z" transform="translate(-173.817 -181.834)"/><path d="M271.226,297.188a4.493,4.493,0,0,1-4.578,4.882,4.371,4.371,0,0,1-4.408-4.73c0-3.077,2.014-4.882,4.56-4.882C269.44,292.458,271.226,294.376,271.226,297.188Zm-7.3.1c0,2.014,1.159,3.533,2.793,3.533,1.6,0,2.793-1.5,2.793-3.571,0-1.558-.78-3.534-2.755-3.534S263.931,295.535,263.931,297.283Z" transform="translate(-173.817 -181.834)"/><path d="M273.507,301.861v-7.922h-1.291v-1.272h1.291v-.437a4.335,4.335,0,0,1,1.064-3.211,3.2,3.2,0,0,1,2.242-.854,3.88,3.88,0,0,1,1.425.265l-.228,1.292a2.5,2.5,0,0,0-1.064-.209c-1.425,0-1.786,1.254-1.786,2.66v.494h2.223v1.272H275.16v7.922Z" transform="translate(-173.817 -181.834)"/><path d="M282.912,295.668c0-1.178-.038-2.127-.076-3h1.5l.076,1.577h.038a3.615,3.615,0,0,1,3.267-1.786c2.223,0,3.895,1.88,3.895,4.673,0,3.306-2.014,4.939-4.179,4.939a3.223,3.223,0,0,1-2.831-1.444h-.038v5h-1.653Zm1.653,2.451a3.765,3.765,0,0,0,.076.684,2.58,2.58,0,0,0,2.507,1.956c1.768,0,2.793-1.443,2.793-3.552,0-1.843-.969-3.419-2.735-3.419a2.667,2.667,0,0,0-2.527,2.07,2.712,2.712,0,0,0-.114.684Z" transform="translate(-173.817 -181.834)"/><path d="M293.723,295.535c0-1.082-.019-2.014-.076-2.868h1.462l.058,1.8h.076a2.758,2.758,0,0,1,2.545-2.013,1.808,1.808,0,0,1,.475.057v1.576a2.575,2.575,0,0,0-.57-.056,2.344,2.344,0,0,0-2.241,2.146,4.7,4.7,0,0,0-.077.779v4.9h-1.652Z" transform="translate(-173.817 -181.834)"/><path d="M300.677,297.568a2.945,2.945,0,0,0,3.154,3.191,6.059,6.059,0,0,0,2.545-.474l.285,1.2a7.43,7.43,0,0,1-3.058.57,4.27,4.27,0,0,1-4.522-4.635c0-2.773,1.634-4.958,4.313-4.958,3,0,3.8,2.64,3.8,4.331a6.306,6.306,0,0,1-.057.779Zm4.9-1.2c.019-1.064-.436-2.717-2.317-2.717a2.771,2.771,0,0,0-2.565,2.717Z" transform="translate(-173.817 -181.834)"/><path d="M315.819,301.52a6.156,6.156,0,0,1-2.64.531,4.369,4.369,0,0,1-4.579-4.692,4.672,4.672,0,0,1,4.94-4.882,5.588,5.588,0,0,1,2.317.475l-.379,1.292a3.88,3.88,0,0,0-1.938-.437,3.466,3.466,0,0,0-.058,6.915,4.742,4.742,0,0,0,2.052-.456Z" transform="translate(-173.817 -181.834)"/><path d="M319.639,290.083a1.036,1.036,0,0,1-2.071,0,1.019,1.019,0,0,1,1.045-1.045A.992.992,0,0,1,319.639,290.083Zm-1.862,11.778v-9.194h1.672v9.194Z" transform="translate(-173.817 -181.834)"/><path d="M322.223,295.668c0-1.178-.038-2.127-.076-3h1.5l.076,1.577h.038a3.615,3.615,0,0,1,3.267-1.786c2.223,0,3.895,1.88,3.895,4.673,0,3.306-2.014,4.939-4.179,4.939a3.223,3.223,0,0,1-2.831-1.444h-.038v5h-1.653Zm1.653,2.451a3.765,3.765,0,0,0,.076.684,2.58,2.58,0,0,0,2.507,1.956c1.768,0,2.793-1.443,2.793-3.552,0-1.843-.969-3.419-2.735-3.419a2.667,2.667,0,0,0-2.527,2.07,2.712,2.712,0,0,0-.114.684Z" transform="translate(-173.817 -181.834)"/><path d="M334.9,290.083a1.036,1.036,0,0,1-2.071,0,1.019,1.019,0,0,1,1.045-1.045A.992.992,0,0,1,334.9,290.083Zm-1.862,11.778v-9.194h1.672v9.194Z" transform="translate(-173.817 -181.834)"/><path d="M339.493,290.026v2.641h2.394v1.272h-2.394V298.9c0,1.14.323,1.786,1.254,1.786a3.711,3.711,0,0,0,.969-.115l.076,1.254a4.071,4.071,0,0,1-1.482.228,2.32,2.32,0,0,1-1.805-.7,3.408,3.408,0,0,1-.646-2.394v-5.016h-1.424v-1.272h1.424v-2.2Z" transform="translate(-173.817 -181.834)"/><path d="M348.86,301.861l-.133-1.158h-.057a3.427,3.427,0,0,1-2.812,1.367,2.619,2.619,0,0,1-2.811-2.64c0-2.223,1.975-3.439,5.528-3.42v-.19a1.9,1.9,0,0,0-2.09-2.128,4.576,4.576,0,0,0-2.393.684l-.381-1.1a5.719,5.719,0,0,1,3.021-.816c2.812,0,3.5,1.918,3.5,3.761v3.439a12.936,12.936,0,0,0,.152,2.2Zm-.247-4.692c-1.824-.038-3.895.285-3.895,2.071a1.479,1.479,0,0,0,1.577,1.595,2.287,2.287,0,0,0,2.223-1.538,1.745,1.745,0,0,0,.1-.532Z" transform="translate(-173.817 -181.834)"/><path d="M356.8,296.105v1.235h-4.693v-1.235Z" transform="translate(-173.817 -181.834)"/><path d="M198.229,312.826v2.641h2.394v1.272h-2.394V321.7c0,1.141.324,1.786,1.254,1.786a3.676,3.676,0,0,0,.969-.114l.076,1.254a4.09,4.09,0,0,1-1.482.229,2.317,2.317,0,0,1-1.8-.7,3.4,3.4,0,0,1-.646-2.393v-5.016h-1.425v-1.272H196.6v-2.2Z" transform="translate(-173.817 -181.834)"/><path d="M204.367,312.883a1.036,1.036,0,0,1-2.071,0,1.019,1.019,0,0,1,1.045-1.045A.992.992,0,0,1,204.367,312.883Zm-1.862,11.778v-9.194h1.672v9.194Z" transform="translate(-173.817 -181.834)"/><path d="M215.271,319.988a4.493,4.493,0,0,1-4.578,4.882,4.372,4.372,0,0,1-4.407-4.73c0-3.077,2.014-4.882,4.559-4.882C213.486,315.258,215.271,317.176,215.271,319.988Zm-7.294.1c0,2.014,1.158,3.533,2.792,3.533,1.6,0,2.793-1.5,2.793-3.571,0-1.558-.779-3.533-2.755-3.533S207.977,318.335,207.977,320.083Z" transform="translate(-173.817 -181.834)"/><path d="M217.382,317.955c0-.95-.019-1.728-.076-2.488h1.482l.095,1.519h.038a3.378,3.378,0,0,1,3.039-1.728c1.273,0,3.249.76,3.249,3.913v5.49h-1.672v-5.3c0-1.482-.551-2.716-2.128-2.716a2.376,2.376,0,0,0-2.242,1.709,2.433,2.433,0,0,0-.113.779v5.528h-1.672Z" transform="translate(-173.817 -181.834)"/><path d="M232.62,315.467l1.215,4.673c.267,1.026.513,1.975.685,2.925h.056c.209-.93.513-1.919.817-2.906l1.5-4.692H238.3l1.425,4.6c.341,1.1.608,2.072.817,3h.057a27.675,27.675,0,0,1,.7-2.982l1.311-4.616h1.653l-2.964,9.194h-1.519l-1.407-4.389a30.829,30.829,0,0,1-.816-3.02h-.038a27.21,27.21,0,0,1-.836,3.04l-1.482,4.369h-1.519l-2.774-9.194Z" transform="translate(-173.817 -181.834)"/><path d="M247.8,312.883a1.036,1.036,0,0,1-2.071,0,1.019,1.019,0,0,1,1.045-1.045A.992.992,0,0,1,247.8,312.883Zm-1.862,11.778v-9.194h1.672v9.194Z" transform="translate(-173.817 -181.834)"/><path d="M252.4,312.826v2.641h2.394v1.272H252.4V321.7c0,1.141.323,1.786,1.254,1.786a3.676,3.676,0,0,0,.969-.114l.076,1.254a4.09,4.09,0,0,1-1.482.229,2.318,2.318,0,0,1-1.805-.7,3.4,3.4,0,0,1-.646-2.393v-5.016h-1.425v-1.272h1.425v-2.2Z" transform="translate(-173.817 -181.834)"/><path d="M256.673,311.173h1.672v5.737h.038a3.116,3.116,0,0,1,1.2-1.178,3.44,3.44,0,0,1,1.71-.474c1.234,0,3.21.76,3.21,3.931v5.472h-1.671V319.38c0-1.482-.552-2.735-2.128-2.735a2.4,2.4,0,0,0-2.242,1.671,2.024,2.024,0,0,0-.114.8v5.547h-1.672Z" transform="translate(-173.817 -181.834)"/><path d="M276.337,324.661l-.132-1.159h-.058a3.42,3.42,0,0,1-2.811,1.368,2.619,2.619,0,0,1-2.812-2.641c0-2.222,1.976-3.438,5.528-3.419v-.19a1.9,1.9,0,0,0-2.089-2.128,4.582,4.582,0,0,0-2.394.684l-.38-1.1a5.707,5.707,0,0,1,3.021-.816c2.811,0,3.5,1.918,3.5,3.761v3.438a12.948,12.948,0,0,0,.152,2.2Zm-.247-4.692c-1.823-.038-3.894.285-3.894,2.07a1.48,1.48,0,0,0,1.577,1.6A2.29,2.29,0,0,0,276,322.1a1.781,1.781,0,0,0,.094-.533Z" transform="translate(-173.817 -181.834)"/><path d="M280.4,317.955c0-.95-.019-1.728-.076-2.488h1.482l.095,1.519h.038a3.378,3.378,0,0,1,3.039-1.728c1.273,0,3.249.76,3.249,3.913v5.49h-1.672v-5.3c0-1.482-.551-2.716-2.128-2.716a2.376,2.376,0,0,0-2.242,1.709,2.433,2.433,0,0,0-.113.779v5.528H280.4Z" transform="translate(-173.817 -181.834)"/><path d="M300.068,324.661l-.133-1.159h-.057a3.423,3.423,0,0,1-2.812,1.368,2.619,2.619,0,0,1-2.811-2.641c0-2.222,1.975-3.438,5.528-3.419v-.19a1.9,1.9,0,0,0-2.09-2.128,4.576,4.576,0,0,0-2.393.684l-.381-1.1a5.71,5.71,0,0,1,3.021-.816c2.812,0,3.5,1.918,3.5,3.761v3.438a12.948,12.948,0,0,0,.152,2.2Zm-.247-4.692c-1.824-.038-3.9.285-3.9,2.07a1.48,1.48,0,0,0,1.577,1.6,2.289,2.289,0,0,0,2.223-1.539,1.751,1.751,0,0,0,.1-.533Z" transform="translate(-173.817 -181.834)"/><path d="M304.628,315.467l1.805,5.167a23.634,23.634,0,0,1,.741,2.355h.057c.209-.76.475-1.519.779-2.355l1.785-5.167h1.748l-3.609,9.194h-1.6l-3.5-9.194Z" transform="translate(-173.817 -181.834)"/><path d="M313.862,320.368a2.946,2.946,0,0,0,3.154,3.192,6.023,6.023,0,0,0,2.545-.476l.285,1.2a7.443,7.443,0,0,1-3.058.571,4.271,4.271,0,0,1-4.522-4.636c0-2.774,1.634-4.958,4.313-4.958,3,0,3.8,2.64,3.8,4.331a6.306,6.306,0,0,1-.057.779Zm4.9-1.2c.019-1.064-.436-2.717-2.317-2.717a2.771,2.771,0,0,0-2.565,2.717Z" transform="translate(-173.817 -181.834)"/><path d="M322.45,318.335c0-1.083-.019-2.014-.075-2.868h1.462l.057,1.8h.076a2.758,2.758,0,0,1,2.546-2.013,1.811,1.811,0,0,1,.475.056v1.578a2.514,2.514,0,0,0-.57-.058,2.346,2.346,0,0,0-2.242,2.147,4.706,4.706,0,0,0-.076.779v4.9H322.45Z" transform="translate(-173.817 -181.834)"/><path d="M333.66,324.661l-.133-1.159h-.057a3.423,3.423,0,0,1-2.812,1.368,2.619,2.619,0,0,1-2.811-2.641c0-2.222,1.975-3.438,5.528-3.419v-.19a1.9,1.9,0,0,0-2.09-2.128,4.576,4.576,0,0,0-2.393.684l-.381-1.1a5.707,5.707,0,0,1,3.021-.816c2.812,0,3.5,1.918,3.5,3.761v3.438a12.84,12.84,0,0,0,.153,2.2Zm-.247-4.692c-1.824-.038-3.9.285-3.9,2.07a1.48,1.48,0,0,0,1.577,1.6,2.289,2.289,0,0,0,2.223-1.539,1.751,1.751,0,0,0,.1-.533Z" transform="translate(-173.817 -181.834)"/><path d="M345.648,315.467c-.038.665-.076,1.405-.076,2.526v5.338c0,2.109-.418,3.4-1.311,4.2a4.874,4.874,0,0,1-3.344,1.1,5.944,5.944,0,0,1-3.058-.76l.418-1.273a5.186,5.186,0,0,0,2.7.721c1.71,0,2.963-.892,2.963-3.21v-1.026H343.9a3.282,3.282,0,0,1-2.925,1.539c-2.28,0-3.914-1.937-3.914-4.483,0-3.116,2.033-4.882,4.142-4.882a3.058,3.058,0,0,1,2.868,1.6h.038l.076-1.387Zm-1.729,3.628a2.381,2.381,0,0,0-.095-.76,2.406,2.406,0,0,0-2.336-1.767c-1.6,0-2.736,1.349-2.736,3.477,0,1.805.912,3.306,2.717,3.306a2.444,2.444,0,0,0,2.317-1.71,2.918,2.918,0,0,0,.133-.893Z" transform="translate(-173.817 -181.834)"/><path d="M349.278,320.368a2.945,2.945,0,0,0,3.153,3.192,6.028,6.028,0,0,0,2.546-.476l.285,1.2a7.445,7.445,0,0,1-3.059.571,4.271,4.271,0,0,1-4.521-4.636c0-2.774,1.633-4.958,4.312-4.958,3,0,3.8,2.64,3.8,4.331a6.349,6.349,0,0,1-.056.779Zm4.9-1.2c.019-1.064-.437-2.717-2.318-2.717a2.772,2.772,0,0,0-2.565,2.717Z" transform="translate(-173.817 -181.834)"/><path d="M370.214,319.988a4.493,4.493,0,0,1-4.578,4.882,4.371,4.371,0,0,1-4.407-4.73c0-3.077,2.013-4.882,4.559-4.882C368.429,315.258,370.214,317.176,370.214,319.988Zm-7.3.1c0,2.014,1.159,3.533,2.793,3.533,1.6,0,2.793-1.5,2.793-3.571,0-1.558-.779-3.533-2.755-3.533S362.919,318.335,362.919,320.083Z" transform="translate(-173.817 -181.834)"/><path d="M372.5,324.661v-7.922H371.2v-1.272H372.5v-.438a4.333,4.333,0,0,1,1.064-3.21,3.2,3.2,0,0,1,2.241-.855,3.877,3.877,0,0,1,1.425.266L377,312.521a2.514,2.514,0,0,0-1.064-.208c-1.425,0-1.786,1.253-1.786,2.66v.494h2.223v1.272h-2.223v7.922Z" transform="translate(-173.817 -181.834)"/><path d="M199.313,336.671h-.039l-2.146,1.158-.323-1.272,2.7-1.445h1.425v12.349h-1.614Z" transform="translate(-173.817 -181.834)"/><path d="M213.447,335.112v1.1l-5.376,11.246h-1.729l5.358-10.924V336.5h-6.041v-1.388Z" transform="translate(-173.817 -181.834)"/><path d="M221.6,335.683a1.036,1.036,0,0,1-2.071,0,1.019,1.019,0,0,1,1.045-1.045A.992.992,0,0,1,221.6,335.683Zm-1.862,11.778v-9.194h1.672v9.194Z" transform="translate(-173.817 -181.834)"/><path d="M224.183,340.755c0-.95-.019-1.729-.076-2.488h1.481l.1,1.519h.038a3.378,3.378,0,0,1,3.039-1.728c1.273,0,3.249.759,3.249,3.913v5.49h-1.672v-5.3c0-1.482-.551-2.717-2.128-2.717a2.375,2.375,0,0,0-2.242,1.71,2.427,2.427,0,0,0-.114.779v5.528h-1.671Z" transform="translate(-173.817 -181.834)"/><path d="M241.282,347.119a6.159,6.159,0,0,1-2.641.532,4.368,4.368,0,0,1-4.578-4.692A4.672,4.672,0,0,1,239,338.076a5.589,5.589,0,0,1,2.318.475l-.381,1.292a3.87,3.87,0,0,0-1.937-.437,3.466,3.466,0,0,0-.057,6.915,4.75,4.75,0,0,0,2.052-.456Z" transform="translate(-173.817 -181.834)"/><path d="M243.239,333.973h1.672v5.737h.038a3.1,3.1,0,0,1,1.2-1.178,3.44,3.44,0,0,1,1.709-.474c1.235,0,3.211.759,3.211,3.932v5.471H249.4V342.18c0-1.482-.551-2.736-2.128-2.736a2.4,2.4,0,0,0-2.242,1.672,2.024,2.024,0,0,0-.114.8v5.547h-1.672Z" transform="translate(-173.817 -181.834)"/><path d="M254.715,343.168a2.945,2.945,0,0,0,3.154,3.191,6.041,6.041,0,0,0,2.545-.475l.285,1.2a7.443,7.443,0,0,1-3.058.57,4.27,4.27,0,0,1-4.522-4.635c0-2.774,1.634-4.958,4.313-4.958,3,0,3.8,2.64,3.8,4.331a6.323,6.323,0,0,1-.057.779Zm4.9-1.2c.019-1.064-.436-2.717-2.317-2.717a2.771,2.771,0,0,0-2.565,2.717Z" transform="translate(-173.817 -181.834)"/><path d="M263.075,345.751a4.382,4.382,0,0,0,2.2.665c1.216,0,1.786-.607,1.786-1.368,0-.8-.475-1.235-1.71-1.691-1.653-.588-2.432-1.5-2.432-2.6,0-1.482,1.2-2.7,3.173-2.7a4.583,4.583,0,0,1,2.26.569l-.418,1.216a3.573,3.573,0,0,0-1.88-.531c-.988,0-1.539.569-1.539,1.253,0,.76.551,1.1,1.748,1.558,1.6.607,2.413,1.405,2.413,2.773,0,1.615-1.254,2.755-3.439,2.755a5.244,5.244,0,0,1-2.584-.627Z" transform="translate(-173.817 -181.834)"/><path d="M274.855,341.268c0-1.178-.038-2.127-.076-3h1.5l.076,1.576h.038a3.616,3.616,0,0,1,3.267-1.785c2.223,0,3.895,1.88,3.895,4.672,0,3.306-2.014,4.94-4.18,4.94a3.226,3.226,0,0,1-2.83-1.443h-.038v5h-1.653Zm1.653,2.451a3.754,3.754,0,0,0,.076.683,2.579,2.579,0,0,0,2.507,1.957c1.767,0,2.793-1.444,2.793-3.552,0-1.843-.969-3.42-2.736-3.42a2.668,2.668,0,0,0-2.526,2.071,2.712,2.712,0,0,0-.114.684Z" transform="translate(-173.817 -181.834)"/><path d="M286.6,343.168a2.944,2.944,0,0,0,3.153,3.191,6.038,6.038,0,0,0,2.545-.475l.286,1.2a7.448,7.448,0,0,1-3.059.57A4.27,4.27,0,0,1,285,343.016c0-2.774,1.634-4.958,4.313-4.958,3,0,3.8,2.64,3.8,4.331a6.365,6.365,0,0,1-.056.779Zm4.9-1.2c.019-1.064-.437-2.717-2.318-2.717a2.772,2.772,0,0,0-2.565,2.717Z" transform="translate(-173.817 -181.834)"/><path d="M295.185,341.135c0-1.083-.019-2.014-.076-2.868h1.462l.057,1.8h.077a2.757,2.757,0,0,1,2.545-2.013,1.811,1.811,0,0,1,.475.056v1.577a2.512,2.512,0,0,0-.57-.057,2.345,2.345,0,0,0-2.241,2.147,4.585,4.585,0,0,0-.077.779v4.9h-1.652Z" transform="translate(-173.817 -181.834)"/><path d="M306.033,338.267l2.014,5.432c.209.609.437,1.33.589,1.881h.038c.171-.551.361-1.254.589-1.919l1.823-5.394h1.768l-2.508,6.553c-1.2,3.154-2.014,4.769-3.154,5.756a4.518,4.518,0,0,1-2.051,1.083l-.418-1.4a4.456,4.456,0,0,0,1.462-.817,5.069,5.069,0,0,0,1.406-1.862,1.2,1.2,0,0,0,.133-.4,1.458,1.458,0,0,0-.114-.437l-3.4-8.472Z" transform="translate(-173.817 -181.834)"/><path d="M315.115,343.168a2.945,2.945,0,0,0,3.154,3.191,6.041,6.041,0,0,0,2.545-.475l.285,1.2a7.447,7.447,0,0,1-3.058.57,4.27,4.27,0,0,1-4.522-4.635c0-2.774,1.634-4.958,4.313-4.958,3,0,3.8,2.64,3.8,4.331a6.323,6.323,0,0,1-.057.779Zm4.9-1.2c.019-1.064-.436-2.717-2.317-2.717a2.771,2.771,0,0,0-2.565,2.717Z" transform="translate(-173.817 -181.834)"/><path d="M328.794,347.461l-.132-1.159H328.6a3.422,3.422,0,0,1-2.811,1.368,2.62,2.62,0,0,1-2.812-2.641c0-2.222,1.976-3.438,5.528-3.42v-.189a1.9,1.9,0,0,0-2.089-2.128,4.591,4.591,0,0,0-2.394.684l-.38-1.1a5.707,5.707,0,0,1,3.021-.816c2.812,0,3.5,1.918,3.5,3.76v3.439a12.948,12.948,0,0,0,.152,2.2Zm-.247-4.692c-1.823-.039-3.894.285-3.894,2.07a1.48,1.48,0,0,0,1.577,1.6,2.289,2.289,0,0,0,2.223-1.54,1.769,1.769,0,0,0,.094-.532Z" transform="translate(-173.817 -181.834)"/><path d="M332.861,341.135c0-1.083-.019-2.014-.076-2.868h1.463l.057,1.8h.076a2.758,2.758,0,0,1,2.545-2.013,1.811,1.811,0,0,1,.475.056v1.577a2.509,2.509,0,0,0-.569-.057,2.344,2.344,0,0,0-2.242,2.147,4.7,4.7,0,0,0-.076.779v4.9h-1.653Z" transform="translate(-173.817 -181.834)"/><path d="M337.668,346.473a1.124,1.124,0,0,1,1.14-1.2,1.2,1.2,0,1,1-1.14,1.2Z" transform="translate(-173.817 -181.834)"/><path d="M347.737,336.063h-3.894v-1.406h9.479v1.406h-3.913v11.4h-1.672Z" transform="translate(-173.817 -181.834)"/><path d="M354.559,333.973h1.671v5.737h.039a3.093,3.093,0,0,1,1.2-1.178,3.44,3.44,0,0,1,1.71-.474c1.235,0,3.211.759,3.211,3.932v5.471h-1.672V342.18c0-1.482-.551-2.736-2.128-2.736a2.4,2.4,0,0,0-2.242,1.672,2.043,2.043,0,0,0-.114.8v5.547h-1.671Z" transform="translate(-173.817 -181.834)"/><path d="M366.965,335.683a1.035,1.035,0,0,1-2.07,0,1.019,1.019,0,0,1,1.044-1.045A.992.992,0,0,1,366.965,335.683ZM365.1,347.461v-9.194h1.671v9.194Z" transform="translate(-173.817 -181.834)"/><path d="M369.321,345.751a4.382,4.382,0,0,0,2.2.665c1.216,0,1.786-.607,1.786-1.368,0-.8-.475-1.235-1.71-1.691-1.653-.588-2.432-1.5-2.432-2.6,0-1.482,1.2-2.7,3.173-2.7a4.59,4.59,0,0,1,2.261.569l-.418,1.216a3.58,3.58,0,0,0-1.881-.531c-.988,0-1.539.569-1.539,1.253,0,.76.551,1.1,1.748,1.558,1.6.607,2.413,1.405,2.413,2.773,0,1.615-1.254,2.755-3.439,2.755a5.244,5.244,0,0,1-2.584-.627Z" transform="translate(-173.817 -181.834)"/><path d="M196.216,363.936c0-1.083-.019-2.014-.076-2.869H197.6l.057,1.805h.076a2.759,2.759,0,0,1,2.545-2.014,1.808,1.808,0,0,1,.475.057v1.577a2.509,2.509,0,0,0-.569-.057,2.345,2.345,0,0,0-2.242,2.147,4.693,4.693,0,0,0-.076.778v4.9h-1.653Z" transform="translate(-173.817 -181.834)"/><path d="M203.17,365.969a2.945,2.945,0,0,0,3.153,3.191,6.046,6.046,0,0,0,2.546-.475l.285,1.2a7.465,7.465,0,0,1-3.059.57,4.27,4.27,0,0,1-4.521-4.636c0-2.773,1.634-4.958,4.312-4.958,3,0,3.8,2.641,3.8,4.331a6.326,6.326,0,0,1-.057.78Zm4.9-1.2a2.38,2.38,0,0,0-2.318-2.716,2.772,2.772,0,0,0-2.565,2.716Z" transform="translate(-173.817 -181.834)"/><path d="M219.68,361.067c-.038.665-.076,1.406-.076,2.527v5.338c0,2.109-.418,3.4-1.311,4.2a4.875,4.875,0,0,1-3.344,1.1,5.944,5.944,0,0,1-3.058-.759l.418-1.274a5.184,5.184,0,0,0,2.7.722c1.71,0,2.964-.893,2.964-3.21v-1.026h-.038a3.283,3.283,0,0,1-2.926,1.539c-2.279,0-3.913-1.938-3.913-4.484,0-3.115,2.032-4.882,4.141-4.882a3.059,3.059,0,0,1,2.869,1.6h.038l.076-1.387Zm-1.729,3.628a2.375,2.375,0,0,0-.095-.759,2.408,2.408,0,0,0-2.336-1.767c-1.6,0-2.736,1.349-2.736,3.477,0,1.8.912,3.305,2.716,3.305a2.444,2.444,0,0,0,2.318-1.71,2.907,2.907,0,0,0,.133-.892Z" transform="translate(-173.817 -181.834)"/><path d="M224.126,358.483a1.035,1.035,0,0,1-2.07,0,1.019,1.019,0,0,1,1.045-1.045A.992.992,0,0,1,224.126,358.483Zm-1.861,11.779v-9.195h1.672v9.195Z" transform="translate(-173.817 -181.834)"/><path d="M235.031,365.589a4.493,4.493,0,0,1-4.578,4.882,4.373,4.373,0,0,1-4.408-4.731c0-3.077,2.015-4.882,4.56-4.882C233.246,360.858,235.031,362.776,235.031,365.589Zm-7.3.1c0,2.013,1.159,3.533,2.793,3.533,1.6,0,2.793-1.5,2.793-3.571,0-1.558-.78-3.534-2.755-3.534S227.736,363.936,227.736,365.684Z" transform="translate(-173.817 -181.834)"/><path d="M237.142,363.556c0-.951-.019-1.729-.076-2.489h1.481l.1,1.52h.038a3.379,3.379,0,0,1,3.039-1.729c1.273,0,3.249.76,3.249,3.913v5.491H243.3v-5.3c0-1.483-.551-2.717-2.128-2.717a2.374,2.374,0,0,0-2.242,1.71,2.425,2.425,0,0,0-.114.778v5.529h-1.671Z" transform="translate(-173.817 -181.834)"/><path d="M247.458,368.552a4.388,4.388,0,0,0,2.2.665c1.216,0,1.786-.608,1.786-1.368,0-.8-.475-1.235-1.71-1.691-1.653-.589-2.431-1.5-2.431-2.6,0-1.482,1.2-2.7,3.172-2.7a4.59,4.59,0,0,1,2.261.57l-.418,1.216a3.579,3.579,0,0,0-1.881-.532c-.988,0-1.539.57-1.539,1.254,0,.76.551,1.1,1.748,1.558,1.6.607,2.413,1.405,2.413,2.773,0,1.615-1.254,2.755-3.438,2.755a5.244,5.244,0,0,1-2.584-.627Z" transform="translate(-173.817 -181.834)"/><path d="M265.792,369.92a6.168,6.168,0,0,1-2.64.532,4.369,4.369,0,0,1-4.579-4.692,4.672,4.672,0,0,1,4.94-4.883,5.593,5.593,0,0,1,2.318.475l-.381,1.292a3.873,3.873,0,0,0-1.937-.437,3.466,3.466,0,0,0-.057,6.915,4.741,4.741,0,0,0,2.051-.456Z" transform="translate(-173.817 -181.834)"/><path d="M267.75,356.773h1.672v13.489H267.75Z" transform="translate(-173.817 -181.834)"/><path d="M274.1,358.483a1.036,1.036,0,0,1-2.071,0,1.019,1.019,0,0,1,1.045-1.045A.993.993,0,0,1,274.1,358.483Zm-1.862,11.779v-9.195h1.672v9.195Z" transform="translate(-173.817 -181.834)"/><path d="M276.68,363.556c0-.951-.019-1.729-.076-2.489h1.462l.077,1.482h.057a3.167,3.167,0,0,1,2.887-1.691,2.719,2.719,0,0,1,2.6,1.843h.038a3.8,3.8,0,0,1,1.025-1.2,3.142,3.142,0,0,1,2.033-.646c1.216,0,3.021.8,3.021,3.99v5.414h-1.634v-5.2c0-1.767-.646-2.831-2-2.831a2.164,2.164,0,0,0-1.975,1.52,2.718,2.718,0,0,0-.133.836v5.68h-1.634v-5.509c0-1.463-.646-2.527-1.919-2.527a2.285,2.285,0,0,0-2.071,1.671,2.337,2.337,0,0,0-.133.818v5.547H276.68Z" transform="translate(-173.817 -181.834)"/><path d="M297.617,370.262l-.133-1.159h-.057a3.425,3.425,0,0,1-2.811,1.368,2.62,2.62,0,0,1-2.812-2.641c0-2.223,1.976-3.438,5.528-3.42v-.189a1.9,1.9,0,0,0-2.089-2.128,4.59,4.59,0,0,0-2.394.683l-.38-1.1a5.707,5.707,0,0,1,3.021-.817c2.811,0,3.5,1.918,3.5,3.761v3.439a12.956,12.956,0,0,0,.152,2.2Zm-.247-4.693c-1.824-.038-3.894.285-3.894,2.071a1.48,1.48,0,0,0,1.577,1.6,2.287,2.287,0,0,0,2.222-1.539,1.745,1.745,0,0,0,.1-.532Z" transform="translate(-173.817 -181.834)"/><path d="M303.621,358.427v2.64h2.394v1.273h-2.394V367.3c0,1.14.323,1.786,1.254,1.786a3.719,3.719,0,0,0,.969-.114l.076,1.254a4.115,4.115,0,0,1-1.482.228,2.317,2.317,0,0,1-1.805-.7,3.407,3.407,0,0,1-.646-2.394V362.34h-1.424v-1.273h1.424v-2.2Z" transform="translate(-173.817 -181.834)"/><path d="M308.714,365.969a2.945,2.945,0,0,0,3.153,3.191,6.046,6.046,0,0,0,2.546-.475l.285,1.2a7.465,7.465,0,0,1-3.059.57,4.27,4.27,0,0,1-4.521-4.636c0-2.773,1.633-4.958,4.312-4.958,3,0,3.8,2.641,3.8,4.331a6.368,6.368,0,0,1-.056.78Zm4.9-1.2a2.38,2.38,0,0,0-2.318-2.716,2.771,2.771,0,0,0-2.565,2.716Z" transform="translate(-173.817 -181.834)"/><path d="M323.191,358.483a1.035,1.035,0,0,1-2.07,0,1.019,1.019,0,0,1,1.045-1.045A.993.993,0,0,1,323.191,358.483Zm-1.861,11.779v-9.195H323v9.195Z" transform="translate(-173.817 -181.834)"/><path d="M325.547,368.552a4.388,4.388,0,0,0,2.2.665c1.216,0,1.786-.608,1.786-1.368,0-.8-.475-1.235-1.71-1.691-1.653-.589-2.431-1.5-2.431-2.6,0-1.482,1.2-2.7,3.172-2.7a4.59,4.59,0,0,1,2.261.57l-.418,1.216a3.579,3.579,0,0,0-1.881-.532c-.988,0-1.539.57-1.539,1.254,0,.76.551,1.1,1.748,1.558,1.6.607,2.413,1.405,2.413,2.773,0,1.615-1.254,2.755-3.439,2.755a5.247,5.247,0,0,1-2.584-.627Z" transform="translate(-173.817 -181.834)"/><path d="M337.251,370.262c.038-.627.076-1.558.076-2.375V356.773h1.653v5.776h.038a3.425,3.425,0,0,1,3.134-1.691c2.28,0,3.9,1.9,3.876,4.693,0,3.286-2.071,4.92-4.122,4.92a3.276,3.276,0,0,1-3.078-1.729h-.057l-.076,1.52Zm1.729-3.686a3.15,3.15,0,0,0,.076.609,2.58,2.58,0,0,0,2.507,1.956c1.749,0,2.793-1.425,2.793-3.534,0-1.842-.95-3.419-2.735-3.419a2.666,2.666,0,0,0-2.546,2.051,3.306,3.306,0,0,0-.095.685Z" transform="translate(-173.817 -181.834)"/><path d="M349.069,365.969a2.945,2.945,0,0,0,3.153,3.191,6.046,6.046,0,0,0,2.546-.475l.285,1.2a7.465,7.465,0,0,1-3.059.57,4.27,4.27,0,0,1-4.521-4.636c0-2.773,1.633-4.958,4.312-4.958,3,0,3.8,2.641,3.8,4.331a6.368,6.368,0,0,1-.056.78Zm4.9-1.2a2.38,2.38,0,0,0-2.318-2.716,2.771,2.771,0,0,0-2.565,2.716Z" transform="translate(-173.817 -181.834)"/><path d="M357.429,368.552a4.381,4.381,0,0,0,2.2.665c1.216,0,1.786-.608,1.786-1.368,0-.8-.475-1.235-1.71-1.691-1.652-.589-2.431-1.5-2.431-2.6,0-1.482,1.2-2.7,3.172-2.7a4.59,4.59,0,0,1,2.261.57l-.418,1.216a3.578,3.578,0,0,0-1.88-.532c-.989,0-1.539.57-1.539,1.254,0,.76.55,1.1,1.748,1.558,1.6.607,2.412,1.405,2.412,2.773,0,1.615-1.254,2.755-3.438,2.755a5.244,5.244,0,0,1-2.584-.627Z" transform="translate(-173.817 -181.834)"/><path d="M367.194,358.427v2.64h2.394v1.273h-2.394V367.3c0,1.14.324,1.786,1.254,1.786a3.719,3.719,0,0,0,.969-.114l.076,1.254a4.115,4.115,0,0,1-1.482.228,2.313,2.313,0,0,1-1.8-.7,3.4,3.4,0,0,1-.646-2.394V362.34h-1.425v-1.273h1.425v-2.2Z" transform="translate(-173.817 -181.834)"/><path d="M197.869,388.084h.038c.228-.322.551-.722.817-1.045l2.7-3.172h2.014l-3.553,3.78,4.047,5.415H201.9l-3.172-4.408-.855.95v3.458h-1.653V379.573h1.653Z" transform="translate(-173.817 -181.834)"/><path d="M205.45,386.355c0-.95-.019-1.728-.076-2.488h1.481l.1,1.52h.038a3.379,3.379,0,0,1,3.039-1.729c1.273,0,3.249.76,3.249,3.913v5.491h-1.672v-5.3c0-1.483-.551-2.717-2.128-2.717a2.375,2.375,0,0,0-2.242,1.71,2.427,2.427,0,0,0-.113.778v5.529H205.45Z" transform="translate(-173.817 -181.834)"/><path d="M224.315,388.389a4.493,4.493,0,0,1-4.578,4.882,4.372,4.372,0,0,1-4.407-4.731c0-3.077,2.014-4.882,4.559-4.882C222.53,383.658,224.315,385.576,224.315,388.389Zm-7.294.094c0,2.014,1.158,3.534,2.792,3.534,1.6,0,2.793-1.5,2.793-3.572,0-1.557-.779-3.533-2.755-3.533S217.021,386.735,217.021,388.483Z" transform="translate(-173.817 -181.834)"/><path d="M226.958,383.867l1.216,4.673c.266,1.026.513,1.976.683,2.926h.058c.209-.931.513-1.919.816-2.906l1.5-4.693h1.406l1.425,4.6c.342,1.1.608,2.071.817,3h.057a27.653,27.653,0,0,1,.7-2.983l1.311-4.616H238.6l-2.963,9.195h-1.52l-1.406-4.389a30.648,30.648,0,0,1-.817-3.021h-.038a27.151,27.151,0,0,1-.836,3.04l-1.481,4.37h-1.52l-2.774-9.195Z" transform="translate(-173.817 -181.834)"/><path d="M244.476,393.062V385.14h-1.292v-1.273h1.292v-.437a4.331,4.331,0,0,1,1.064-3.21,3.194,3.194,0,0,1,2.241-.856,3.854,3.854,0,0,1,1.425.267l-.228,1.291a2.512,2.512,0,0,0-1.064-.209c-1.425,0-1.786,1.254-1.786,2.66v.494h2.223v1.273h-2.223v7.922Z" transform="translate(-173.817 -181.834)"/><path d="M257.927,388.389a4.494,4.494,0,0,1-4.578,4.882,4.373,4.373,0,0,1-4.408-4.731c0-3.077,2.014-4.882,4.559-4.882C256.141,383.658,257.927,385.576,257.927,388.389Zm-7.3.094c0,2.014,1.159,3.534,2.792,3.534,1.6,0,2.793-1.5,2.793-3.572,0-1.557-.779-3.533-2.755-3.533S250.632,386.735,250.632,388.483Z" transform="translate(-173.817 -181.834)"/><path d="M260.037,386.735c0-1.083-.019-2.013-.076-2.868h1.463l.057,1.805h.076a2.759,2.759,0,0,1,2.546-2.014,1.814,1.814,0,0,1,.475.057v1.577a2.514,2.514,0,0,0-.57-.058,2.346,2.346,0,0,0-2.242,2.148,4.682,4.682,0,0,0-.076.778v4.9h-1.653Z" transform="translate(-173.817 -181.834)"/><path d="M272.292,381.227v2.64h2.393v1.273h-2.393V390.1c0,1.14.323,1.786,1.253,1.786a3.719,3.719,0,0,0,.969-.114l.076,1.253a4.09,4.09,0,0,1-1.482.229,2.316,2.316,0,0,1-1.8-.7,3.407,3.407,0,0,1-.646-2.394V385.14h-1.425v-1.273h1.425v-2.2Z" transform="translate(-173.817 -181.834)"/><path d="M276.567,379.573h1.672v5.738h.038a3.089,3.089,0,0,1,1.2-1.178,3.435,3.435,0,0,1,1.709-.475c1.235,0,3.211.76,3.211,3.932v5.472h-1.672V387.78c0-1.481-.551-2.735-2.128-2.735a2.4,2.4,0,0,0-2.241,1.672,2.019,2.019,0,0,0-.114.8v5.547h-1.672Z" transform="translate(-173.817 -181.834)"/><path d="M288.043,388.769a2.945,2.945,0,0,0,3.153,3.191,6.028,6.028,0,0,0,2.546-.476l.285,1.2a7.465,7.465,0,0,1-3.059.57,4.27,4.27,0,0,1-4.521-4.636c0-2.773,1.634-4.958,4.312-4.958,3,0,3.8,2.641,3.8,4.331a6.326,6.326,0,0,1-.057.78Zm4.9-1.2a2.381,2.381,0,0,0-2.318-2.717,2.771,2.771,0,0,0-2.564,2.717Z" transform="translate(-173.817 -181.834)"/><path d="M308.6,379.573v11.114c0,.817.019,1.748.076,2.375h-1.5l-.076-1.6h-.038a3.4,3.4,0,0,1-3.135,1.805c-2.222,0-3.932-1.881-3.932-4.673-.019-3.059,1.881-4.94,4.122-4.94a3.076,3.076,0,0,1,2.774,1.4h.038v-5.49Zm-1.672,8.036a2.951,2.951,0,0,0-.076-.7,2.459,2.459,0,0,0-2.413-1.937c-1.729,0-2.754,1.519-2.754,3.552,0,1.862.912,3.4,2.716,3.4a2.513,2.513,0,0,0,2.451-2,2.9,2.9,0,0,0,.076-.722Z" transform="translate(-173.817 -181.834)"/><path d="M319.068,390.554c0,.95.019,1.786.077,2.508h-1.482l-.1-1.5h-.038a3.46,3.46,0,0,1-3.04,1.71c-1.444,0-3.173-.8-3.173-4.028v-5.376h1.672v5.091c0,1.748.532,2.926,2.052,2.926a2.419,2.419,0,0,0,2.2-1.52,2.445,2.445,0,0,0,.151-.855v-5.642h1.672Z" transform="translate(-173.817 -181.834)"/><path d="M321.615,391.352a4.382,4.382,0,0,0,2.2.665c1.216,0,1.786-.608,1.786-1.369,0-.8-.475-1.234-1.71-1.69-1.653-.589-2.432-1.5-2.432-2.6,0-1.481,1.2-2.7,3.173-2.7a4.583,4.583,0,0,1,2.26.57l-.417,1.215a3.589,3.589,0,0,0-1.881-.531c-.988,0-1.539.569-1.539,1.254,0,.76.551,1.1,1.748,1.558,1.6.607,2.413,1.405,2.413,2.773,0,1.614-1.254,2.755-3.439,2.755a5.244,5.244,0,0,1-2.584-.627Z" transform="translate(-173.817 -181.834)"/><path d="M331.381,381.227v2.64h2.393v1.273h-2.393V390.1c0,1.14.323,1.786,1.254,1.786a3.719,3.719,0,0,0,.969-.114l.076,1.253a4.094,4.094,0,0,1-1.482.229,2.317,2.317,0,0,1-1.805-.7,3.407,3.407,0,0,1-.646-2.394V385.14h-1.425v-1.273h1.425v-2.2Z" transform="translate(-173.817 -181.834)"/><path d="M339.608,393.062c.038-.627.076-1.558.076-2.375V379.573h1.653v5.776h.038a3.425,3.425,0,0,1,3.134-1.691c2.28,0,3.895,1.9,3.876,4.693,0,3.286-2.071,4.92-4.122,4.92a3.276,3.276,0,0,1-3.078-1.729h-.057l-.076,1.52Zm1.729-3.686a3.13,3.13,0,0,0,.076.608,2.579,2.579,0,0,0,2.507,1.956c1.748,0,2.793-1.424,2.793-3.533,0-1.843-.95-3.42-2.735-3.42a2.667,2.667,0,0,0-2.546,2.052,3.3,3.3,0,0,0-.1.685Z" transform="translate(-173.817 -181.834)"/><path d="M358.815,388.389a4.493,4.493,0,0,1-4.578,4.882,4.372,4.372,0,0,1-4.407-4.731c0-3.077,2.014-4.882,4.559-4.882C357.03,383.658,358.815,385.576,358.815,388.389Zm-7.294.094c0,2.014,1.158,3.534,2.792,3.534,1.6,0,2.793-1.5,2.793-3.572,0-1.557-.779-3.533-2.755-3.533S351.521,386.735,351.521,388.483Z" transform="translate(-173.817 -181.834)"/><path d="M361.458,383.867l1.216,4.673c.266,1.026.513,1.976.683,2.926h.058c.209-.931.513-1.919.816-2.906l1.5-4.693h1.406l1.425,4.6c.342,1.1.608,2.071.817,3h.057a27.653,27.653,0,0,1,.7-2.983l1.311-4.616H373.1l-2.963,9.195h-1.52l-1.406-4.389a30.648,30.648,0,0,1-.817-3.021h-.038a27.151,27.151,0,0,1-.836,3.04l-1.481,4.37h-1.52l-2.774-9.195Z" transform="translate(-173.817 -181.834)"/><path d="M374.777,379.573h1.672v13.489h-1.672Z" transform="translate(-173.817 -181.834)"/><path d="M201.307,415.861l-.133-1.159h-.057a3.422,3.422,0,0,1-2.811,1.368,2.619,2.619,0,0,1-2.812-2.64c0-2.223,1.976-3.439,5.528-3.42v-.19a1.9,1.9,0,0,0-2.089-2.128,4.591,4.591,0,0,0-2.394.684l-.38-1.1a5.707,5.707,0,0,1,3.021-.816c2.811,0,3.5,1.918,3.5,3.761v3.438a12.948,12.948,0,0,0,.152,2.2Zm-.247-4.692c-1.824-.038-3.894.285-3.894,2.07a1.48,1.48,0,0,0,1.577,1.6,2.289,2.289,0,0,0,2.222-1.539,1.745,1.745,0,0,0,.095-.532Z" transform="translate(-173.817 -181.834)"/><path d="M205.374,409.155c0-.95-.02-1.728-.076-2.488h1.481l.1,1.52h.038a3.379,3.379,0,0,1,3.039-1.729c1.273,0,3.249.76,3.249,3.913v5.49h-1.672v-5.3c0-1.483-.551-2.717-2.128-2.717a2.452,2.452,0,0,0-2.356,2.488v5.528h-1.671Z" transform="translate(-173.817 -181.834)"/><path d="M223.859,402.373v11.113c0,.818.019,1.748.077,2.375h-1.5l-.077-1.595h-.037a3.4,3.4,0,0,1-3.135,1.8c-2.223,0-3.933-1.881-3.933-4.673-.018-3.058,1.881-4.939,4.123-4.939a3.074,3.074,0,0,1,2.773,1.4h.039v-5.49Zm-1.671,8.036a3,3,0,0,0-.076-.7,2.459,2.459,0,0,0-2.413-1.937c-1.729,0-2.755,1.519-2.755,3.552,0,1.862.912,3.4,2.717,3.4a2.515,2.515,0,0,0,2.451-2,2.952,2.952,0,0,0,.076-.722Z" transform="translate(-173.817 -181.834)"/><path d="M230.662,409.155c0-.95-.019-1.728-.076-2.488h1.463l.076,1.481h.057a3.168,3.168,0,0,1,2.887-1.69,2.719,2.719,0,0,1,2.6,1.843h.038a3.777,3.777,0,0,1,1.026-1.2,3.138,3.138,0,0,1,2.033-.646c1.215,0,3.02.8,3.02,3.989v5.414h-1.634v-5.2c0-1.766-.645-2.831-1.994-2.831a2.164,2.164,0,0,0-1.976,1.521,2.743,2.743,0,0,0-.133.836v5.679h-1.634v-5.508c0-1.463-.646-2.528-1.918-2.528a2.492,2.492,0,0,0-2.2,2.489v5.547h-1.634Z" transform="translate(-173.817 -181.834)"/><path d="M251.6,415.861l-.133-1.159h-.057a3.424,3.424,0,0,1-2.812,1.368,2.618,2.618,0,0,1-2.811-2.64c0-2.223,1.975-3.439,5.527-3.42v-.19a1.9,1.9,0,0,0-2.089-2.128,4.585,4.585,0,0,0-2.393.684l-.381-1.1a5.707,5.707,0,0,1,3.021-.816c2.812,0,3.5,1.918,3.5,3.761v3.438a12.84,12.84,0,0,0,.153,2.2Zm-.247-4.692c-1.824-.038-3.9.285-3.9,2.07a1.48,1.48,0,0,0,1.577,1.6,2.289,2.289,0,0,0,2.223-1.539,1.776,1.776,0,0,0,.095-.532Z" transform="translate(-173.817 -181.834)"/><path d="M255.666,409.155c0-.95-.019-1.728-.076-2.488h1.482l.095,1.52h.038a3.382,3.382,0,0,1,3.04-1.729c1.272,0,3.248.76,3.248,3.913v5.49h-1.672v-5.3c0-1.483-.55-2.717-2.128-2.717a2.452,2.452,0,0,0-2.355,2.488v5.528h-1.672Z" transform="translate(-173.817 -181.834)"/><path d="M266.572,406.667l2.014,5.433c.209.608.437,1.33.589,1.88h.038c.171-.55.361-1.253.589-1.918l1.823-5.4h1.768l-2.508,6.554c-1.2,3.153-2.014,4.768-3.154,5.756a4.539,4.539,0,0,1-2.051,1.083l-.418-1.406a4.419,4.419,0,0,0,1.462-.817,5.065,5.065,0,0,0,1.406-1.861,1.2,1.2,0,0,0,.133-.4,1.454,1.454,0,0,0-.114-.436l-3.4-8.473Z" transform="translate(-173.817 -181.834)"/><path d="M280.955,404.026v2.641h2.393v1.272h-2.393V412.9c0,1.14.323,1.787,1.253,1.787a3.661,3.661,0,0,0,.969-.115l.076,1.254a4.09,4.09,0,0,1-1.482.229,2.316,2.316,0,0,1-1.8-.7,3.41,3.41,0,0,1-.646-2.394v-5.016H277.9v-1.272h1.425v-2.2Z" transform="translate(-173.817 -181.834)"/><path d="M292.924,413.354c0,.95.019,1.786.076,2.507h-1.482l-.095-1.5h-.038a3.457,3.457,0,0,1-3.039,1.71c-1.444,0-3.173-.8-3.173-4.027v-5.376h1.672v5.091c0,1.748.532,2.926,2.051,2.926a2.418,2.418,0,0,0,2.2-1.52,2.445,2.445,0,0,0,.152-.855v-5.642h1.672Z" transform="translate(-173.817 -181.834)"/><path d="M295.7,409.155c0-.95-.019-1.728-.076-2.488h1.462l.077,1.481h.057a3.166,3.166,0,0,1,2.887-1.69,2.719,2.719,0,0,1,2.6,1.843h.038a3.788,3.788,0,0,1,1.025-1.2,3.142,3.142,0,0,1,2.033-.646c1.216,0,3.021.8,3.021,3.989v5.414h-1.634v-5.2c0-1.766-.646-2.831-2-2.831a2.164,2.164,0,0,0-1.975,1.521,2.743,2.743,0,0,0-.133.836v5.679h-1.634v-5.508c0-1.463-.646-2.528-1.919-2.528a2.285,2.285,0,0,0-2.071,1.672,2.327,2.327,0,0,0-.132.817v5.547H295.7Z" transform="translate(-173.817 -181.834)"/><path d="M311.469,415.861c.038-.627.076-1.557.076-2.375V402.373H313.2v5.775h.038a3.426,3.426,0,0,1,3.134-1.69c2.28,0,3.895,1.9,3.876,4.692,0,3.287-2.071,4.92-4.122,4.92a3.273,3.273,0,0,1-3.078-1.728h-.057l-.076,1.519Zm1.729-3.685a3.13,3.13,0,0,0,.076.608,2.579,2.579,0,0,0,2.507,1.956c1.748,0,2.793-1.425,2.793-3.533,0-1.843-.95-3.42-2.736-3.42a2.665,2.665,0,0,0-2.545,2.052,3.3,3.3,0,0,0-.1.684Z" transform="translate(-173.817 -181.834)"/><path d="M322.355,402.373h1.672v13.488h-1.672Z" transform="translate(-173.817 -181.834)"/><path d="M327.771,411.568a2.945,2.945,0,0,0,3.153,3.192,6.02,6.02,0,0,0,2.545-.476l.285,1.2a7.435,7.435,0,0,1-3.058.571,4.271,4.271,0,0,1-4.522-4.636c0-2.773,1.634-4.958,4.313-4.958,3,0,3.8,2.641,3.8,4.331a6.113,6.113,0,0,1-.057.779Zm4.9-1.2c.019-1.063-.436-2.717-2.317-2.717a2.771,2.771,0,0,0-2.565,2.717Z" transform="translate(-173.817 -181.834)"/><path d="M196.881,429.467l1.216,4.673c.266,1.026.512,1.975.683,2.925h.057c.209-.93.514-1.919.817-2.906l1.5-4.692h1.406l1.425,4.6c.342,1.1.608,2.072.817,3h.056a27.953,27.953,0,0,1,.7-2.982l1.311-4.616h1.652l-2.963,9.194h-1.52l-1.406-4.389a30.553,30.553,0,0,1-.817-3.02h-.038a27.21,27.21,0,0,1-.836,3.04l-1.482,4.369h-1.519l-2.774-9.194Z" transform="translate(-173.817 -181.834)"/><path d="M210.941,434.368a2.945,2.945,0,0,0,3.153,3.192,6.028,6.028,0,0,0,2.546-.476l.285,1.2a7.445,7.445,0,0,1-3.059.571,4.271,4.271,0,0,1-4.521-4.636c0-2.774,1.634-4.958,4.312-4.958,3,0,3.8,2.64,3.8,4.331a6.306,6.306,0,0,1-.057.779Zm4.9-1.2c.019-1.064-.437-2.717-2.318-2.717a2.772,2.772,0,0,0-2.565,2.717Z" transform="translate(-173.817 -181.834)"/><path d="M220.46,434.368a2.945,2.945,0,0,0,3.153,3.192,6.028,6.028,0,0,0,2.546-.476l.285,1.2a7.445,7.445,0,0,1-3.059.571,4.271,4.271,0,0,1-4.521-4.636c0-2.774,1.634-4.958,4.312-4.958,3,0,3.8,2.64,3.8,4.331a6.306,6.306,0,0,1-.057.779Zm4.9-1.2c.019-1.064-.437-2.717-2.318-2.717a2.771,2.771,0,0,0-2.564,2.717Z" transform="translate(-173.817 -181.834)"/><path d="M236.989,425.173v11.113c0,.818.019,1.748.076,2.375h-1.5l-.076-1.6h-.038a3.4,3.4,0,0,1-3.135,1.805c-2.222,0-3.932-1.881-3.932-4.673-.019-3.058,1.881-4.939,4.122-4.939a3.076,3.076,0,0,1,2.774,1.405h.038v-5.49Zm-1.672,8.036a2.951,2.951,0,0,0-.076-.7,2.459,2.459,0,0,0-2.413-1.938c-1.728,0-2.754,1.52-2.754,3.553,0,1.861.912,3.4,2.717,3.4a2.513,2.513,0,0,0,2.45-2,2.9,2.9,0,0,0,.076-.721Z" transform="translate(-173.817 -181.834)"/><path d="M239.536,436.951a4.381,4.381,0,0,0,2.2.665c1.216,0,1.786-.607,1.786-1.368,0-.8-.475-1.234-1.71-1.69-1.652-.589-2.431-1.5-2.431-2.6,0-1.481,1.2-2.7,3.172-2.7a4.59,4.59,0,0,1,2.261.569l-.418,1.216a3.579,3.579,0,0,0-1.88-.531c-.989,0-1.54.569-1.54,1.254,0,.759.551,1.1,1.749,1.557,1.595.608,2.412,1.406,2.412,2.774,0,1.614-1.254,2.755-3.438,2.755a5.255,5.255,0,0,1-2.584-.627Z" transform="translate(-173.817 -181.834)"/><path d="M246.68,437.673a1.123,1.123,0,0,1,1.14-1.2,1.2,1.2,0,1,1-1.14,1.2Z" transform="translate(-173.817 -181.834)"/></g></svg>