<svg xmlns="http://www.w3.org/2000/svg" xmlns:xlink="http://www.w3.org/1999/xlink" width="483.174" height="274.697" viewBox="0 0 483.174 274.697"><defs><clipPath id="clip-path" transform="translate(-173.817 -181.834)"><rect x="-32.201" y="-29.669" width="1134.933" height="648.472" fill="none"/></clipPath></defs><title>region6</title><g id="Layer_2" data-name="Layer 2"><rect x="1.5" y="1.5" width="480.174" height="271.697" rx="12" fill="#fff" stroke="#1e1109" stroke-miterlimit="10" stroke-width="3"/></g><g id="Layer_4" data-name="Layer 4"><g clip-path="url(#clip-path)"><polygon points="428.773 26.001 430.394 26.001 431.205 26.001 432.015 26.001 432.826 26.001 433.637 26.001 435.258 26.001 436.069 26.001 436.88 26.001 437.69 26.001 438.501 26.001 439.312 26.001 440.123 26.001 440.933 26.001 442.555 26.001 442.555 27.622 442.555 28.432 442.555 29.243 442.555 30.054 442.555 31.675 442.555 33.296 442.555 34.107 442.555 36.538 442.555 37.349 443.366 37.349 444.176 37.349 445.798 37.349 446.608 37.349 447.419 37.349 449.041 37.349 450.662 37.349 452.283 37.349 453.094 37.349 453.905 37.349 454.716 37.349 455.526 37.349 456.337 37.349 457.148 37.349 457.958 37.349 458.769 37.349 459.58 37.349 460.391 37.349 462.012 37.349 462.823 37.349 464.444 37.349 466.066 37.349 466.876 37.349 467.687 37.349 467.687 38.16 467.687 40.591 466.876 41.402 466.876 42.212 466.876 43.023 466.876 44.644 466.876 45.455 466.876 46.265 466.876 47.887 466.876 48.697 466.876 49.508 466.876 50.318 466.876 51.129 466.876 52.75 466.876 53.561 466.876 54.371 467.687 57.614 467.687 58.424 467.687 59.235 467.687 60.045 467.687 60.856 467.687 61.667 467.687 62.477 467.687 63.288 467.687 64.098 467.687 64.909 466.876 64.909 466.066 64.909 465.255 64.909 464.444 64.909 463.633 64.909 462.823 64.909 461.201 64.909 460.391 64.909 459.58 64.909 458.769 64.909 457.958 64.909 457.148 64.909 455.526 64.909 453.905 64.909 453.094 64.909 452.283 64.909 451.473 64.909 450.662 64.909 449.851 64.909 449.041 64.909 448.23 64.909 447.419 64.909 446.608 64.909 445.798 64.909 444.176 64.909 443.366 64.909 442.555 64.909 441.744 64.909 440.933 64.909 440.123 64.909 439.312 64.909 438.501 64.909 437.69 64.909 436.88 64.909 436.069 64.909 435.258 64.909 434.448 64.909 432.826 64.909 431.205 64.909 430.394 64.909 429.583 64.909 428.773 64.909 427.962 64.909 426.341 64.909 423.908 64.909 423.098 64.909 422.287 64.909 421.476 64.909 420.665 64.909 419.855 64.909 419.044 64.909 418.233 64.909 416.612 64.909 414.99 64.909 414.18 64.909 413.369 64.909 412.558 64.909 410.126 64.909 409.315 64.909 408.505 64.909 407.694 64.909 406.073 64.909 404.451 64.909 403.64 64.909 402.83 64.909 401.208 64.909 401.208 64.098 401.208 63.288 401.208 62.477 401.208 63.288 400.398 63.288 400.398 64.098 399.587 64.098 398.776 64.098 398.776 64.909 397.965 64.909 397.155 64.909 396.344 64.909 395.533 64.909 394.723 64.909 393.912 64.909 393.101 64.909 393.101 64.098 392.29 64.098 392.29 63.288 391.48 63.288 391.48 62.477 390.669 62.477 390.669 61.667 389.858 61.667 389.048 61.667 389.048 60.856 388.237 60.856 387.426 60.856 386.615 60.856 385.805 60.856 384.994 60.856 384.183 60.856 383.373 60.856 383.373 60.045 382.562 60.045 382.562 59.235 382.562 58.424 382.562 57.614 381.751 57.614 381.751 56.803 380.94 56.803 380.94 55.993 380.13 55.993 379.319 55.993 378.508 55.993 377.698 55.993 376.887 55.993 376.887 56.803 376.076 56.803 376.076 57.614 376.076 58.424 375.265 58.424 375.265 59.235 374.455 59.235 373.644 59.235 373.644 58.424 373.644 57.614 373.644 56.803 373.644 55.993 373.644 55.182 373.644 53.561 373.644 51.94 373.644 50.318 373.644 48.697 373.644 47.887 373.644 46.265 373.644 44.644 373.644 43.023 373.644 41.402 373.644 40.591 373.644 39.781 373.644 38.97 373.644 38.16 373.644 37.349 374.455 37.349 375.265 37.349 376.076 37.349 376.887 37.349 377.698 37.349 378.508 37.349 379.319 37.349 380.94 37.349 381.751 37.349 383.373 37.349 384.183 37.349 384.994 37.349 385.805 37.349 386.615 37.349 387.426 37.349 388.237 37.349 389.048 37.349 389.858 37.349 390.669 37.349 391.48 37.349 392.29 37.349 393.912 37.349 394.723 37.349 396.344 37.349 397.155 37.349 398.776 37.349 399.587 37.349 401.208 37.349 401.208 36.538 401.208 34.917 401.208 34.107 401.208 33.296 401.208 31.675 401.208 30.864 401.208 30.054 401.208 28.432 401.208 27.622 401.208 26.001 402.019 26.001 402.83 26.001 403.64 26.001 405.262 26.001 406.073 26.001 407.694 26.001 408.505 26.001 409.315 26.001 410.126 26.001 412.558 26.001 413.369 26.001 414.99 26.001 415.801 26.001 417.423 26.001 418.233 26.001 419.044 26.001 419.855 26.001 421.476 26.001 422.287 26.001 423.098 26.001 423.908 26.001 424.719 26.001 425.53 26.001 426.341 26.001 428.773 26.001" fill="#b2b2b2"/><polyline points="428.773 26.001 430.394 26.001 431.205 26.001 432.015 26.001 432.826 26.001 433.637 26.001 435.258 26.001 436.069 26.001 436.88 26.001 437.69 26.001 438.501 26.001 439.312 26.001 440.123 26.001 440.933 26.001 442.555 26.001 442.555 27.622 442.555 28.432 442.555 29.243 442.555 30.054 442.555 31.675 442.555 33.296 442.555 34.107 442.555 36.538 442.555 37.349 443.366 37.349 444.176 37.349 445.798 37.349 446.608 37.349 447.419 37.349 449.041 37.349 450.662 37.349 452.283 37.349 453.094 37.349 453.905 37.349 454.716 37.349 455.526 37.349 456.337 37.349 457.148 37.349 457.958 37.349 458.769 37.349 459.58 37.349 460.391 37.349 462.012 37.349 462.823 37.349 464.444 37.349 466.066 37.349 466.876 37.349 467.687 37.349 467.687 38.16 467.687 40.591 466.876 41.402 466.876 42.212 466.876 43.023 466.876 44.644 466.876 45.455 466.876 46.265 466.876 47.887 466.876 48.697 466.876 49.508 466.876 50.318 466.876 51.129 466.876 52.75 466.876 53.561 466.876 54.371 467.687 57.614 467.687 58.424 467.687 59.235 467.687 60.045 467.687 60.856 467.687 61.667 467.687 62.477 467.687 63.288 467.687 64.098 467.687 64.909 466.876 64.909 466.066 64.909 465.255 64.909 464.444 64.909 463.633 64.909 462.823 64.909 461.201 64.909 460.391 64.909 459.58 64.909 458.769 64.909 457.958 64.909 457.148 64.909 455.526 64.909 453.905 64.909 453.094 64.909 452.283 64.909 451.473 64.909 450.662 64.909 449.851 64.909 449.041 64.909 448.23 64.909 447.419 64.909 446.608 64.909 445.798 64.909 444.176 64.909 443.366 64.909 442.555 64.909 441.744 64.909 440.933 64.909 440.123 64.909 439.312 64.909 438.501 64.909 437.69 64.909 436.88 64.909 436.069 64.909 435.258 64.909 434.448 64.909 432.826 64.909 431.205 64.909 430.394 64.909 429.583 64.909 428.773 64.909 427.962 64.909 426.341 64.909 423.908 64.909 423.098 64.909 422.287 64.909 421.476 64.909 420.665 64.909 419.855 64.909 419.044 64.909 418.233 64.909 416.612 64.909 414.99 64.909 414.18 64.909 413.369 64.909 412.558 64.909 410.126 64.909 409.315 64.909 408.505 64.909 407.694 64.909 406.073 64.909 404.451 64.909 403.64 64.909 402.83 64.909 401.208 64.909 401.208 64.098 401.208 63.288 401.208 62.477 401.208 63.288 400.398 63.288 400.398 64.098 399.587 64.098 398.776 64.098 398.776 64.909 397.965 64.909 397.155 64.909 396.344 64.909 395.533 64.909 394.723 64.909 393.912 64.909 393.101 64.909 393.101 64.098 392.29 64.098 392.29 63.288 391.48 63.288 391.48 62.477 390.669 62.477 390.669 61.667 389.858 61.667 389.048 61.667 389.048 60.856 388.237 60.856 387.426 60.856 386.615 60.856 385.805 60.856 384.994 60.856 384.183 60.856 383.373 60.856 383.373 60.045 382.562 60.045 382.562 59.235 382.562 58.424 382.562 57.614 381.751 57.614 381.751 56.803 380.94 56.803 380.94 55.993 380.13 55.993 379.319 55.993 378.508 55.993 377.698 55.993 376.887 55.993 376.887 56.803 376.076 56.803 376.076 57.614 376.076 58.424 375.265 58.424 375.265 59.235 374.455 59.235 373.644 59.235 373.644 58.424 373.644 57.614 373.644 56.803 373.644 55.993 373.644 55.182 373.644 53.561 373.644 51.94 373.644 50.318 373.644 48.697 373.644 47.887 373.644 46.265 373.644 44.644 373.644 43.023 373.644 41.402 373.644 40.591 373.644 39.781 373.644 38.97 373.644 38.16 373.644 37.349 374.455 37.349 375.265 37.349 376.076 37.349 376.887 37.349 377.698 37.349 378.508 37.349 379.319 37.349 380.94 37.349 381.751 37.349 383.373 37.349 384.183 37.349 384.994 37.349 385.805 37.349 386.615 37.349 387.426 37.349 388.237 37.349 389.048 37.349 389.858 37.349 390.669 37.349 391.48 37.349 392.29 37.349 393.912 37.349 394.723 37.349 396.344 37.349 397.155 37.349 398.776 37.349 399.587 37.349 401.208 37.349 401.208 36.538 401.208 34.917 401.208 34.107 401.208 33.296 401.208 31.675 401.208 30.864 401.208 30.054 401.208 28.432 401.208 27.622 401.208 26.001 402.019 26.001 402.83 26.001 403.64 26.001 405.262 26.001 406.073 26.001 407.694 26.001 408.505 26.001 409.315 26.001 410.126 26.001 412.558 26.001 413.369 26.001 414.99 26.001 415.801 26.001 417.423 26.001 418.233 26.001 419.044 26.001 419.855 26.001 421.476 26.001 422.287 26.001 423.098 26.001 423.908 26.001 424.719 26.001 425.53 26.001 426.341 26.001 428.773 26.001" fill="none" stroke="#fff" stroke-linecap="round" stroke-linejoin="round" stroke-width="1.08"/><polygon points="265.008 92.469 265.008 91.658 265.008 90.848 265.008 89.227 265.008 87.605 265.008 86.795 265.008 85.174 265.008 84.363 265.008 83.553 265.008 81.931 265.008 81.121 265.008 80.31 265.008 79.5 265.008 78.689 265.008 77.878 265.008 77.068 265.008 76.257 265.008 75.447 265.008 74.636 265.008 73.825 265.008 72.204 265.008 70.583 265.008 69.773 265.008 68.962 265.008 66.53 265.008 65.72 265.008 64.909 265.008 63.288 265.008 62.477 265.008 60.856 265.008 60.045 265.008 59.235 265.008 58.424 265.008 57.614 265.008 55.993 265.008 55.182 265.008 53.561 265.008 51.94 265.008 51.129 265.008 50.318 265.008 47.887 265.008 46.265 265.008 45.455 265.008 44.644 265.008 43.023 265.008 41.402 265.008 40.591 265.008 39.781 265.008 38.97 265.008 38.16 265.008 37.349 265.008 36.538 264.197 36.538 265.819 36.538 267.44 36.538 269.872 36.538 271.494 36.538 272.304 36.538 273.115 36.538 273.926 36.538 275.547 36.538 277.979 36.538 278.79 36.538 279.601 36.538 280.412 36.538 281.222 36.538 282.033 36.538 282.844 36.538 285.276 36.538 286.897 36.538 288.519 36.538 289.329 36.538 290.951 36.538 291.762 36.538 293.383 36.538 294.194 36.538 295.815 36.538 296.626 36.538 297.437 36.538 299.058 36.538 299.869 36.538 300.679 36.538 301.49 36.538 303.112 36.538 303.922 36.538 304.733 36.538 305.544 36.538 306.354 36.538 307.165 36.538 307.976 36.538 309.597 36.538 310.408 36.538 312.029 36.538 312.84 36.538 313.651 36.538 314.462 36.538 316.894 36.538 317.705 36.538 318.515 36.538 319.326 36.538 320.947 36.538 321.758 36.538 322.569 36.538 323.38 36.538 325.001 36.538 325.812 36.538 326.622 36.538 327.433 36.538 328.244 36.538 329.055 36.538 330.676 36.538 331.487 36.538 333.108 36.538 333.108 37.349 333.108 38.16 333.108 38.97 333.108 40.591 333.108 41.402 333.108 43.023 333.108 43.834 333.108 44.644 333.108 45.455 333.108 46.265 333.108 47.076 333.108 47.887 333.108 49.508 333.108 50.318 333.108 51.129 333.108 51.94 333.108 53.561 333.108 54.371 333.108 55.182 333.108 55.993 333.108 57.614 333.108 58.424 333.108 59.235 333.108 60.045 333.108 60.856 333.108 63.288 333.108 64.098 333.108 64.909 333.108 65.72 333.108 66.53 333.108 67.341 333.108 68.151 333.108 68.962 333.108 69.773 333.108 70.583 333.108 72.204 333.108 73.825 333.108 74.636 333.108 75.447 333.108 76.257 333.108 77.068 333.108 77.878 333.108 78.689 333.108 79.5 333.108 80.31 333.108 81.121 333.108 81.931 333.108 82.742 333.108 83.553 333.108 85.174 333.108 85.984 333.108 86.795 333.108 87.605 333.108 88.416 333.108 89.227 333.108 90.037 333.108 90.848 333.108 92.469 331.487 92.469 330.676 92.469 329.865 92.469 328.244 92.469 327.433 92.469 326.622 92.469 324.19 92.469 323.38 92.469 322.569 92.469 321.758 92.469 320.947 92.469 320.137 92.469 319.326 92.469 318.515 92.469 316.894 92.469 316.083 92.469 315.272 92.469 314.462 92.469 313.651 92.469 312.84 92.469 310.408 92.469 307.976 92.469 307.165 92.469 306.354 92.469 305.544 92.469 303.112 92.469 301.49 92.469 299.869 92.469 299.058 92.469 296.626 92.469 295.815 92.469 295.004 92.469 294.194 92.469 293.383 92.469 291.762 92.469 290.951 92.469 290.14 92.469 288.519 92.469 287.708 92.469 286.897 92.469 285.276 92.469 282.844 92.469 280.412 92.469 279.601 92.469 278.79 92.469 277.169 92.469 276.358 92.469 275.547 92.469 274.737 92.469 273.115 92.469 272.304 92.469 271.494 92.469 270.683 92.469 269.872 92.469 268.251 92.469 266.629 92.469 265.819 92.469 265.008 92.469 265.008 92.469" fill="#b2b2b2"/><polyline points="265.008 92.469 265.008 91.658 265.008 90.848 265.008 89.227 265.008 87.605 265.008 86.795 265.008 85.174 265.008 84.363 265.008 83.553 265.008 81.931 265.008 81.121 265.008 80.31 265.008 79.5 265.008 78.689 265.008 77.878 265.008 77.068 265.008 76.257 265.008 75.447 265.008 74.636 265.008 73.825 265.008 72.204 265.008 70.583 265.008 69.773 265.008 68.962 265.008 66.53 265.008 65.72 265.008 64.909 265.008 63.288 265.008 62.477 265.008 60.856 265.008 60.045 265.008 59.235 265.008 58.424 265.008 57.614 265.008 55.993 265.008 55.182 265.008 53.561 265.008 51.94 265.008 51.129 265.008 50.318 265.008 47.887 265.008 46.265 265.008 45.455 265.008 44.644 265.008 43.023 265.008 41.402 265.008 40.591 265.008 39.781 265.008 38.97 265.008 38.16 265.008 37.349 265.008 36.538 264.197 36.538 265.819 36.538 267.44 36.538 269.872 36.538 271.494 36.538 272.304 36.538 273.115 36.538 273.926 36.538 275.547 36.538 277.979 36.538 278.79 36.538 279.601 36.538 280.412 36.538 281.222 36.538 282.033 36.538 282.844 36.538 285.276 36.538 286.897 36.538 288.519 36.538 289.329 36.538 290.951 36.538 291.762 36.538 293.383 36.538 294.194 36.538 295.815 36.538 296.626 36.538 297.437 36.538 299.058 36.538 299.869 36.538 300.679 36.538 301.49 36.538 303.112 36.538 303.922 36.538 304.733 36.538 305.544 36.538 306.354 36.538 307.165 36.538 307.976 36.538 309.597 36.538 310.408 36.538 312.029 36.538 312.84 36.538 313.651 36.538 314.462 36.538 316.894 36.538 317.705 36.538 318.515 36.538 319.326 36.538 320.947 36.538 321.758 36.538 322.569 36.538 323.38 36.538 325.001 36.538 325.812 36.538 326.622 36.538 327.433 36.538 328.244 36.538 329.055 36.538 330.676 36.538 331.487 36.538 333.108 36.538 333.108 37.349 333.108 38.16 333.108 38.97 333.108 40.591 333.108 41.402 333.108 43.023 333.108 43.834 333.108 44.644 333.108 45.455 333.108 46.265 333.108 47.076 333.108 47.887 333.108 49.508 333.108 50.318 333.108 51.129 333.108 51.94 333.108 53.561 333.108 54.371 333.108 55.182 333.108 55.993 333.108 57.614 333.108 58.424 333.108 59.235 333.108 60.045 333.108 60.856 333.108 63.288 333.108 64.098 333.108 64.909 333.108 65.72 333.108 66.53 333.108 67.341 333.108 68.151 333.108 68.962 333.108 69.773 333.108 70.583 333.108 72.204 333.108 73.825 333.108 74.636 333.108 75.447 333.108 76.257 333.108 77.068 333.108 77.878 333.108 78.689 333.108 79.5 333.108 80.31 333.108 81.121 333.108 81.931 333.108 82.742 333.108 83.553 333.108 85.174 333.108 85.984 333.108 86.795 333.108 87.605 333.108 88.416 333.108 89.227 333.108 90.037 333.108 90.848 333.108 92.469 331.487 92.469 330.676 92.469 329.865 92.469 328.244 92.469 327.433 92.469 326.622 92.469 324.19 92.469 323.38 92.469 322.569 92.469 321.758 92.469 320.947 92.469 320.137 92.469 319.326 92.469 318.515 92.469 316.894 92.469 316.083 92.469 315.272 92.469 314.462 92.469 313.651 92.469 312.84 92.469 310.408 92.469 307.976 92.469 307.165 92.469 306.354 92.469 305.544 92.469 303.112 92.469 301.49 92.469 299.869 92.469 299.058 92.469 296.626 92.469 295.815 92.469 295.004 92.469 294.194 92.469 293.383 92.469 291.762 92.469 290.951 92.469 290.14 92.469 288.519 92.469 287.708 92.469 286.897 92.469 285.276 92.469 282.844 92.469 280.412 92.469 279.601 92.469 278.79 92.469 277.169 92.469 276.358 92.469 275.547 92.469 274.737 92.469 273.115 92.469 272.304 92.469 271.494 92.469 270.683 92.469 269.872 92.469 268.251 92.469 266.629 92.469 265.819 92.469 265.008 92.469 265.008 92.469" fill="none" stroke="#fff" stroke-linecap="round" stroke-linejoin="round" stroke-width="1.08"/><polygon points="360.672 36.538 362.294 36.538 363.915 36.538 364.726 36.538 366.347 36.538 367.158 36.538 367.969 36.538 369.59 36.538 371.212 36.538 372.022 36.538 372.833 36.538 373.644 36.538 373.644 37.349 373.644 38.16 373.644 38.97 373.644 39.781 373.644 40.591 373.644 41.402 373.644 43.023 373.644 44.644 373.644 46.265 373.644 47.887 373.644 48.697 373.644 50.318 373.644 51.94 373.644 53.561 373.644 55.182 373.644 55.993 373.644 56.803 373.644 57.614 373.644 58.424 373.644 59.235 374.455 59.235 375.265 59.235 375.265 58.424 376.076 58.424 376.076 57.614 376.076 56.803 376.887 56.803 376.887 55.993 377.698 55.993 378.508 55.993 379.319 55.993 380.13 55.993 380.94 55.993 380.94 56.803 381.751 56.803 381.751 57.614 382.562 57.614 382.562 58.424 382.562 59.235 382.562 60.045 383.373 60.045 383.373 60.856 384.183 60.856 384.994 60.856 385.805 60.856 386.615 60.856 387.426 60.856 388.237 60.856 389.048 60.856 389.048 61.667 389.858 61.667 390.669 61.667 390.669 62.477 391.48 62.477 391.48 63.288 392.29 63.288 392.29 64.098 393.101 64.098 393.101 64.909 393.912 64.909 394.723 64.909 395.533 64.909 396.344 64.909 397.155 64.909 397.965 64.909 398.776 64.909 398.776 64.098 399.587 64.098 400.398 64.098 400.398 63.288 401.208 63.288 401.208 62.477 401.208 63.288 401.208 64.098 401.208 64.909 401.208 66.53 401.208 68.151 401.208 68.962 401.208 69.773 401.208 70.583 401.208 72.204 401.208 73.015 401.208 73.825 401.208 75.447 401.208 76.257 401.208 77.878 401.208 78.689 401.208 79.5 401.208 80.31 401.208 81.931 401.208 82.742 401.208 83.553 401.208 84.363 401.208 85.174 401.208 85.984 401.208 86.795 401.208 88.416 401.208 89.227 401.208 90.037 401.208 90.848 401.208 91.658 401.208 92.469 400.398 92.469 398.776 92.469 397.155 92.469 396.344 92.469 395.533 92.469 394.723 92.469 393.912 92.469 392.29 92.469 390.669 92.469 389.048 92.469 387.426 92.469 386.615 92.469 384.994 92.469 383.373 92.469 382.562 92.469 381.751 92.469 380.94 92.469 378.508 92.469 377.698 92.469 376.076 92.469 373.644 92.469 372.833 92.469 372.022 92.469 371.212 92.469 370.401 92.469 369.59 92.469 368.78 92.469 367.969 92.469 367.158 92.469 366.347 92.469 365.537 92.469 364.726 92.469 363.915 92.469 363.105 92.469 362.294 92.469 361.483 92.469 360.672 92.469 359.862 92.469 359.051 92.469 358.24 92.469 357.43 92.469 356.619 92.469 355.808 92.469 354.997 92.469 353.376 92.469 352.565 92.469 351.755 92.469 350.944 92.469 349.322 92.469 348.512 92.469 346.89 92.469 346.08 92.469 345.269 92.469 344.458 92.469 343.647 92.469 342.837 92.469 342.026 92.469 340.405 92.469 339.594 92.469 337.972 92.469 337.162 92.469 335.54 92.469 334.73 92.469 333.919 92.469 333.108 92.469 333.108 90.848 333.108 90.037 333.108 89.227 333.108 88.416 333.108 87.605 333.108 86.795 333.108 85.984 333.108 85.174 333.108 83.553 333.108 82.742 333.108 81.931 333.108 81.121 333.108 80.31 333.108 79.5 333.108 78.689 333.108 77.878 333.108 77.068 333.108 76.257 333.108 75.447 333.108 74.636 333.108 73.825 333.108 72.204 333.108 70.583 333.108 69.773 333.108 68.962 333.108 68.151 333.108 67.341 333.108 66.53 333.108 65.72 333.108 64.909 333.108 64.098 333.108 63.288 333.108 60.856 333.108 60.045 333.108 59.235 333.108 58.424 333.108 57.614 333.108 55.993 333.108 55.182 333.108 54.371 333.108 53.561 333.108 51.94 333.108 51.129 333.108 50.318 333.108 49.508 333.108 47.887 333.108 47.076 333.108 46.265 333.108 45.455 333.108 44.644 333.108 43.834 333.108 43.023 333.108 41.402 333.108 40.591 333.108 38.97 333.108 38.16 333.108 37.349 333.108 36.538 333.919 36.538 335.54 36.538 336.351 36.538 337.162 36.538 337.972 36.538 338.783 36.538 339.594 36.538 342.026 36.538 342.837 36.538 343.647 36.538 344.458 36.538 346.89 36.538 347.701 36.538 348.512 36.538 350.944 36.538 352.565 36.538 354.997 36.538 355.808 36.538 356.619 36.538 358.24 36.538 359.051 36.538 360.672 36.538" fill="#b2b2b2"/><polyline points="360.672 36.538 362.294 36.538 363.915 36.538 364.726 36.538 366.347 36.538 367.158 36.538 367.969 36.538 369.59 36.538 371.212 36.538 372.022 36.538 372.833 36.538 373.644 36.538 373.644 37.349 373.644 38.16 373.644 38.97 373.644 39.781 373.644 40.591 373.644 41.402 373.644 43.023 373.644 44.644 373.644 46.265 373.644 47.887 373.644 48.697 373.644 50.318 373.644 51.94 373.644 53.561 373.644 55.182 373.644 55.993 373.644 56.803 373.644 57.614 373.644 58.424 373.644 59.235 374.455 59.235 375.265 59.235 375.265 58.424 376.076 58.424 376.076 57.614 376.076 56.803 376.887 56.803 376.887 55.993 377.698 55.993 378.508 55.993 379.319 55.993 380.13 55.993 380.94 55.993 380.94 56.803 381.751 56.803 381.751 57.614 382.562 57.614 382.562 58.424 382.562 59.235 382.562 60.045 383.373 60.045 383.373 60.856 384.183 60.856 384.994 60.856 385.805 60.856 386.615 60.856 387.426 60.856 388.237 60.856 389.048 60.856 389.048 61.667 389.858 61.667 390.669 61.667 390.669 62.477 391.48 62.477 391.48 63.288 392.29 63.288 392.29 64.098 393.101 64.098 393.101 64.909 393.912 64.909 394.723 64.909 395.533 64.909 396.344 64.909 397.155 64.909 397.965 64.909 398.776 64.909 398.776 64.098 399.587 64.098 400.398 64.098 400.398 63.288 401.208 63.288 401.208 62.477 401.208 63.288 401.208 64.098 401.208 64.909 401.208 66.53 401.208 68.151 401.208 68.962 401.208 69.773 401.208 70.583 401.208 72.204 401.208 73.015 401.208 73.825 401.208 75.447 401.208 76.257 401.208 77.878 401.208 78.689 401.208 79.5 401.208 80.31 401.208 81.931 401.208 82.742 401.208 83.553 401.208 84.363 401.208 85.174 401.208 85.984 401.208 86.795 401.208 88.416 401.208 89.227 401.208 90.037 401.208 90.848 401.208 91.658 401.208 92.469 400.398 92.469 398.776 92.469 397.155 92.469 396.344 92.469 395.533 92.469 394.723 92.469 393.912 92.469 392.29 92.469 390.669 92.469 389.048 92.469 387.426 92.469 386.615 92.469 384.994 92.469 383.373 92.469 382.562 92.469 381.751 92.469 380.94 92.469 378.508 92.469 377.698 92.469 376.076 92.469 373.644 92.469 372.833 92.469 372.022 92.469 371.212 92.469 370.401 92.469 369.59 92.469 368.78 92.469 367.969 92.469 367.158 92.469 366.347 92.469 365.537 92.469 364.726 92.469 363.915 92.469 363.105 92.469 362.294 92.469 361.483 92.469 360.672 92.469 359.862 92.469 359.051 92.469 358.24 92.469 357.43 92.469 356.619 92.469 355.808 92.469 354.997 92.469 353.376 92.469 352.565 92.469 351.755 92.469 350.944 92.469 349.322 92.469 348.512 92.469 346.89 92.469 346.08 92.469 345.269 92.469 344.458 92.469 343.647 92.469 342.837 92.469 342.026 92.469 340.405 92.469 339.594 92.469 337.972 92.469 337.162 92.469 335.54 92.469 334.73 92.469 333.919 92.469 333.108 92.469 333.108 90.848 333.108 90.037 333.108 89.227 333.108 88.416 333.108 87.605 333.108 86.795 333.108 85.984 333.108 85.174 333.108 83.553 333.108 82.742 333.108 81.931 333.108 81.121 333.108 80.31 333.108 79.5 333.108 78.689 333.108 77.878 333.108 77.068 333.108 76.257 333.108 75.447 333.108 74.636 333.108 73.825 333.108 72.204 333.108 70.583 333.108 69.773 333.108 68.962 333.108 68.151 333.108 67.341 333.108 66.53 333.108 65.72 333.108 64.909 333.108 64.098 333.108 63.288 333.108 60.856 333.108 60.045 333.108 59.235 333.108 58.424 333.108 57.614 333.108 55.993 333.108 55.182 333.108 54.371 333.108 53.561 333.108 51.94 333.108 51.129 333.108 50.318 333.108 49.508 333.108 47.887 333.108 47.076 333.108 46.265 333.108 45.455 333.108 44.644 333.108 43.834 333.108 43.023 333.108 41.402 333.108 40.591 333.108 38.97 333.108 38.16 333.108 37.349 333.108 36.538 333.919 36.538 335.54 36.538 336.351 36.538 337.162 36.538 337.972 36.538 338.783 36.538 339.594 36.538 342.026 36.538 342.837 36.538 343.647 36.538 344.458 36.538 346.89 36.538 347.701 36.538 348.512 36.538 350.944 36.538 352.565 36.538 354.997 36.538 355.808 36.538 356.619 36.538 358.24 36.538 359.051 36.538 360.672 36.538" fill="none" stroke="#fff" stroke-linecap="round" stroke-linejoin="round" stroke-width="1.08"/><polygon points="467.687 64.909 467.687 65.72 467.687 68.151 467.687 68.962 467.687 70.583 467.687 71.394 467.687 72.204 467.687 73.015 467.687 73.825 467.687 75.447 467.687 76.257 467.687 77.068 467.687 78.689 467.687 79.5 467.687 80.31 467.687 81.121 467.687 81.931 467.687 82.742 467.687 83.553 467.687 85.174 467.687 85.984 467.687 86.795 467.687 88.416 467.687 89.227 467.687 90.037 467.687 90.848 467.687 91.658 467.687 92.469 467.687 94.09 467.687 94.901 467.687 95.711 467.687 96.522 467.687 97.333 467.687 98.143 467.687 99.764 467.687 100.575 467.687 101.385 467.687 102.196 467.687 103.817 467.687 105.438 467.687 106.249 467.687 107.06 467.687 109.491 467.687 111.113 467.687 111.923 467.687 112.734 467.687 114.355 467.687 115.166 467.687 115.976 466.876 115.976 466.876 117.597 466.876 118.408 466.876 119.218 466.876 120.84 466.876 121.65 466.876 122.461 466.876 123.271 466.876 124.082 466.876 124.893 466.876 125.703 466.066 125.703 463.633 125.703 462.823 125.703 462.012 125.703 461.201 125.703 460.391 125.703 459.58 125.703 458.769 125.703 457.958 125.703 457.148 125.703 454.716 125.703 453.094 125.703 452.283 125.703 450.662 125.703 448.23 125.703 445.798 125.703 444.987 125.703 444.176 125.703 443.366 125.703 441.744 125.703 440.123 125.703 439.312 125.703 438.501 125.703 436.88 125.703 435.258 125.703 434.448 125.703 433.637 125.703 432.826 125.703 431.205 125.703 430.394 125.703 429.583 125.703 427.962 125.703 427.151 125.703 425.53 125.703 424.719 125.703 423.908 125.703 423.098 125.703 422.287 125.703 421.476 125.703 420.665 125.703 419.044 125.703 418.233 125.703 417.423 125.703 416.612 125.703 415.801 125.703 414.18 125.703 413.369 125.703 412.558 125.703 411.748 125.703 410.937 125.703 410.126 125.703 407.694 125.703 406.883 125.703 405.262 125.703 404.451 125.703 403.64 125.703 402.83 125.703 402.019 125.703 401.208 125.703 401.208 124.893 401.208 124.082 401.208 122.461 401.208 121.65 401.208 120.84 401.208 120.029 401.208 119.218 401.208 118.408 401.208 117.597 401.208 116.787 401.208 115.976 401.208 115.166 401.208 113.544 401.208 112.734 401.208 111.923 401.208 111.113 401.208 110.302 401.208 109.491 401.208 108.681 401.208 107.06 401.208 106.249 401.208 105.438 401.208 104.628 401.208 103.817 401.208 103.007 401.208 102.196 401.208 101.385 401.208 100.575 401.208 99.764 401.208 98.143 401.208 97.333 401.208 95.711 401.208 94.901 401.208 92.469 401.208 91.658 401.208 90.848 401.208 90.037 401.208 89.227 401.208 88.416 401.208 86.795 401.208 85.984 401.208 85.174 401.208 84.363 401.208 83.553 401.208 82.742 401.208 81.931 401.208 80.31 401.208 79.5 401.208 78.689 401.208 77.878 401.208 76.257 401.208 75.447 401.208 73.825 401.208 73.015 401.208 72.204 401.208 70.583 401.208 69.773 401.208 68.962 401.208 68.151 401.208 66.53 401.208 64.909 402.83 64.909 403.64 64.909 404.451 64.909 406.073 64.909 407.694 64.909 408.505 64.909 409.315 64.909 410.126 64.909 412.558 64.909 413.369 64.909 414.18 64.909 414.99 64.909 416.612 64.909 418.233 64.909 419.044 64.909 419.855 64.909 420.665 64.909 421.476 64.909 422.287 64.909 423.098 64.909 423.908 64.909 426.341 64.909 427.962 64.909 428.773 64.909 429.583 64.909 430.394 64.909 431.205 64.909 432.826 64.909 434.448 64.909 435.258 64.909 436.069 64.909 436.88 64.909 437.69 64.909 438.501 64.909 439.312 64.909 440.123 64.909 440.933 64.909 441.744 64.909 442.555 64.909 443.366 64.909 444.176 64.909 445.798 64.909 446.608 64.909 447.419 64.909 448.23 64.909 449.041 64.909 449.851 64.909 450.662 64.909 451.473 64.909 452.283 64.909 453.094 64.909 453.905 64.909 455.526 64.909 457.148 64.909 457.958 64.909 458.769 64.909 459.58 64.909 460.391 64.909 461.201 64.909 462.823 64.909 463.633 64.909 464.444 64.909 465.255 64.909 466.066 64.909 466.876 64.909 467.687 64.909" fill="#b2b2b2"/><polyline points="467.687 64.909 467.687 65.72 467.687 68.151 467.687 68.962 467.687 70.583 467.687 71.394 467.687 72.204 467.687 73.015 467.687 73.825 467.687 75.447 467.687 76.257 467.687 77.068 467.687 78.689 467.687 79.5 467.687 80.31 467.687 81.121 467.687 81.931 467.687 82.742 467.687 83.553 467.687 85.174 467.687 85.984 467.687 86.795 467.687 88.416 467.687 89.227 467.687 90.037 467.687 90.848 467.687 91.658 467.687 92.469 467.687 94.09 467.687 94.901 467.687 95.711 467.687 96.522 467.687 97.333 467.687 98.143 467.687 99.764 467.687 100.575 467.687 101.385 467.687 102.196 467.687 103.817 467.687 105.438 467.687 106.249 467.687 107.06 467.687 109.491 467.687 111.113 467.687 111.923 467.687 112.734 467.687 114.355 467.687 115.166 467.687 115.976 466.876 115.976 466.876 117.597 466.876 118.408 466.876 119.218 466.876 120.84 466.876 121.65 466.876 122.461 466.876 123.271 466.876 124.082 466.876 124.893 466.876 125.703 466.066 125.703 463.633 125.703 462.823 125.703 462.012 125.703 461.201 125.703 460.391 125.703 459.58 125.703 458.769 125.703 457.958 125.703 457.148 125.703 454.716 125.703 453.094 125.703 452.283 125.703 450.662 125.703 448.23 125.703 445.798 125.703 444.987 125.703 444.176 125.703 443.366 125.703 441.744 125.703 440.123 125.703 439.312 125.703 438.501 125.703 436.88 125.703 435.258 125.703 434.448 125.703 433.637 125.703 432.826 125.703 431.205 125.703 430.394 125.703 429.583 125.703 427.962 125.703 427.151 125.703 425.53 125.703 424.719 125.703 423.908 125.703 423.098 125.703 422.287 125.703 421.476 125.703 420.665 125.703 419.044 125.703 418.233 125.703 417.423 125.703 416.612 125.703 415.801 125.703 414.18 125.703 413.369 125.703 412.558 125.703 411.748 125.703 410.937 125.703 410.126 125.703 407.694 125.703 406.883 125.703 405.262 125.703 404.451 125.703 403.64 125.703 402.83 125.703 402.019 125.703 401.208 125.703 401.208 124.893 401.208 124.082 401.208 122.461 401.208 121.65 401.208 120.84 401.208 120.029 401.208 119.218 401.208 118.408 401.208 117.597 401.208 116.787 401.208 115.976 401.208 115.166 401.208 113.544 401.208 112.734 401.208 111.923 401.208 111.113 401.208 110.302 401.208 109.491 401.208 108.681 401.208 107.06 401.208 106.249 401.208 105.438 401.208 104.628 401.208 103.817 401.208 103.007 401.208 102.196 401.208 101.385 401.208 100.575 401.208 99.764 401.208 98.143 401.208 97.333 401.208 95.711 401.208 94.901 401.208 92.469 401.208 91.658 401.208 90.848 401.208 90.037 401.208 89.227 401.208 88.416 401.208 86.795 401.208 85.984 401.208 85.174 401.208 84.363 401.208 83.553 401.208 82.742 401.208 81.931 401.208 80.31 401.208 79.5 401.208 78.689 401.208 77.878 401.208 76.257 401.208 75.447 401.208 73.825 401.208 73.015 401.208 72.204 401.208 70.583 401.208 69.773 401.208 68.962 401.208 68.151 401.208 66.53 401.208 64.909 402.83 64.909 403.64 64.909 404.451 64.909 406.073 64.909 407.694 64.909 408.505 64.909 409.315 64.909 410.126 64.909 412.558 64.909 413.369 64.909 414.18 64.909 414.99 64.909 416.612 64.909 418.233 64.909 419.044 64.909 419.855 64.909 420.665 64.909 421.476 64.909 422.287 64.909 423.098 64.909 423.908 64.909 426.341 64.909 427.962 64.909 428.773 64.909 429.583 64.909 430.394 64.909 431.205 64.909 432.826 64.909 434.448 64.909 435.258 64.909 436.069 64.909 436.88 64.909 437.69 64.909 438.501 64.909 439.312 64.909 440.123 64.909 440.933 64.909 441.744 64.909 442.555 64.909 443.366 64.909 444.176 64.909 445.798 64.909 446.608 64.909 447.419 64.909 448.23 64.909 449.041 64.909 449.851 64.909 450.662 64.909 451.473 64.909 452.283 64.909 453.094 64.909 453.905 64.909 455.526 64.909 457.148 64.909 457.958 64.909 458.769 64.909 459.58 64.909 460.391 64.909 461.201 64.909 462.823 64.909 463.633 64.909 464.444 64.909 465.255 64.909 466.066 64.909 466.876 64.909 467.687 64.909" fill="none" stroke="#fff" stroke-linecap="round" stroke-linejoin="round" stroke-width="1.08"/><polygon points="333.108 92.469 333.108 94.09 333.108 94.901 333.108 96.522 333.108 97.333 333.108 98.143 333.108 99.764 333.108 100.575 333.108 101.385 333.108 103.007 333.108 103.817 333.108 105.438 333.108 107.06 333.108 109.491 333.108 111.113 333.108 111.923 333.108 112.734 333.108 113.544 333.108 114.355 333.108 115.166 333.108 116.787 333.108 117.597 333.108 119.218 333.108 120.029 333.108 122.461 333.108 123.271 333.108 124.082 333.108 124.893 333.108 125.703 333.108 126.514 333.108 127.324 333.108 128.135 333.108 129.756 333.108 130.567 333.108 131.377 333.108 132.999 333.108 134.62 333.108 135.43 333.108 136.241 333.108 137.051 333.108 137.862 333.108 138.673 333.108 140.294 333.108 141.104 333.108 141.915 332.297 141.915 332.297 142.726 331.487 142.726 330.676 142.726 330.676 143.536 329.865 143.536 329.055 143.536 328.244 143.536 327.433 142.726 326.622 143.536 325.812 143.536 325.001 143.536 324.19 143.536 323.38 142.726 322.569 141.915 321.758 141.915 321.758 141.104 320.137 141.104 319.326 141.104 319.326 141.915 317.705 141.915 316.894 141.915 316.083 141.915 315.272 141.915 315.272 142.726 314.462 142.726 314.462 141.915 313.651 142.726 312.84 142.726 312.029 142.726 311.219 142.726 311.219 141.915 310.408 141.915 309.597 141.915 309.597 141.104 308.787 138.673 307.976 138.673 307.976 139.483 307.165 139.483 307.165 140.294 306.354 140.294 305.544 140.294 305.544 141.104 304.733 141.104 303.922 141.104 303.922 140.294 303.112 140.294 303.112 139.483 302.301 139.483 301.49 139.483 300.679 139.483 300.679 138.673 300.679 137.862 299.869 137.862 299.869 137.051 299.058 137.051 298.247 137.051 298.247 137.862 298.247 138.673 298.247 139.483 298.247 140.294 297.437 140.294 296.626 140.294 296.626 141.104 296.626 140.294 295.815 140.294 295.004 140.294 295.004 139.483 294.194 139.483 293.383 139.483 292.572 139.483 292.572 138.673 291.762 138.673 290.951 138.673 290.14 138.673 290.14 137.862 289.329 137.862 289.329 137.051 289.329 136.241 289.329 137.051 288.519 137.051 286.897 137.051 286.087 137.051 283.654 137.051 281.222 137.051 279.601 137.051 278.79 137.051 277.979 137.051 277.169 137.051 275.547 137.051 274.737 137.051 273.926 137.051 269.872 137.051 269.062 137.051 268.251 137.051 266.629 137.051 265.819 137.051 265.008 137.051 263.387 137.051 260.954 137.051 260.144 137.051 259.333 137.051 257.712 137.051 256.901 137.051 255.279 137.051 254.469 137.051 252.847 137.051 252.037 137.051 252.037 135.43 252.037 133.809 252.037 132.999 252.037 131.377 252.037 130.567 252.037 129.756 252.037 128.135 252.037 126.514 252.037 125.703 252.037 124.082 252.037 123.271 252.037 122.461 252.037 121.65 252.037 120.84 252.037 120.029 252.037 119.218 252.037 118.408 252.037 117.597 252.037 116.787 252.037 115.976 252.037 115.166 252.037 114.355 251.226 114.355 251.226 113.544 251.226 112.734 251.226 109.491 251.226 108.681 251.226 106.249 251.226 105.438 251.226 104.628 251.226 103.817 251.226 103.007 251.226 102.196 251.226 101.385 251.226 99.764 251.226 98.954 251.226 98.143 251.226 97.333 251.226 96.522 251.226 94.09 251.226 93.28 251.226 92.469 254.469 92.469 255.279 92.469 256.09 92.469 256.901 92.469 258.522 92.469 259.333 92.469 260.144 92.469 260.954 92.469 262.576 92.469 263.387 92.469 265.008 92.469 265.819 92.469 266.629 92.469 268.251 92.469 269.872 92.469 270.683 92.469 271.494 92.469 272.304 92.469 273.115 92.469 274.737 92.469 275.547 92.469 276.358 92.469 277.169 92.469 278.79 92.469 279.601 92.469 280.412 92.469 282.844 92.469 285.276 92.469 286.897 92.469 287.708 92.469 288.519 92.469 290.14 92.469 290.951 92.469 291.762 92.469 293.383 92.469 294.194 92.469 295.004 92.469 295.815 92.469 296.626 92.469 299.058 92.469 299.869 92.469 301.49 92.469 303.112 92.469 305.544 92.469 306.354 92.469 307.165 92.469 307.976 92.469 310.408 92.469 312.84 92.469 313.651 92.469 314.462 92.469 315.272 92.469 316.083 92.469 316.894 92.469 318.515 92.469 319.326 92.469 320.137 92.469 320.947 92.469 321.758 92.469 322.569 92.469 323.38 92.469 324.19 92.469 326.622 92.469 327.433 92.469 328.244 92.469 329.865 92.469 330.676 92.469 331.487 92.469 333.108 92.469" fill="#b2b2b2"/><polyline points="333.108 92.469 333.108 94.09 333.108 94.901 333.108 96.522 333.108 97.333 333.108 98.143 333.108 99.764 333.108 100.575 333.108 101.385 333.108 103.007 333.108 103.817 333.108 105.438 333.108 107.06 333.108 109.491 333.108 111.113 333.108 111.923 333.108 112.734 333.108 113.544 333.108 114.355 333.108 115.166 333.108 116.787 333.108 117.597 333.108 119.218 333.108 120.029 333.108 122.461 333.108 123.271 333.108 124.082 333.108 124.893 333.108 125.703 333.108 126.514 333.108 127.324 333.108 128.135 333.108 129.756 333.108 130.567 333.108 131.377 333.108 132.999 333.108 134.62 333.108 135.43 333.108 136.241 333.108 137.051 333.108 137.862 333.108 138.673 333.108 140.294 333.108 141.104 333.108 141.915 332.297 141.915 332.297 142.726 331.487 142.726 330.676 142.726 330.676 143.536 329.865 143.536 329.055 143.536 328.244 143.536 327.433 142.726 326.622 143.536 325.812 143.536 325.001 143.536 324.19 143.536 323.38 142.726 322.569 141.915 321.758 141.915 321.758 141.104 320.137 141.104 319.326 141.104 319.326 141.915 317.705 141.915 316.894 141.915 316.083 141.915 315.272 141.915 315.272 142.726 314.462 142.726 314.462 141.915 313.651 142.726 312.84 142.726 312.029 142.726 311.219 142.726 311.219 141.915 310.408 141.915 309.597 141.915 309.597 141.104 308.787 138.673 307.976 138.673 307.976 139.483 307.165 139.483 307.165 140.294 306.354 140.294 305.544 140.294 305.544 141.104 304.733 141.104 303.922 141.104 303.922 140.294 303.112 140.294 303.112 139.483 302.301 139.483 301.49 139.483 300.679 139.483 300.679 138.673 300.679 137.862 299.869 137.862 299.869 137.051 299.058 137.051 298.247 137.051 298.247 137.862 298.247 138.673 298.247 139.483 298.247 140.294 297.437 140.294 296.626 140.294 296.626 141.104 296.626 140.294 295.815 140.294 295.004 140.294 295.004 139.483 294.194 139.483 293.383 139.483 292.572 139.483 292.572 138.673 291.762 138.673 290.951 138.673 290.14 138.673 290.14 137.862 289.329 137.862 289.329 137.051 289.329 136.241 289.329 137.051 288.519 137.051 286.897 137.051 286.087 137.051 283.654 137.051 281.222 137.051 279.601 137.051 278.79 137.051 277.979 137.051 277.169 137.051 275.547 137.051 274.737 137.051 273.926 137.051 269.872 137.051 269.062 137.051 268.251 137.051 266.629 137.051 265.819 137.051 265.008 137.051 263.387 137.051 260.954 137.051 260.144 137.051 259.333 137.051 257.712 137.051 256.901 137.051 255.279 137.051 254.469 137.051 252.847 137.051 252.037 137.051 252.037 135.43 252.037 133.809 252.037 132.999 252.037 131.377 252.037 130.567 252.037 129.756 252.037 128.135 252.037 126.514 252.037 125.703 252.037 124.082 252.037 123.271 252.037 122.461 252.037 121.65 252.037 120.84 252.037 120.029 252.037 119.218 252.037 118.408 252.037 117.597 252.037 116.787 252.037 115.976 252.037 115.166 252.037 114.355 251.226 114.355 251.226 113.544 251.226 112.734 251.226 109.491 251.226 108.681 251.226 106.249 251.226 105.438 251.226 104.628 251.226 103.817 251.226 103.007 251.226 102.196 251.226 101.385 251.226 99.764 251.226 98.954 251.226 98.143 251.226 97.333 251.226 96.522 251.226 94.09 251.226 93.28 251.226 92.469 254.469 92.469 255.279 92.469 256.09 92.469 256.901 92.469 258.522 92.469 259.333 92.469 260.144 92.469 260.954 92.469 262.576 92.469 263.387 92.469 265.008 92.469 265.819 92.469 266.629 92.469 268.251 92.469 269.872 92.469 270.683 92.469 271.494 92.469 272.304 92.469 273.115 92.469 274.737 92.469 275.547 92.469 276.358 92.469 277.169 92.469 278.79 92.469 279.601 92.469 280.412 92.469 282.844 92.469 285.276 92.469 286.897 92.469 287.708 92.469 288.519 92.469 290.14 92.469 290.951 92.469 291.762 92.469 293.383 92.469 294.194 92.469 295.004 92.469 295.815 92.469 296.626 92.469 299.058 92.469 299.869 92.469 301.49 92.469 303.112 92.469 305.544 92.469 306.354 92.469 307.165 92.469 307.976 92.469 310.408 92.469 312.84 92.469 313.651 92.469 314.462 92.469 315.272 92.469 316.083 92.469 316.894 92.469 318.515 92.469 319.326 92.469 320.137 92.469 320.947 92.469 321.758 92.469 322.569 92.469 323.38 92.469 324.19 92.469 326.622 92.469 327.433 92.469 328.244 92.469 329.865 92.469 330.676 92.469 331.487 92.469 333.108 92.469" fill="none" stroke="#fff" stroke-linecap="round" stroke-linejoin="round" stroke-width="1.08"/><polygon points="401.208 131.377 401.208 132.188 401.208 132.999 401.208 133.809 401.208 134.62 401.208 135.43 401.208 136.241 401.208 137.051 398.776 137.051 397.965 137.051 397.155 137.051 396.344 137.051 395.533 137.051 394.723 137.051 393.912 137.051 393.101 137.051 392.29 137.051 391.48 137.051 390.669 137.051 389.858 137.051 389.048 137.051 388.237 137.051 387.426 137.051 386.615 137.051 385.805 137.051 384.994 137.051 384.183 137.051 383.373 137.051 382.562 137.051 381.751 137.051 380.94 137.051 380.13 137.051 379.319 137.051 378.508 137.051 377.698 137.051 376.887 137.051 376.076 137.051 375.265 137.051 374.455 137.051 373.644 137.051 372.833 137.051 369.59 137.051 367.158 137.051 365.537 137.051 364.726 137.051 363.915 137.051 363.105 137.051 361.483 137.051 360.672 137.051 359.862 137.051 359.051 137.051 358.24 137.051 357.43 137.051 356.619 137.051 355.808 137.051 354.997 137.051 353.376 137.051 352.565 137.051 351.755 137.051 350.944 137.051 350.133 137.051 349.322 137.051 348.512 137.051 347.701 137.051 346.89 137.051 346.08 137.051 345.269 137.051 344.458 137.051 343.647 137.051 342.026 137.051 341.215 137.051 340.405 137.051 337.972 137.051 337.162 137.051 336.351 137.051 335.54 137.051 334.73 137.051 333.108 137.051 333.108 136.241 333.108 135.43 333.108 134.62 333.108 132.999 333.108 131.377 333.108 130.567 333.108 129.756 333.108 128.946 333.108 128.135 333.108 127.324 333.108 126.514 333.108 125.703 333.108 124.893 333.108 124.082 333.108 123.271 333.108 122.461 333.108 120.029 333.108 119.218 333.108 117.597 333.108 116.787 333.108 115.166 333.108 114.355 333.108 113.544 333.108 112.734 333.108 111.923 333.108 111.113 333.108 110.302 333.108 109.491 333.108 107.06 333.108 105.438 333.108 103.817 333.108 103.007 333.108 101.385 333.108 100.575 333.108 99.764 333.108 98.954 333.108 98.143 333.108 97.333 333.108 96.522 333.108 94.901 333.108 94.09 333.108 92.469 333.919 92.469 334.73 92.469 335.54 92.469 337.162 92.469 337.972 92.469 339.594 92.469 340.405 92.469 342.026 92.469 342.837 92.469 343.647 92.469 344.458 92.469 345.269 92.469 346.08 92.469 346.89 92.469 348.512 92.469 349.322 92.469 350.944 92.469 351.755 92.469 352.565 92.469 353.376 92.469 354.187 92.469 354.997 92.469 355.808 92.469 356.619 92.469 357.43 92.469 358.24 92.469 359.051 92.469 359.862 92.469 360.672 92.469 361.483 92.469 362.294 92.469 363.105 92.469 363.915 92.469 364.726 92.469 365.537 92.469 366.347 92.469 367.158 92.469 367.969 92.469 368.78 92.469 369.59 92.469 370.401 92.469 371.212 92.469 372.022 92.469 372.833 92.469 373.644 92.469 375.265 92.469 376.076 92.469 376.887 92.469 377.698 92.469 378.508 92.469 380.94 92.469 381.751 92.469 382.562 92.469 383.373 92.469 384.994 92.469 386.615 92.469 387.426 92.469 389.048 92.469 389.858 92.469 390.669 92.469 392.29 92.469 393.912 92.469 394.723 92.469 395.533 92.469 396.344 92.469 397.155 92.469 398.776 92.469 400.398 92.469 401.208 92.469 401.208 94.901 401.208 95.711 401.208 97.333 401.208 98.143 401.208 98.954 401.208 99.764 401.208 100.575 401.208 101.385 401.208 102.196 401.208 103.007 401.208 103.817 401.208 104.628 401.208 105.438 401.208 106.249 401.208 107.06 401.208 108.681 401.208 109.491 401.208 110.302 401.208 111.113 401.208 111.923 401.208 112.734 401.208 113.544 401.208 114.355 401.208 115.166 401.208 115.976 401.208 116.787 401.208 117.597 401.208 118.408 401.208 119.218 401.208 120.029 401.208 120.84 401.208 121.65 401.208 122.461 401.208 124.082 401.208 124.893 401.208 125.703 401.208 126.514 401.208 127.324 401.208 128.135 401.208 128.946 401.208 129.756 401.208 130.567 401.208 131.377" fill="#b2b2b2"/><polyline points="401.208 131.377 401.208 132.188 401.208 132.999 401.208 133.809 401.208 134.62 401.208 135.43 401.208 136.241 401.208 137.051 398.776 137.051 397.965 137.051 397.155 137.051 396.344 137.051 395.533 137.051 394.723 137.051 393.912 137.051 393.101 137.051 392.29 137.051 391.48 137.051 390.669 137.051 389.858 137.051 389.048 137.051 388.237 137.051 387.426 137.051 386.615 137.051 385.805 137.051 384.994 137.051 384.183 137.051 383.373 137.051 382.562 137.051 381.751 137.051 380.94 137.051 380.13 137.051 379.319 137.051 378.508 137.051 377.698 137.051 376.887 137.051 376.076 137.051 375.265 137.051 374.455 137.051 373.644 137.051 372.833 137.051 369.59 137.051 367.158 137.051 365.537 137.051 364.726 137.051 363.915 137.051 363.105 137.051 361.483 137.051 360.672 137.051 359.862 137.051 359.051 137.051 358.24 137.051 357.43 137.051 356.619 137.051 355.808 137.051 354.997 137.051 353.376 137.051 352.565 137.051 351.755 137.051 350.944 137.051 350.133 137.051 349.322 137.051 348.512 137.051 347.701 137.051 346.89 137.051 346.08 137.051 345.269 137.051 344.458 137.051 343.647 137.051 342.026 137.051 341.215 137.051 340.405 137.051 337.972 137.051 337.162 137.051 336.351 137.051 335.54 137.051 334.73 137.051 333.108 137.051 333.108 136.241 333.108 135.43 333.108 134.62 333.108 132.999 333.108 131.377 333.108 130.567 333.108 129.756 333.108 128.946 333.108 128.135 333.108 127.324 333.108 126.514 333.108 125.703 333.108 124.893 333.108 124.082 333.108 123.271 333.108 122.461 333.108 120.029 333.108 119.218 333.108 117.597 333.108 116.787 333.108 115.166 333.108 114.355 333.108 113.544 333.108 112.734 333.108 111.923 333.108 111.113 333.108 110.302 333.108 109.491 333.108 107.06 333.108 105.438 333.108 103.817 333.108 103.007 333.108 101.385 333.108 100.575 333.108 99.764 333.108 98.954 333.108 98.143 333.108 97.333 333.108 96.522 333.108 94.901 333.108 94.09 333.108 92.469 333.919 92.469 334.73 92.469 335.54 92.469 337.162 92.469 337.972 92.469 339.594 92.469 340.405 92.469 342.026 92.469 342.837 92.469 343.647 92.469 344.458 92.469 345.269 92.469 346.08 92.469 346.89 92.469 348.512 92.469 349.322 92.469 350.944 92.469 351.755 92.469 352.565 92.469 353.376 92.469 354.187 92.469 354.997 92.469 355.808 92.469 356.619 92.469 357.43 92.469 358.24 92.469 359.051 92.469 359.862 92.469 360.672 92.469 361.483 92.469 362.294 92.469 363.105 92.469 363.915 92.469 364.726 92.469 365.537 92.469 366.347 92.469 367.158 92.469 367.969 92.469 368.78 92.469 369.59 92.469 370.401 92.469 371.212 92.469 372.022 92.469 372.833 92.469 373.644 92.469 375.265 92.469 376.076 92.469 376.887 92.469 377.698 92.469 378.508 92.469 380.94 92.469 381.751 92.469 382.562 92.469 383.373 92.469 384.994 92.469 386.615 92.469 387.426 92.469 389.048 92.469 389.858 92.469 390.669 92.469 392.29 92.469 393.912 92.469 394.723 92.469 395.533 92.469 396.344 92.469 397.155 92.469 398.776 92.469 400.398 92.469 401.208 92.469 401.208 94.901 401.208 95.711 401.208 97.333 401.208 98.143 401.208 98.954 401.208 99.764 401.208 100.575 401.208 101.385 401.208 102.196 401.208 103.007 401.208 103.817 401.208 104.628 401.208 105.438 401.208 106.249 401.208 107.06 401.208 108.681 401.208 109.491 401.208 110.302 401.208 111.113 401.208 111.923 401.208 112.734 401.208 113.544 401.208 114.355 401.208 115.166 401.208 115.976 401.208 116.787 401.208 117.597 401.208 118.408 401.208 119.218 401.208 120.029 401.208 120.84 401.208 121.65 401.208 122.461 401.208 124.082 401.208 124.893 401.208 125.703 401.208 126.514 401.208 127.324 401.208 128.135 401.208 128.946 401.208 129.756 401.208 130.567 401.208 131.377" fill="none" stroke="#fff" stroke-linecap="round" stroke-linejoin="round" stroke-width="1.08"/><polygon points="401.208 171.907 401.208 172.717 401.208 174.339 401.208 175.96 401.208 177.581 401.208 179.202 401.208 180.823 401.208 181.634 401.208 182.444 401.208 183.255 401.208 184.876 401.208 185.687 401.208 186.497 401.208 188.119 401.208 188.929 401.208 190.55 401.208 191.361 401.208 192.172 401.208 193.793 401.208 194.603 400.398 193.793 399.587 193.793 398.776 193.793 397.965 193.793 397.155 193.793 396.344 193.793 395.533 193.793 394.723 193.793 393.912 193.793 393.912 192.982 393.101 192.982 393.101 192.172 392.29 192.172 391.48 192.172 390.669 192.172 390.669 192.982 390.669 193.793 389.858 193.793 389.858 192.982 389.048 192.172 388.237 192.172 388.237 191.361 387.426 191.361 386.615 191.361 385.805 190.55 384.994 190.55 384.183 190.55 383.373 190.55 383.373 189.74 382.562 189.74 381.751 189.74 381.751 190.55 380.94 190.55 380.13 190.55 379.319 190.55 379.319 191.361 378.508 191.361 377.698 191.361 377.698 190.55 377.698 189.74 378.508 189.74 378.508 188.929 377.698 188.929 376.887 188.929 376.076 188.929 375.265 188.929 374.455 188.929 374.455 188.119 375.265 188.119 375.265 187.308 374.455 187.308 374.455 186.497 374.455 185.687 374.455 184.876 375.265 184.066 374.455 184.066 374.455 183.255 374.455 182.444 373.644 182.444 374.455 181.634 373.644 181.634 373.644 180.823 373.644 180.013 374.455 180.013 374.455 179.202 374.455 178.392 374.455 177.581 373.644 177.581 374.455 177.581 374.455 176.77 373.644 176.77 373.644 175.96 373.644 175.149 373.644 174.339 372.833 174.339 372.022 174.339 371.212 174.339 370.401 174.339 369.59 174.339 369.59 175.149 369.59 174.339 368.78 174.339 368.78 173.528 367.969 173.528 367.158 173.528 367.158 172.717 367.158 171.907 367.158 171.096 367.969 171.096 367.969 170.286 367.158 169.475 367.158 168.664 367.158 167.854 367.158 167.043 366.347 167.043 365.537 167.043 364.726 167.043 363.915 167.043 363.915 166.233 363.105 166.233 363.105 165.422 363.105 164.612 362.294 164.612 361.483 164.612 361.483 163.801 360.672 163.801 360.672 162.99 360.672 162.18 359.862 162.18 359.862 161.369 359.051 161.369 358.24 161.369 358.24 160.559 357.43 160.559 357.43 159.748 356.619 159.748 356.619 158.937 355.808 158.937 355.808 159.748 354.997 159.748 354.997 158.937 354.187 158.937 354.187 158.127 353.376 158.127 353.376 157.316 352.565 157.316 352.565 158.127 351.755 158.127 350.944 158.127 350.944 157.316 350.133 157.316 349.322 157.316 349.322 156.506 348.512 156.506 347.701 156.506 347.701 155.695 348.512 155.695 348.512 154.884 347.701 154.884 346.89 154.884 346.89 154.074 346.89 153.263 347.701 153.263 348.512 153.263 347.701 153.263 347.701 152.453 346.89 152.453 346.89 151.642 347.701 151.642 347.701 150.831 347.701 150.021 348.512 150.021 348.512 149.21 347.701 149.21 347.701 148.4 346.89 148.4 346.89 147.589 346.89 146.779 346.08 146.779 345.269 146.779 344.458 146.779 343.647 146.779 342.837 146.779 342.837 145.968 342.837 146.779 342.026 146.779 341.215 146.779 341.215 145.968 341.215 146.779 340.405 146.779 340.405 145.968 339.594 145.968 338.783 145.968 337.972 145.968 337.972 145.157 337.972 144.347 337.162 144.347 337.162 143.536 336.351 143.536 336.351 142.726 335.54 142.726 335.54 143.536 334.73 143.536 334.73 142.726 334.73 143.536 334.73 142.726 333.919 142.726 333.108 142.726 333.108 141.915 333.108 141.104 333.108 140.294 333.108 139.483 333.108 138.673 333.108 137.862 333.108 137.051 334.73 137.051 335.54 137.051 336.351 137.051 337.162 137.051 337.972 137.051 340.405 137.051 341.215 137.051 342.026 137.051 343.647 137.051 344.458 137.051 345.269 137.051 346.08 137.051 346.89 137.051 347.701 137.051 348.512 137.051 349.322 137.051 350.133 137.051 350.944 137.051 351.755 137.051 352.565 137.051 353.376 137.051 354.997 137.051 355.808 137.051 356.619 137.051 357.43 137.051 358.24 137.051 359.051 137.051 359.862 137.051 360.672 137.051 361.483 137.051 363.105 137.051 363.915 137.051 364.726 137.051 365.537 137.051 367.158 137.051 369.59 137.051 372.833 137.051 373.644 137.051 374.455 137.051 375.265 137.051 376.076 137.051 376.887 137.051 377.698 137.051 378.508 137.051 379.319 137.051 380.13 137.051 380.94 137.051 381.751 137.051 382.562 137.051 383.373 137.051 384.183 137.051 384.994 137.051 385.805 137.051 386.615 137.051 387.426 137.051 388.237 137.051 389.048 137.051 389.858 137.051 390.669 137.051 391.48 137.051 392.29 137.051 393.101 137.051 393.912 137.051 394.723 137.051 395.533 137.051 396.344 137.051 397.155 137.051 397.965 137.051 398.776 137.051 401.208 137.051 401.208 137.862 401.208 138.673 401.208 139.483 401.208 141.104 401.208 141.915 401.208 142.726 401.208 143.536 401.208 144.347 401.208 145.968 401.208 146.779 401.208 147.589 401.208 148.4 401.208 149.21 401.208 150.021 401.208 150.831 401.208 153.263 401.208 154.884 401.208 155.695 401.208 156.506 401.208 157.316 401.208 158.127 401.208 158.937 401.208 160.559 401.208 161.369 401.208 162.18 401.208 162.99 401.208 163.801 401.208 164.612 401.208 165.422 401.208 166.233 401.208 167.043 401.208 167.854 401.208 168.664 401.208 169.475 401.208 170.286 401.208 171.096 401.208 171.907" fill="#b2b2b2"/><polyline points="401.208 171.907 401.208 172.717 401.208 174.339 401.208 175.96 401.208 177.581 401.208 179.202 401.208 180.823 401.208 181.634 401.208 182.444 401.208 183.255 401.208 184.876 401.208 185.687 401.208 186.497 401.208 188.119 401.208 188.929 401.208 190.55 401.208 191.361 401.208 192.172 401.208 193.793 401.208 194.603 400.398 193.793 399.587 193.793 398.776 193.793 397.965 193.793 397.155 193.793 396.344 193.793 395.533 193.793 394.723 193.793 393.912 193.793 393.912 192.982 393.101 192.982 393.101 192.172 392.29 192.172 391.48 192.172 390.669 192.172 390.669 192.982 390.669 193.793 389.858 193.793 389.858 192.982 389.048 192.172 388.237 192.172 388.237 191.361 387.426 191.361 386.615 191.361 385.805 190.55 384.994 190.55 384.183 190.55 383.373 190.55 383.373 189.74 382.562 189.74 381.751 189.74 381.751 190.55 380.94 190.55 380.13 190.55 379.319 190.55 379.319 191.361 378.508 191.361 377.698 191.361 377.698 190.55 377.698 189.74 378.508 189.74 378.508 188.929 377.698 188.929 376.887 188.929 376.076 188.929 375.265 188.929 374.455 188.929 374.455 188.119 375.265 188.119 375.265 187.308 374.455 187.308 374.455 186.497 374.455 185.687 374.455 184.876 375.265 184.066 374.455 184.066 374.455 183.255 374.455 182.444 373.644 182.444 374.455 181.634 373.644 181.634 373.644 180.823 373.644 180.013 374.455 180.013 374.455 179.202 374.455 178.392 374.455 177.581 373.644 177.581 374.455 177.581 374.455 176.77 373.644 176.77 373.644 175.96 373.644 175.149 373.644 174.339 372.833 174.339 372.022 174.339 371.212 174.339 370.401 174.339 369.59 174.339 369.59 175.149 369.59 174.339 368.78 174.339 368.78 173.528 367.969 173.528 367.158 173.528 367.158 172.717 367.158 171.907 367.158 171.096 367.969 171.096 367.969 170.286 367.158 169.475 367.158 168.664 367.158 167.854 367.158 167.043 366.347 167.043 365.537 167.043 364.726 167.043 363.915 167.043 363.915 166.233 363.105 166.233 363.105 165.422 363.105 164.612 362.294 164.612 361.483 164.612 361.483 163.801 360.672 163.801 360.672 162.99 360.672 162.18 359.862 162.18 359.862 161.369 359.051 161.369 358.24 161.369 358.24 160.559 357.43 160.559 357.43 159.748 356.619 159.748 356.619 158.937 355.808 158.937 355.808 159.748 354.997 159.748 354.997 158.937 354.187 158.937 354.187 158.127 353.376 158.127 353.376 157.316 352.565 157.316 352.565 158.127 351.755 158.127 350.944 158.127 350.944 157.316 350.133 157.316 349.322 157.316 349.322 156.506 348.512 156.506 347.701 156.506 347.701 155.695 348.512 155.695 348.512 154.884 347.701 154.884 346.89 154.884 346.89 154.074 346.89 153.263 347.701 153.263 348.512 153.263 347.701 153.263 347.701 152.453 346.89 152.453 346.89 151.642 347.701 151.642 347.701 150.831 347.701 150.021 348.512 150.021 348.512 149.21 347.701 149.21 347.701 148.4 346.89 148.4 346.89 147.589 346.89 146.779 346.08 146.779 345.269 146.779 344.458 146.779 343.647 146.779 342.837 146.779 342.837 145.968 342.837 146.779 342.026 146.779 341.215 146.779 341.215 145.968 341.215 146.779 340.405 146.779 340.405 145.968 339.594 145.968 338.783 145.968 337.972 145.968 337.972 145.157 337.972 144.347 337.162 144.347 337.162 143.536 336.351 143.536 336.351 142.726 335.54 142.726 335.54 143.536 334.73 143.536 334.73 142.726 334.73 143.536 334.73 142.726 333.919 142.726 333.108 142.726 333.108 141.915 333.108 141.104 333.108 140.294 333.108 139.483 333.108 138.673 333.108 137.862 333.108 137.051 334.73 137.051 335.54 137.051 336.351 137.051 337.162 137.051 337.972 137.051 340.405 137.051 341.215 137.051 342.026 137.051 343.647 137.051 344.458 137.051 345.269 137.051 346.08 137.051 346.89 137.051 347.701 137.051 348.512 137.051 349.322 137.051 350.133 137.051 350.944 137.051 351.755 137.051 352.565 137.051 353.376 137.051 354.997 137.051 355.808 137.051 356.619 137.051 357.43 137.051 358.24 137.051 359.051 137.051 359.862 137.051 360.672 137.051 361.483 137.051 363.105 137.051 363.915 137.051 364.726 137.051 365.537 137.051 367.158 137.051 369.59 137.051 372.833 137.051 373.644 137.051 374.455 137.051 375.265 137.051 376.076 137.051 376.887 137.051 377.698 137.051 378.508 137.051 379.319 137.051 380.13 137.051 380.94 137.051 381.751 137.051 382.562 137.051 383.373 137.051 384.183 137.051 384.994 137.051 385.805 137.051 386.615 137.051 387.426 137.051 388.237 137.051 389.048 137.051 389.858 137.051 390.669 137.051 391.48 137.051 392.29 137.051 393.101 137.051 393.912 137.051 394.723 137.051 395.533 137.051 396.344 137.051 397.155 137.051 397.965 137.051 398.776 137.051 401.208 137.051 401.208 137.862 401.208 138.673 401.208 139.483 401.208 141.104 401.208 141.915 401.208 142.726 401.208 143.536 401.208 144.347 401.208 145.968 401.208 146.779 401.208 147.589 401.208 148.4 401.208 149.21 401.208 150.021 401.208 150.831 401.208 153.263 401.208 154.884 401.208 155.695 401.208 156.506 401.208 157.316 401.208 158.127 401.208 158.937 401.208 160.559 401.208 161.369 401.208 162.18 401.208 162.99 401.208 163.801 401.208 164.612 401.208 165.422 401.208 166.233 401.208 167.043 401.208 167.854 401.208 168.664 401.208 169.475 401.208 170.286 401.208 171.096 401.208 171.907" fill="none" stroke="#fff" stroke-linecap="round" stroke-linejoin="round" stroke-width="1.08"/></g><text transform="translate(295.747 237.916)" font-size="80" font-family="MyriadPro-Regular, Myriad Pro">6</text><text x="-173.817" y="-181.834"/><text transform="translate(18.809 34.373)" font-size="17.5" font-family="MyriadPro-Regular, Myriad Pro"><tspan letter-spacing="0.004em">R</tspan><tspan x="9.485" y="0">e</tspan><tspan x="18.252" y="0" letter-spacing="-0.006em">g</tspan><tspan x="27.93" y="0">ion 6 is u</tspan><tspan x="92.119" y="0" letter-spacing="0.004em">r</tspan><tspan x="97.912" y="0">ban and </tspan><tspan x="161.454" y="0" letter-spacing="-0.006em">t</tspan><tspan x="167.141" y="0">od</tspan><tspan x="186.619" y="0" letter-spacing="-0.008em">a</tspan><tspan x="194.914" y="0">y </tspan><tspan x="0" y="21">mostly a</tspan><tspan x="61.442" y="21" letter-spacing="-0.006em">cc</tspan><tspan x="76.912" y="21">ou</tspan><tspan x="96.162" y="21" letter-spacing="-0.004em">n</tspan><tspan x="105.804" y="21">ts </tspan><tspan x="122.236" y="21" letter-spacing="-0.013em">f</tspan><tspan x="127.119" y="21">or the </tspan><tspan x="0" y="42">u</tspan><tspan x="9.643" y="42" letter-spacing="0.004em">r</tspan><tspan x="15.435" y="42">ban sp</tspan><tspan x="64.137" y="42" letter-spacing="-0.005em">r</tspan><tspan x="69.772" y="42" letter-spacing="-0.008em">a</tspan><tspan x="78.067" y="42">wl f</tspan><tspan x="103.897" y="42" letter-spacing="-0.01em">r</tspan><tspan x="109.445" y="42">om the capital </tspan><tspan x="0" y="63">O</tspan><tspan x="12.058" y="63" letter-spacing="0.017em">k</tspan><tspan x="20.563" y="63">lahoma </tspan><tspan x="79.188" y="63" letter-spacing="-0.003em">C</tspan><tspan x="89.285" y="63">i</tspan><tspan x="93.38" y="63" letter-spacing="0.009em">t</tspan><tspan x="99.33" y="63" letter-spacing="-0.039em">y</tspan><tspan x="106.89" y="63">.</tspan><tspan x="110.512" y="63" letter-spacing="-0.036em"> </tspan><tspan x="113.592" y="63" letter-spacing="-0.016em">W</tspan><tspan x="128.117" y="63">ith </tspan><tspan x="151.426" y="63" letter-spacing="-0.013em">f</tspan><tspan x="156.309" y="63">ew hills </tspan><tspan x="0" y="84">and tall </tspan><tspan x="57.925" y="84" letter-spacing="-0.006em">g</tspan><tspan x="67.602" y="84" letter-spacing="-0.005em">r</tspan><tspan x="73.237" y="84">asses it is easily </tspan><tspan x="0" y="105">defined as a member of the </tspan><tspan x="0" y="126" letter-spacing="-0.006em">g</tspan><tspan x="9.677" y="126" letter-spacing="-0.01em">r</tspan><tspan x="15.225" y="126">e</tspan><tspan x="23.993" y="126" letter-spacing="-0.004em">a</tspan><tspan x="32.358" y="126">t plain</tspan><tspan x="78.189" y="126" letter-spacing="-0.011em">s</tspan><tspan x="84.927" y="126">.</tspan><tspan x="88.549" y="126" letter-spacing="-0.036em"> </tspan><tspan x="91.629" y="126" letter-spacing="-0.016em">W</tspan><tspan x="106.154" y="126">ith so ma</tspan><tspan x="172.741" y="126" letter-spacing="-0.013em">n</tspan><tspan x="182.226" y="126">y </tspan><tspan x="0" y="147">people living in this a</tspan><tspan x="155.029" y="147" letter-spacing="-0.01em">r</tspan><tspan x="160.577" y="147">ea, </tspan><tspan x="0" y="168">most wildfl</tspan><tspan x="80.762" y="168" letter-spacing="-0.007em">o</tspan><tspan x="90.247" y="168" letter-spacing="-0.01em">w</tspan><tspan x="102.952" y="168">ers a</tspan><tspan x="136.517" y="168" letter-spacing="-0.01em">r</tspan><tspan x="142.065" y="168">e seen </tspan><tspan x="0" y="189">along major </tspan><tspan x="91.7" y="189" letter-spacing="-0.01em">r</tspan><tspan x="97.248" y="189">oad </tspan><tspan x="128.87" y="189" letter-spacing="-0.004em">w</tspan><tspan x="141.68" y="189" letter-spacing="-0.008em">a</tspan><tspan x="149.975" y="189" letter-spacing="-0.006em">y</tspan><tspan x="158.112" y="189">s and </tspan><tspan x="0" y="210" letter-spacing="-0.004em">w</tspan><tspan x="12.81" y="210">alks th</tspan><tspan x="59.728" y="210" letter-spacing="-0.01em">r</tspan><tspan x="65.275" y="210">ough local pa</tspan><tspan x="163.974" y="210" letter-spacing="0.004em">r</tspan><tspan x="169.767" y="210">k</tspan><tspan x="177.974" y="210" letter-spacing="-0.011em">s</tspan><tspan x="184.711" y="210">.</tspan></text></g></svg>